<svg width="57" height="43" viewBox="0 0 57 43" fill="none" xmlns="http://www.w3.org/2000/svg">
<path d="M5.62175 39.1936C2.48657 35.7449 0.605469 31.9827 0.605469 25.7123C0.605469 14.7392 8.44341 5.02018 19.4165 0.00390625L22.2382 4.07963C11.8921 9.72295 9.69748 16.9338 9.07044 21.6366C10.638 20.6961 12.8326 20.3825 15.0273 20.6961C20.6706 21.3231 25.0598 25.7123 25.0598 31.6692C25.0598 34.4908 23.8058 37.3125 21.9247 39.5071C19.73 41.7017 17.2219 42.6423 14.0867 42.6423C10.638 42.6423 7.50285 41.0747 5.62175 39.1936ZM36.9735 39.1936C33.8383 35.7449 31.9572 31.9827 31.9572 25.7123C31.9572 14.7392 39.7951 5.02018 50.7683 0.00390625L53.5899 4.07963C43.2438 9.72295 41.0492 16.9338 40.4222 21.6366C41.9898 20.6961 44.1844 20.3825 46.379 20.6961C52.0223 21.3231 56.4116 25.7123 56.4116 31.6692C56.4116 34.4908 55.1575 37.3125 53.2764 39.5071C51.3953 41.7017 48.5736 42.6423 45.4385 42.6423C41.9898 42.6423 38.8546 41.0747 36.9735 39.1936Z" fill="#DFE1DE"/>
</svg>
