<svg width="171" height="40" viewBox="0 0 171 40" fill="none" xmlns="http://www.w3.org/2000/svg">
<path d="M52.1035 26.4624H64.0555V22.8624H56.3515V9.30237H52.1035V26.4624Z" fill="#042A2D"/>
<path d="M71.136 24.0625C69.432 24.0625 68.544 22.5745 68.544 20.3425C68.544 18.1105 69.432 16.5985 71.136 16.5985C72.84 16.5985 73.752 18.1105 73.752 20.3425C73.752 22.5745 72.84 24.0625 71.136 24.0625ZM71.16 26.8465C75.12 26.8465 77.712 24.0385 77.712 20.3425C77.712 16.6465 75.12 13.8385 71.16 13.8385C67.224 13.8385 64.584 16.6465 64.584 20.3425C64.584 24.0385 67.224 26.8465 71.16 26.8465Z" fill="#042A2D"/>
<path d="M84.5667 30.7101C86.3907 30.7101 87.9987 30.3021 89.0787 29.3421C90.0627 28.4541 90.7107 27.1101 90.7107 25.2621V14.1741H86.9667V15.4941H86.9187C86.1987 14.4621 85.0947 13.8141 83.4627 13.8141C80.4147 13.8141 78.3027 16.3581 78.3027 19.9581C78.3027 23.7261 80.8707 25.7901 83.6307 25.7901C85.1187 25.7901 86.0547 25.1901 86.7747 24.3741H86.8707V25.5981C86.8707 27.0861 86.1747 27.9501 84.5187 27.9501C83.2227 27.9501 82.5747 27.3981 82.3587 26.7501H78.5667C78.9507 29.3181 81.1827 30.7101 84.5667 30.7101ZM84.5427 22.8861C83.0787 22.8861 82.1187 21.6861 82.1187 19.8381C82.1187 17.9661 83.0787 16.7661 84.5427 16.7661C86.1747 16.7661 87.0387 18.1581 87.0387 19.8141C87.0387 21.5421 86.2467 22.8861 84.5427 22.8861Z" fill="#042A2D"/>
<path d="M98.4094 24.0625C96.7054 24.0625 95.8174 22.5745 95.8174 20.3425C95.8174 18.1105 96.7054 16.5985 98.4094 16.5985C100.113 16.5985 101.025 18.1105 101.025 20.3425C101.025 22.5745 100.113 24.0625 98.4094 24.0625ZM98.4334 26.8465C102.393 26.8465 104.985 24.0385 104.985 20.3425C104.985 16.6465 102.393 13.8385 98.4334 13.8385C94.4974 13.8385 91.8574 16.6465 91.8574 20.3425C91.8574 24.0385 94.4974 26.8465 98.4334 26.8465Z" fill="#042A2D"/>
<path d="M106.127 26.4624H110.039V14.1744H106.127V26.4624ZM106.127 12.4704H110.039V9.30237H106.127V12.4704Z" fill="#042A2D"/>
<path d="M111.737 30.5181H115.649V25.1901H115.697C116.465 26.2221 117.593 26.8461 119.177 26.8461C122.393 26.8461 124.529 24.3021 124.529 20.3181C124.529 16.6221 122.537 13.8141 119.273 13.8141C117.593 13.8141 116.393 14.5581 115.553 15.6621H115.481V14.1741H111.737V30.5181ZM118.169 23.8221C116.489 23.8221 115.529 22.4541 115.529 20.4621C115.529 18.4701 116.393 16.9581 118.097 16.9581C119.777 16.9581 120.569 18.3501 120.569 20.4621C120.569 22.5501 119.657 23.8221 118.169 23.8221Z" fill="#042A2D"/>
<path d="M130.898 26.8461C134.114 26.8461 136.49 25.4541 136.49 22.7661C136.49 19.6221 133.946 19.0701 131.786 18.7101C130.226 18.4221 128.834 18.3021 128.834 17.4381C128.834 16.6701 129.578 16.3101 130.538 16.3101C131.618 16.3101 132.362 16.6461 132.506 17.7501H136.106C135.914 15.3261 134.042 13.8141 130.562 13.8141C127.658 13.8141 125.258 15.1581 125.258 17.7501C125.258 20.6301 127.538 21.2061 129.674 21.5661C131.306 21.8541 132.794 21.9741 132.794 23.0781C132.794 23.8701 132.05 24.3021 130.874 24.3021C129.578 24.3021 128.762 23.7021 128.618 22.4781H124.922C125.042 25.1901 127.298 26.8461 130.898 26.8461Z" fill="#042A2D"/>
<path d="M141.804 26.8224C143.508 26.8224 144.588 26.1504 145.476 24.9504H145.548V26.4624H149.292V14.1744H145.38V21.0384C145.38 22.5024 144.564 23.5104 143.22 23.5104C141.972 23.5104 141.372 22.7664 141.372 21.4224V14.1744H137.484V22.2384C137.484 24.9744 138.972 26.8224 141.804 26.8224Z" fill="#042A2D"/>
<path d="M150.993 26.4621H154.905V19.5741C154.905 18.1101 155.625 17.0781 156.849 17.0781C158.025 17.0781 158.577 17.8461 158.577 19.1661V26.4621H162.489V19.5741C162.489 18.1101 163.185 17.0781 164.433 17.0781C165.609 17.0781 166.161 17.8461 166.161 19.1661V26.4621H170.073V18.4701C170.073 15.7101 168.681 13.8141 165.897 13.8141C164.313 13.8141 162.993 14.4861 162.033 15.9741H161.985C161.361 14.6541 160.137 13.8141 158.529 13.8141C156.753 13.8141 155.577 14.6541 154.809 15.9261H154.737V14.1741H150.993V26.4621Z" fill="#042A2D"/>
<path fill-rule="evenodd" clip-rule="evenodd" d="M20.9268 40.0064C31.9725 40.0064 40.9268 31.0521 40.9268 20.0064C40.9268 8.96078 31.9725 0.00646973 20.9268 0.00646973C9.88105 0.00646973 0.926758 8.96078 0.926758 20.0064C0.926758 31.0521 9.88105 40.0064 20.9268 40.0064ZM27.1661 9.32331C27.4698 8.24452 26.4229 7.6066 25.4668 8.28777L12.1199 17.796C11.083 18.5347 11.2461 20.0064 12.3649 20.0064H15.8795V19.9792H22.7293L17.148 21.9485L14.6875 30.6896C14.3838 31.7684 15.4306 32.4063 16.3868 31.7251L29.7337 22.2169C30.7706 21.4782 30.6074 20.0064 29.4887 20.0064H24.1589L27.1661 9.32331Z" fill="url(#paint0_linear_192_248)"/>
<defs>
<linearGradient id="paint0_linear_192_248" x1="40.9083" y1="0.448624" x2="-3.19488" y2="5.86436" gradientUnits="userSpaceOnUse">
<stop stop-color="#73ED7C"/>
<stop offset="1" stop-color="#019297"/>
</linearGradient>
</defs>
</svg>
