<svg width="167" height="40" viewBox="0 0 167 40" fill="none" xmlns="http://www.w3.org/2000/svg">
<path d="M48.9951 26.4626H60.9471V22.8626H53.2431V9.30261H48.9951V26.4626Z" fill="#042A2D"/>
<path d="M68.0286 24.0637C66.3246 24.0637 65.4366 22.5757 65.4366 20.3437C65.4366 18.1117 66.3246 16.5997 68.0286 16.5997C69.7326 16.5997 70.6446 18.1117 70.6446 20.3437C70.6446 22.5757 69.7326 24.0637 68.0286 24.0637ZM68.0526 26.8477C72.0126 26.8477 74.6046 24.0397 74.6046 20.3437C74.6046 16.6477 72.0126 13.8397 68.0526 13.8397C64.1166 13.8397 61.4766 16.6477 61.4766 20.3437C61.4766 24.0397 64.1166 26.8477 68.0526 26.8477Z" fill="#042A2D"/>
<path d="M81.4593 30.7103C83.2833 30.7103 84.8913 30.3023 85.9713 29.3423C86.9553 28.4543 87.6033 27.1103 87.6033 25.2623V14.1743H83.8593V15.4943H83.8113C83.0913 14.4623 81.9873 13.8143 80.3553 13.8143C77.3073 13.8143 75.1953 16.3583 75.1953 19.9583C75.1953 23.7263 77.7633 25.7903 80.5233 25.7903C82.0113 25.7903 82.9473 25.1903 83.6673 24.3743H83.7633V25.5983C83.7633 27.0863 83.0673 27.9503 81.4113 27.9503C80.1153 27.9503 79.4673 27.3983 79.2513 26.7503H75.4593C75.8433 29.3183 78.0753 30.7103 81.4593 30.7103ZM81.4353 22.8863C79.9713 22.8863 79.0113 21.6863 79.0113 19.8383C79.0113 17.9663 79.9713 16.7663 81.4353 16.7663C83.0673 16.7663 83.9313 18.1583 83.9313 19.8143C83.9313 21.5423 83.1393 22.8863 81.4353 22.8863Z" fill="#042A2D"/>
<path d="M95.301 24.0637C93.597 24.0637 92.709 22.5757 92.709 20.3437C92.709 18.1117 93.597 16.5997 95.301 16.5997C97.005 16.5997 97.917 18.1117 97.917 20.3437C97.917 22.5757 97.005 24.0637 95.301 24.0637ZM95.325 26.8477C99.285 26.8477 101.877 24.0397 101.877 20.3437C101.877 16.6477 99.285 13.8397 95.325 13.8397C91.389 13.8397 88.749 16.6477 88.749 20.3437C88.749 24.0397 91.389 26.8477 95.325 26.8477Z" fill="#042A2D"/>
<path d="M103.02 26.4626H106.932V14.1746H103.02V26.4626ZM103.02 12.4706H106.932V9.30261H103.02V12.4706Z" fill="#042A2D"/>
<path d="M108.629 30.5183H112.541V25.1903H112.589C113.357 26.2223 114.485 26.8463 116.069 26.8463C119.285 26.8463 121.421 24.3023 121.421 20.3183C121.421 16.6223 119.429 13.8143 116.165 13.8143C114.485 13.8143 113.285 14.5583 112.445 15.6623H112.373V14.1743H108.629V30.5183ZM115.061 23.8223C113.381 23.8223 112.421 22.4543 112.421 20.4623C112.421 18.4703 113.285 16.9583 114.989 16.9583C116.669 16.9583 117.461 18.3503 117.461 20.4623C117.461 22.5503 116.549 23.8223 115.061 23.8223Z" fill="#042A2D"/>
<path d="M127.789 26.8463C131.005 26.8463 133.381 25.4543 133.381 22.7663C133.381 19.6223 130.837 19.0703 128.677 18.7103C127.117 18.4223 125.725 18.3023 125.725 17.4383C125.725 16.6703 126.469 16.3103 127.429 16.3103C128.509 16.3103 129.253 16.6463 129.397 17.7503H132.997C132.805 15.3263 130.933 13.8143 127.453 13.8143C124.549 13.8143 122.149 15.1583 122.149 17.7503C122.149 20.6303 124.429 21.2063 126.565 21.5663C128.197 21.8543 129.685 21.9743 129.685 23.0783C129.685 23.8703 128.941 24.3023 127.765 24.3023C126.469 24.3023 125.653 23.7023 125.509 22.4783H121.813C121.933 25.1903 124.189 26.8463 127.789 26.8463Z" fill="#042A2D"/>
<path d="M138.696 26.8237C140.4 26.8237 141.48 26.1517 142.368 24.9517H142.44V26.4637H146.184V14.1757H142.272V21.0397C142.272 22.5037 141.456 23.5117 140.112 23.5117C138.864 23.5117 138.264 22.7677 138.264 21.4237V14.1757H134.376V22.2397C134.376 24.9757 135.864 26.8237 138.696 26.8237Z" fill="#042A2D"/>
<path d="M147.886 26.4623H151.798V19.5743C151.798 18.1103 152.518 17.0783 153.742 17.0783C154.918 17.0783 155.47 17.8463 155.47 19.1663V26.4623H159.382V19.5743C159.382 18.1103 160.078 17.0783 161.326 17.0783C162.502 17.0783 163.054 17.8463 163.054 19.1663V26.4623H166.966V18.4703C166.966 15.7103 165.574 13.8143 162.79 13.8143C161.206 13.8143 159.886 14.4863 158.926 15.9743H158.878C158.254 14.6543 157.03 13.8143 155.422 13.8143C153.646 13.8143 152.47 14.6543 151.702 15.9263H151.63V14.1743H147.886V26.4623Z" fill="#042A2D"/>
<path d="M25.1277 1.06057L21.1947 0.00671387L17.8803 12.3763L14.888 1.20895L10.9549 2.26281L14.1879 14.3283L6.13523 6.27569L3.25604 9.15488L12.0888 17.9877L1.08901 15.0403L0.0351562 18.9733L12.0538 22.1937C11.9162 21.6002 11.8434 20.9818 11.8434 20.3464C11.8434 15.8488 15.4894 12.2028 19.987 12.2028C24.4846 12.2028 28.1306 15.8488 28.1306 20.3464C28.1306 20.9777 28.0587 21.5923 27.9228 22.1823L38.8455 25.109L39.8993 21.176L27.8329 17.9428L38.8334 14.9952L37.7795 11.0622L25.7136 14.2952L33.7662 6.24263L30.887 3.36344L22.1768 12.0737L25.1277 1.06057Z" fill="url(#paint0_linear_192_263)"/>
<path d="M27.9116 22.2279C27.5744 23.6535 26.8625 24.9342 25.8857 25.9603L33.7987 33.8734L36.6779 30.9942L27.9116 22.2279Z" fill="url(#paint1_linear_192_263)"/>
<path d="M25.8059 26.0433C24.8173 27.053 23.568 27.8065 22.167 28.1948L25.0464 38.9408L28.9794 37.8869L25.8059 26.0433Z" fill="url(#paint2_linear_192_263)"/>
<path d="M22.0201 28.2337C21.3701 28.4008 20.6888 28.4896 19.9867 28.4896C19.2345 28.4896 18.5061 28.3876 17.8146 28.1967L14.9326 38.9525L18.8656 40.0063L22.0201 28.2337Z" fill="url(#paint3_linear_192_263)"/>
<path d="M17.6755 28.1573C16.2959 27.7497 15.0688 26.9866 14.1004 25.974L6.16797 33.9065L9.04716 36.7857L17.6755 28.1573Z" fill="url(#paint4_linear_192_263)"/>
<path d="M14.035 25.9034C13.0832 24.8844 12.3899 23.6208 12.0599 22.2172L1.10156 25.1535L2.15541 29.0865L14.035 25.9034Z" fill="url(#paint5_linear_192_263)"/>
<defs>
<linearGradient id="paint0_linear_192_263" x1="39.8809" y1="0.284191" x2="-3.10072" y2="8.66602" gradientUnits="userSpaceOnUse">
<stop stop-color="#73ED7C"/>
<stop offset="1" stop-color="#019297"/>
</linearGradient>
<linearGradient id="paint1_linear_192_263" x1="36.673" y1="22.3566" x2="24.7487" y2="23.7136" gradientUnits="userSpaceOnUse">
<stop stop-color="#73ED7C"/>
<stop offset="1" stop-color="#019297"/>
</linearGradient>
<linearGradient id="paint2_linear_192_263" x1="28.9763" y1="26.1859" x2="21.3837" y2="26.6784" gradientUnits="userSpaceOnUse">
<stop stop-color="#73ED7C"/>
<stop offset="1" stop-color="#019297"/>
</linearGradient>
<linearGradient id="paint3_linear_192_263" x1="22.0168" y1="28.3272" x2="14.1273" y2="28.9086" gradientUnits="userSpaceOnUse">
<stop stop-color="#73ED7C"/>
<stop offset="1" stop-color="#019297"/>
</linearGradient>
<linearGradient id="paint4_linear_192_263" x1="17.6702" y1="26.0935" x2="5.00721" y2="27.7486" gradientUnits="userSpaceOnUse">
<stop stop-color="#73ED7C"/>
<stop offset="1" stop-color="#019297"/>
</linearGradient>
<linearGradient id="paint5_linear_192_263" x1="14.0291" y1="22.2931" x2="0.288349" y2="25.47" gradientUnits="userSpaceOnUse">
<stop stop-color="#73ED7C"/>
<stop offset="1" stop-color="#019297"/>
</linearGradient>
</defs>
</svg>
