<svg width="169" height="40" viewBox="0 0 169 40" fill="none" xmlns="http://www.w3.org/2000/svg">
<path fill-rule="evenodd" clip-rule="evenodd" d="M26.0703 11.6916C24.4258 10.5928 22.4924 10.0063 20.5146 10.0063V0.00634766C24.4702 0.00634766 28.337 1.17933 31.626 3.37696C34.9151 5.57458 37.4784 8.69816 38.9922 12.3526C40.5059 16.0071 40.9021 20.0285 40.1303 23.9081C39.3586 27.7877 37.4538 31.3514 34.6567 34.1484C31.8597 36.9455 28.296 38.8503 24.4164 39.622C20.5368 40.3937 16.5154 39.9976 12.8609 38.4839C9.20645 36.9701 6.08288 34.4067 3.88526 31.1177C1.68763 27.8287 0.514648 23.9619 0.514648 20.0063H10.5146C10.5146 21.9841 11.1011 23.9175 12.1999 25.562C13.2987 27.2065 14.8605 28.4882 16.6878 29.2451C18.515 30.002 20.5257 30.2 22.4655 29.8141C24.4053 29.4283 26.1871 28.4759 27.5857 27.0774C28.9842 25.6788 29.9366 23.897 30.3224 21.9572C30.7083 20.0174 30.5103 18.0067 29.7534 16.1795C28.9965 14.3522 27.7148 12.7904 26.0703 11.6916Z" fill="url(#paint0_linear_192_232)"/>
<path fill-rule="evenodd" clip-rule="evenodd" d="M10.5146 0.00635294C10.5146 1.31957 10.256 2.61993 9.75344 3.83319C9.25089 5.04644 8.5143 6.14883 7.58571 7.07742C6.65713 8.00601 5.55474 8.7426 4.34148 9.24515C3.12822 9.74769 1.82786 10.0064 0.514649 10.0064L0.514648 20.0064C3.14108 20.0064 5.7418 19.4891 8.16832 18.484C10.5948 17.4789 12.7996 16.0057 14.6567 14.1485C16.5139 12.2914 17.9871 10.0866 18.9922 7.66002C19.9973 5.2335 20.5146 2.63278 20.5146 0.00634766L10.5146 0.00635294Z" fill="url(#paint1_linear_192_232)"/>
<path d="M50.5146 26.4622H62.4666V22.8622H54.7626V9.30225H50.5146V26.4622Z" fill="#042A2D"/>
<path d="M69.5481 24.0624C67.8441 24.0624 66.9561 22.5744 66.9561 20.3424C66.9561 18.1104 67.8441 16.5984 69.5481 16.5984C71.2521 16.5984 72.1641 18.1104 72.1641 20.3424C72.1641 22.5744 71.2521 24.0624 69.5481 24.0624ZM69.5721 26.8464C73.5321 26.8464 76.1241 24.0384 76.1241 20.3424C76.1241 16.6464 73.5321 13.8384 69.5721 13.8384C65.6361 13.8384 62.9961 16.6464 62.9961 20.3424C62.9961 24.0384 65.6361 26.8464 69.5721 26.8464Z" fill="#042A2D"/>
<path d="M82.9779 30.71C84.8019 30.71 86.4099 30.302 87.4899 29.342C88.4739 28.454 89.1219 27.11 89.1219 25.262V14.174H85.3779V15.494H85.3299C84.6099 14.462 83.5059 13.814 81.8739 13.814C78.8259 13.814 76.7139 16.358 76.7139 19.958C76.7139 23.726 79.2819 25.79 82.0419 25.79C83.5299 25.79 84.4659 25.19 85.1859 24.374H85.2819V25.598C85.2819 27.086 84.5859 27.95 82.9299 27.95C81.6339 27.95 80.9859 27.398 80.7699 26.75H76.9779C77.3619 29.318 79.5939 30.71 82.9779 30.71ZM82.9539 22.886C81.4899 22.886 80.5299 21.686 80.5299 19.838C80.5299 17.966 81.4899 16.766 82.9539 16.766C84.5859 16.766 85.4499 18.158 85.4499 19.814C85.4499 21.542 84.6579 22.886 82.9539 22.886Z" fill="#042A2D"/>
<path d="M96.8206 24.0624C95.1166 24.0624 94.2286 22.5744 94.2286 20.3424C94.2286 18.1104 95.1166 16.5984 96.8206 16.5984C98.5246 16.5984 99.4366 18.1104 99.4366 20.3424C99.4366 22.5744 98.5246 24.0624 96.8206 24.0624ZM96.8446 26.8464C100.805 26.8464 103.397 24.0384 103.397 20.3424C103.397 16.6464 100.805 13.8384 96.8446 13.8384C92.9086 13.8384 90.2686 16.6464 90.2686 20.3424C90.2686 24.0384 92.9086 26.8464 96.8446 26.8464Z" fill="#042A2D"/>
<path d="M104.539 26.4622H108.451V14.1742H104.539V26.4622ZM104.539 12.4702H108.451V9.30225H104.539V12.4702Z" fill="#042A2D"/>
<path d="M110.147 30.518H114.059V25.19H114.107C114.875 26.222 116.003 26.846 117.587 26.846C120.803 26.846 122.939 24.302 122.939 20.318C122.939 16.622 120.947 13.814 117.683 13.814C116.003 13.814 114.803 14.558 113.963 15.662H113.891V14.174H110.147V30.518ZM116.579 23.822C114.899 23.822 113.939 22.454 113.939 20.462C113.939 18.47 114.803 16.958 116.507 16.958C118.187 16.958 118.979 18.35 118.979 20.462C118.979 22.55 118.067 23.822 116.579 23.822Z" fill="#042A2D"/>
<path d="M129.31 26.846C132.526 26.846 134.902 25.454 134.902 22.766C134.902 19.622 132.358 19.07 130.198 18.71C128.638 18.422 127.246 18.302 127.246 17.438C127.246 16.67 127.99 16.31 128.95 16.31C130.03 16.31 130.774 16.646 130.918 17.75H134.518C134.326 15.326 132.454 13.814 128.974 13.814C126.07 13.814 123.67 15.158 123.67 17.75C123.67 20.63 125.95 21.206 128.086 21.566C129.718 21.854 131.206 21.974 131.206 23.078C131.206 23.87 130.462 24.302 129.286 24.302C127.99 24.302 127.174 23.702 127.03 22.478H123.334C123.454 25.19 125.71 26.846 129.31 26.846Z" fill="#042A2D"/>
<path d="M140.215 26.8223C141.919 26.8223 142.999 26.1503 143.887 24.9503H143.959V26.4623H147.703V14.1743H143.791V21.0383C143.791 22.5023 142.975 23.5103 141.631 23.5103C140.383 23.5103 139.783 22.7663 139.783 21.4223V14.1743H135.895V22.2383C135.895 24.9743 137.383 26.8223 140.215 26.8223Z" fill="#042A2D"/>
<path d="M149.405 26.462H153.317V19.574C153.317 18.11 154.037 17.078 155.261 17.078C156.437 17.078 156.989 17.846 156.989 19.166V26.462H160.901V19.574C160.901 18.11 161.597 17.078 162.845 17.078C164.021 17.078 164.573 17.846 164.573 19.166V26.462H168.485V18.47C168.485 15.71 167.093 13.814 164.309 13.814C162.725 13.814 161.405 14.486 160.445 15.974H160.397C159.773 14.654 158.549 13.814 156.941 13.814C155.165 13.814 153.989 14.654 153.221 15.926H153.149V14.174H149.405V26.462Z" fill="#042A2D"/>
<defs>
<linearGradient id="paint0_linear_192_232" x1="40.4962" y1="0.448503" x2="-3.60699" y2="5.86423" gradientUnits="userSpaceOnUse">
<stop stop-color="#73ED7C"/>
<stop offset="1" stop-color="#019297"/>
</linearGradient>
<linearGradient id="paint1_linear_192_232" x1="20.5054" y1="0.227425" x2="-1.54617" y2="2.93529" gradientUnits="userSpaceOnUse">
<stop stop-color="#73ED7C"/>
<stop offset="1" stop-color="#019297"/>
</linearGradient>
</defs>
</svg>
