<svg width="167" height="40" viewBox="0 0 167 40" fill="none" xmlns="http://www.w3.org/2000/svg">
<path d="M48.7793 28.5063H60.7313V24.9063H53.0273V11.3463H48.7793V28.5063Z" fill="#042A2D"/>
<path d="M67.8127 26.1064C66.1087 26.1064 65.2207 24.6184 65.2207 22.3864C65.2207 20.1544 66.1087 18.6424 67.8127 18.6424C69.5167 18.6424 70.4287 20.1544 70.4287 22.3864C70.4287 24.6184 69.5167 26.1064 67.8127 26.1064ZM67.8367 28.8904C71.7967 28.8904 74.3887 26.0824 74.3887 22.3864C74.3887 18.6904 71.7967 15.8824 67.8367 15.8824C63.9007 15.8824 61.2607 18.6904 61.2607 22.3864C61.2607 26.0824 63.9007 28.8904 67.8367 28.8904Z" fill="#042A2D"/>
<path d="M81.2425 32.754C83.0665 32.754 84.6745 32.346 85.7545 31.386C86.7385 30.498 87.3865 29.154 87.3865 27.306V16.218H83.6425V17.538H83.5945C82.8745 16.506 81.7705 15.858 80.1385 15.858C77.0905 15.858 74.9785 18.402 74.9785 22.002C74.9785 25.77 77.5465 27.834 80.3065 27.834C81.7945 27.834 82.7305 27.234 83.4505 26.418H83.5465V27.642C83.5465 29.13 82.8505 29.994 81.1945 29.994C79.8985 29.994 79.2505 29.442 79.0345 28.794H75.2425C75.6265 31.362 77.8585 32.754 81.2425 32.754ZM81.2185 24.93C79.7545 24.93 78.7945 23.73 78.7945 21.882C78.7945 20.01 79.7545 18.81 81.2185 18.81C82.8505 18.81 83.7145 20.202 83.7145 21.858C83.7145 23.586 82.9225 24.93 81.2185 24.93Z" fill="#042A2D"/>
<path d="M95.0852 26.1064C93.3812 26.1064 92.4932 24.6184 92.4932 22.3864C92.4932 20.1544 93.3812 18.6424 95.0852 18.6424C96.7892 18.6424 97.7012 20.1544 97.7012 22.3864C97.7012 24.6184 96.7892 26.1064 95.0852 26.1064ZM95.1092 28.8904C99.0692 28.8904 101.662 26.0824 101.662 22.3864C101.662 18.6904 99.0692 15.8824 95.1092 15.8824C91.1732 15.8824 88.5332 18.6904 88.5332 22.3864C88.5332 26.0824 91.1732 28.8904 95.1092 28.8904Z" fill="#042A2D"/>
<path d="M102.804 28.5063H106.716V16.2183H102.804V28.5063ZM102.804 14.5143H106.716V11.3463H102.804V14.5143Z" fill="#042A2D"/>
<path d="M108.412 32.562H112.324V27.234H112.372C113.14 28.266 114.268 28.89 115.852 28.89C119.068 28.89 121.204 26.346 121.204 22.362C121.204 18.666 119.212 15.858 115.948 15.858C114.268 15.858 113.068 16.602 112.228 17.706H112.156V16.218H108.412V32.562ZM114.844 25.866C113.164 25.866 112.204 24.498 112.204 22.506C112.204 20.514 113.068 19.002 114.772 19.002C116.452 19.002 117.244 20.394 117.244 22.506C117.244 24.594 116.332 25.866 114.844 25.866Z" fill="#042A2D"/>
<path d="M127.575 28.89C130.791 28.89 133.167 27.498 133.167 24.81C133.167 21.666 130.623 21.114 128.463 20.754C126.903 20.466 125.511 20.346 125.511 19.482C125.511 18.714 126.255 18.354 127.215 18.354C128.295 18.354 129.039 18.69 129.183 19.794H132.783C132.591 17.37 130.719 15.858 127.239 15.858C124.335 15.858 121.935 17.202 121.935 19.794C121.935 22.674 124.215 23.25 126.351 23.61C127.983 23.898 129.471 24.018 129.471 25.122C129.471 25.914 128.727 26.346 127.551 26.346C126.255 26.346 125.439 25.746 125.295 24.522H121.599C121.719 27.234 123.975 28.89 127.575 28.89Z" fill="#042A2D"/>
<path d="M138.479 28.8664C140.183 28.8664 141.263 28.1944 142.151 26.9944H142.223V28.5064H145.967V16.2184H142.055V23.0824C142.055 24.5464 141.239 25.5544 139.895 25.5544C138.647 25.5544 138.047 24.8104 138.047 23.4664V16.2184H134.159V24.2824C134.159 27.0184 135.647 28.8664 138.479 28.8664Z" fill="#042A2D"/>
<path d="M147.67 28.506H151.582V21.618C151.582 20.154 152.302 19.122 153.526 19.122C154.702 19.122 155.254 19.89 155.254 21.21V28.506H159.166V21.618C159.166 20.154 159.862 19.122 161.11 19.122C162.286 19.122 162.838 19.89 162.838 21.21V28.506H166.75V20.514C166.75 17.754 165.358 15.858 162.574 15.858C160.99 15.858 159.67 16.53 158.71 18.018H158.662C158.038 16.698 156.814 15.858 155.206 15.858C153.43 15.858 152.254 16.698 151.486 17.97H151.414V16.218H147.67V28.506Z" fill="#042A2D"/>
<path fill-rule="evenodd" clip-rule="evenodd" d="M8.80273 3.60433C7.37207 4.60469 6.07837 5.78745 4.95532 7.11887C9.54462 6.69279 15.3752 7.38851 22.1444 10.7731C29.373 14.3873 35.1938 14.5095 39.2448 13.7281C38.8772 12.6152 38.4144 11.5456 37.8663 10.5288C33.229 11.0179 27.284 10.3705 20.3556 6.90645C15.956 4.70665 12.0778 3.80047 8.80273 3.60433ZM35.1574 6.67311C31.4953 2.58146 26.1734 0.00646973 20.25 0.00646973C18.5105 0.00646973 16.8227 0.228577 15.2137 0.64595C17.3929 1.24055 19.7079 2.11046 22.1444 3.32873C27.217 5.865 31.5964 6.68162 35.1574 6.67311ZM40.1109 17.6345C35.2169 18.6009 28.4588 18.4024 20.3556 14.3508C12.78 10.563 6.75043 10.6107 2.6839 11.5144C2.474 11.561 2.26904 11.61 2.06903 11.661C1.53662 12.8189 1.11163 14.0365 0.806702 15.3009C1.13239 15.2139 1.46893 15.1312 1.81616 15.054C6.74957 13.9577 13.7201 14.0053 22.1444 18.2175C29.7201 22.0053 35.7496 21.9576 39.8162 21.0539C39.9555 21.023 40.0928 20.991 40.2278 20.958C40.2426 20.6427 40.25 20.3254 40.25 20.0064C40.25 19.2039 40.2028 18.4124 40.1109 17.6345ZM39.5748 25.1787C34.7283 26.026 28.167 25.7008 20.3556 21.7952C12.78 18.0074 6.75043 18.0551 2.6839 18.9588C1.78125 19.1593 0.969239 19.4036 0.25293 19.6615C0.250977 19.7762 0.25 19.8912 0.25 20.0064C0.25 31.0521 9.20429 40.0064 20.25 40.0064C29.5071 40.0064 37.2953 33.7173 39.5748 25.1787Z" fill="url(#paint0_linear_192_286)"/>
<defs>
<linearGradient id="paint0_linear_192_286" x1="40.2315" y1="0.448624" x2="-3.87163" y2="5.86434" gradientUnits="userSpaceOnUse">
<stop stop-color="#73ED7C"/>
<stop offset="1" stop-color="#019297"/>
</linearGradient>
</defs>
</svg>
