<svg width="169" height="41" viewBox="0 0 169 41" fill="none" xmlns="http://www.w3.org/2000/svg">
<path fill-rule="evenodd" clip-rule="evenodd" d="M26.0703 11.8484C24.4258 10.7496 22.4924 10.1631 20.5146 10.1631V0.163086C24.4702 0.163086 28.337 1.33607 31.626 3.5337C34.9151 5.73132 37.4784 8.8549 38.9922 12.5094C40.5059 16.1639 40.9021 20.1853 40.1303 24.0649C39.3586 27.9445 37.4538 31.5082 34.6567 34.3052C31.8597 37.1023 28.296 39.0071 24.4164 39.7788C20.5368 40.5505 16.5154 40.1544 12.8609 38.6407C9.20645 37.1269 6.08288 34.5635 3.88526 31.2745C1.68763 27.9855 0.514648 24.1187 0.514648 20.1631H10.5146C10.5146 22.1409 11.1011 24.0743 12.1999 25.7188C13.2987 27.3633 14.8605 28.645 16.6878 29.4019C18.515 30.1588 20.5257 30.3568 22.4655 29.9709C24.4053 29.5851 26.1871 28.6327 27.5857 27.2342C28.9842 25.8356 29.9366 24.0538 30.3224 22.114C30.7083 20.1742 30.5103 18.1635 29.7534 16.3363C28.9965 14.509 27.7148 12.9472 26.0703 11.8484Z" fill="url(#paint0_linear_192_323)"/>
<path fill-rule="evenodd" clip-rule="evenodd" d="M10.5146 0.163091C10.5146 1.47631 10.256 2.77667 9.75344 3.98993C9.25089 5.20318 8.5143 6.30557 7.58571 7.23416C6.65713 8.16275 5.55474 8.89934 4.34148 9.40189C3.12822 9.90443 1.82786 10.1631 0.514649 10.1631L0.514648 20.1631C3.14108 20.1631 5.7418 19.6458 8.16832 18.6407C10.5948 17.6356 12.7996 16.1624 14.6567 14.3052C16.5139 12.4481 17.9871 10.2433 18.9922 7.81676C19.9973 5.39024 20.5146 2.78952 20.5146 0.163086L10.5146 0.163091Z" fill="url(#paint1_linear_192_323)"/>
<path d="M50.5146 26.619H62.4666V23.019H54.7626V9.45898H50.5146V26.619Z" fill="#042A2D"/>
<path d="M69.5481 24.2191C67.8441 24.2191 66.9561 22.7311 66.9561 20.4991C66.9561 18.2671 67.8441 16.7551 69.5481 16.7551C71.2521 16.7551 72.1641 18.2671 72.1641 20.4991C72.1641 22.7311 71.2521 24.2191 69.5481 24.2191ZM69.5721 27.0031C73.5321 27.0031 76.1241 24.1951 76.1241 20.4991C76.1241 16.8031 73.5321 13.9951 69.5721 13.9951C65.6361 13.9951 62.9961 16.8031 62.9961 20.4991C62.9961 24.1951 65.6361 27.0031 69.5721 27.0031Z" fill="#042A2D"/>
<path d="M82.9779 30.8667C84.8019 30.8667 86.4099 30.4587 87.4899 29.4987C88.4739 28.6107 89.1219 27.2667 89.1219 25.4187V14.3307H85.3779V15.6507H85.3299C84.6099 14.6187 83.5059 13.9707 81.8739 13.9707C78.8259 13.9707 76.7139 16.5147 76.7139 20.1147C76.7139 23.8827 79.2819 25.9467 82.0419 25.9467C83.5299 25.9467 84.4659 25.3467 85.1859 24.5307H85.2819V25.7547C85.2819 27.2427 84.5859 28.1067 82.9299 28.1067C81.6339 28.1067 80.9859 27.5547 80.7699 26.9067H76.9779C77.3619 29.4747 79.5939 30.8667 82.9779 30.8667ZM82.9539 23.0427C81.4899 23.0427 80.5299 21.8427 80.5299 19.9947C80.5299 18.1227 81.4899 16.9227 82.9539 16.9227C84.5859 16.9227 85.4499 18.3147 85.4499 19.9707C85.4499 21.6987 84.6579 23.0427 82.9539 23.0427Z" fill="#042A2D"/>
<path d="M96.8206 24.2191C95.1166 24.2191 94.2286 22.7311 94.2286 20.4991C94.2286 18.2671 95.1166 16.7551 96.8206 16.7551C98.5246 16.7551 99.4366 18.2671 99.4366 20.4991C99.4366 22.7311 98.5246 24.2191 96.8206 24.2191ZM96.8446 27.0031C100.805 27.0031 103.397 24.1951 103.397 20.4991C103.397 16.8031 100.805 13.9951 96.8446 13.9951C92.9086 13.9951 90.2686 16.8031 90.2686 20.4991C90.2686 24.1951 92.9086 27.0031 96.8446 27.0031Z" fill="#042A2D"/>
<path d="M104.539 26.619H108.451V14.331H104.539V26.619ZM104.539 12.627H108.451V9.45898H104.539V12.627Z" fill="#042A2D"/>
<path d="M110.147 30.6747H114.059V25.3467H114.107C114.875 26.3787 116.003 27.0027 117.587 27.0027C120.803 27.0027 122.939 24.4587 122.939 20.4747C122.939 16.7787 120.947 13.9707 117.683 13.9707C116.003 13.9707 114.803 14.7147 113.963 15.8187H113.891V14.3307H110.147V30.6747ZM116.579 23.9787C114.899 23.9787 113.939 22.6107 113.939 20.6187C113.939 18.6267 114.803 17.1147 116.507 17.1147C118.187 17.1147 118.979 18.5067 118.979 20.6187C118.979 22.7067 118.067 23.9787 116.579 23.9787Z" fill="#042A2D"/>
<path d="M129.31 27.0027C132.526 27.0027 134.902 25.6107 134.902 22.9227C134.902 19.7787 132.358 19.2267 130.198 18.8667C128.638 18.5787 127.246 18.4587 127.246 17.5947C127.246 16.8267 127.99 16.4667 128.95 16.4667C130.03 16.4667 130.774 16.8027 130.918 17.9067H134.518C134.326 15.4827 132.454 13.9707 128.974 13.9707C126.07 13.9707 123.67 15.3147 123.67 17.9067C123.67 20.7867 125.95 21.3627 128.086 21.7227C129.718 22.0107 131.206 22.1307 131.206 23.2347C131.206 24.0267 130.462 24.4587 129.286 24.4587C127.99 24.4587 127.174 23.8587 127.03 22.6347H123.334C123.454 25.3467 125.71 27.0027 129.31 27.0027Z" fill="#042A2D"/>
<path d="M140.215 26.9791C141.919 26.9791 142.999 26.3071 143.887 25.1071H143.959V26.6191H147.703V14.3311H143.791V21.1951C143.791 22.6591 142.975 23.6671 141.631 23.6671C140.383 23.6671 139.783 22.9231 139.783 21.5791V14.3311H135.895V22.3951C135.895 25.1311 137.383 26.9791 140.215 26.9791Z" fill="#042A2D"/>
<path d="M149.405 26.6187H153.317V19.7307C153.317 18.2667 154.037 17.2347 155.261 17.2347C156.437 17.2347 156.989 18.0027 156.989 19.3227V26.6187H160.901V19.7307C160.901 18.2667 161.597 17.2347 162.845 17.2347C164.021 17.2347 164.573 18.0027 164.573 19.3227V26.6187H168.485V18.6267C168.485 15.8667 167.093 13.9707 164.309 13.9707C162.725 13.9707 161.405 14.6427 160.445 16.1307H160.397C159.773 14.8107 158.549 13.9707 156.941 13.9707C155.165 13.9707 153.989 14.8107 153.221 16.0827H153.149V14.3307H149.405V26.6187Z" fill="#042A2D"/>
<defs>
<linearGradient id="paint0_linear_192_323" x1="40.4962" y1="0.605241" x2="-3.60699" y2="6.02097" gradientUnits="userSpaceOnUse">
<stop stop-color="#73ED7C"/>
<stop offset="1" stop-color="#019297"/>
</linearGradient>
<linearGradient id="paint1_linear_192_323" x1="20.5054" y1="0.384163" x2="-1.54617" y2="3.09202" gradientUnits="userSpaceOnUse">
<stop stop-color="#73ED7C"/>
<stop offset="1" stop-color="#019297"/>
</linearGradient>
</defs>
</svg>
