<svg width="167" height="41" viewBox="0 0 167 41" fill="none" xmlns="http://www.w3.org/2000/svg">
<path d="M48.9951 26.6192H60.9471V23.0192H53.2431V9.45923H48.9951V26.6192Z" fill="#042A2D"/>
<path d="M68.0286 24.2203C66.3246 24.2203 65.4366 22.7323 65.4366 20.5003C65.4366 18.2683 66.3246 16.7563 68.0286 16.7563C69.7326 16.7563 70.6446 18.2683 70.6446 20.5003C70.6446 22.7323 69.7326 24.2203 68.0286 24.2203ZM68.0526 27.0043C72.0126 27.0043 74.6046 24.1963 74.6046 20.5003C74.6046 16.8043 72.0126 13.9963 68.0526 13.9963C64.1166 13.9963 61.4766 16.8043 61.4766 20.5003C61.4766 24.1963 64.1166 27.0043 68.0526 27.0043Z" fill="#042A2D"/>
<path d="M81.4593 30.8669C83.2833 30.8669 84.8913 30.4589 85.9713 29.4989C86.9553 28.6109 87.6033 27.2669 87.6033 25.4189V14.3309H83.8593V15.6509H83.8113C83.0913 14.6189 81.9873 13.9709 80.3553 13.9709C77.3073 13.9709 75.1953 16.5149 75.1953 20.1149C75.1953 23.8829 77.7633 25.9469 80.5233 25.9469C82.0113 25.9469 82.9473 25.3469 83.6673 24.5309H83.7633V25.7549C83.7633 27.2429 83.0673 28.1069 81.4113 28.1069C80.1153 28.1069 79.4673 27.5549 79.2513 26.9069H75.4593C75.8433 29.4749 78.0753 30.8669 81.4593 30.8669ZM81.4353 23.0429C79.9713 23.0429 79.0113 21.8429 79.0113 19.9949C79.0113 18.1229 79.9713 16.9229 81.4353 16.9229C83.0673 16.9229 83.9313 18.3149 83.9313 19.9709C83.9313 21.6989 83.1393 23.0429 81.4353 23.0429Z" fill="#042A2D"/>
<path d="M95.301 24.2203C93.597 24.2203 92.709 22.7323 92.709 20.5003C92.709 18.2683 93.597 16.7563 95.301 16.7563C97.005 16.7563 97.917 18.2683 97.917 20.5003C97.917 22.7323 97.005 24.2203 95.301 24.2203ZM95.325 27.0043C99.285 27.0043 101.877 24.1963 101.877 20.5003C101.877 16.8043 99.285 13.9963 95.325 13.9963C91.389 13.9963 88.749 16.8043 88.749 20.5003C88.749 24.1963 91.389 27.0043 95.325 27.0043Z" fill="#042A2D"/>
<path d="M103.02 26.6192H106.932V14.3312H103.02V26.6192ZM103.02 12.6272H106.932V9.45923H103.02V12.6272Z" fill="#042A2D"/>
<path d="M108.629 30.6749H112.541V25.3469H112.589C113.357 26.3789 114.485 27.0029 116.069 27.0029C119.285 27.0029 121.421 24.4589 121.421 20.4749C121.421 16.7789 119.429 13.9709 116.165 13.9709C114.485 13.9709 113.285 14.7149 112.445 15.8189H112.373V14.3309H108.629V30.6749ZM115.061 23.9789C113.381 23.9789 112.421 22.6109 112.421 20.6189C112.421 18.6269 113.285 17.1149 114.989 17.1149C116.669 17.1149 117.461 18.5069 117.461 20.6189C117.461 22.7069 116.549 23.9789 115.061 23.9789Z" fill="#042A2D"/>
<path d="M127.789 27.0029C131.005 27.0029 133.381 25.6109 133.381 22.9229C133.381 19.7789 130.837 19.2269 128.677 18.8669C127.117 18.5789 125.725 18.4589 125.725 17.5949C125.725 16.8269 126.469 16.4669 127.429 16.4669C128.509 16.4669 129.253 16.8029 129.397 17.9069H132.997C132.805 15.4829 130.933 13.9709 127.453 13.9709C124.549 13.9709 122.149 15.3149 122.149 17.9069C122.149 20.7869 124.429 21.3629 126.565 21.7229C128.197 22.0109 129.685 22.1309 129.685 23.2349C129.685 24.0269 128.941 24.4589 127.765 24.4589C126.469 24.4589 125.653 23.8589 125.509 22.6349H121.813C121.933 25.3469 124.189 27.0029 127.789 27.0029Z" fill="#042A2D"/>
<path d="M138.696 26.9803C140.4 26.9803 141.48 26.3083 142.368 25.1083H142.44V26.6203H146.184V14.3323H142.272V21.1963C142.272 22.6603 141.456 23.6683 140.112 23.6683C138.864 23.6683 138.264 22.9243 138.264 21.5803V14.3323H134.376V22.3963C134.376 25.1323 135.864 26.9803 138.696 26.9803Z" fill="#042A2D"/>
<path d="M147.886 26.6189H151.798V19.7309C151.798 18.2669 152.518 17.2349 153.742 17.2349C154.918 17.2349 155.47 18.0029 155.47 19.3229V26.6189H159.382V19.7309C159.382 18.2669 160.078 17.2349 161.326 17.2349C162.502 17.2349 163.054 18.0029 163.054 19.3229V26.6189H166.966V18.6269C166.966 15.8669 165.574 13.9709 162.79 13.9709C161.206 13.9709 159.886 14.6429 158.926 16.1309H158.878C158.254 14.8109 157.03 13.9709 155.422 13.9709C153.646 13.9709 152.47 14.8109 151.702 16.0829H151.63V14.3309H147.886V26.6189Z" fill="#042A2D"/>
<path d="M25.1277 1.21719L21.1947 0.16333L17.8803 12.5329L14.888 1.36557L10.9549 2.41943L14.1879 14.4849L6.13523 6.43231L3.25604 9.3115L12.0888 18.1443L1.08901 15.1969L0.0351562 19.1299L12.0538 22.3503C11.9162 21.7568 11.8434 21.1384 11.8434 20.503C11.8434 16.0054 15.4894 12.3594 19.987 12.3594C24.4846 12.3594 28.1306 16.0054 28.1306 20.503C28.1306 21.1343 28.0587 21.7489 27.9228 22.3389L38.8455 25.2656L39.8993 21.3326L27.8329 18.0994L38.8334 15.1518L37.7795 11.2188L25.7136 14.4518L33.7662 6.39925L30.887 3.52006L22.1768 12.2303L25.1277 1.21719Z" fill="url(#paint0_linear_192_300)"/>
<path d="M27.9116 22.3845C27.5744 23.8101 26.8625 25.0908 25.8857 26.1169L33.7987 34.03L36.6779 31.1508L27.9116 22.3845Z" fill="url(#paint1_linear_192_300)"/>
<path d="M25.8059 26.2C24.8173 27.2097 23.568 27.9632 22.167 28.3514L25.0464 39.0975L28.9794 38.0436L25.8059 26.2Z" fill="url(#paint2_linear_192_300)"/>
<path d="M22.0201 28.3903C21.3701 28.5574 20.6888 28.6462 19.9867 28.6462C19.2345 28.6462 18.5061 28.5442 17.8146 28.3533L14.9326 39.1091L18.8656 40.1629L22.0201 28.3903Z" fill="url(#paint3_linear_192_300)"/>
<path d="M17.6755 28.3139C16.2959 27.9063 15.0688 27.1432 14.1004 26.1306L6.16797 34.0631L9.04716 36.9423L17.6755 28.3139Z" fill="url(#paint4_linear_192_300)"/>
<path d="M14.035 26.06C13.0832 25.041 12.3899 23.7774 12.0599 22.3738L1.10156 25.3101L2.15541 29.2431L14.035 26.06Z" fill="url(#paint5_linear_192_300)"/>
<defs>
<linearGradient id="paint0_linear_192_300" x1="39.8809" y1="0.440807" x2="-3.10072" y2="8.82263" gradientUnits="userSpaceOnUse">
<stop stop-color="#73ED7C"/>
<stop offset="1" stop-color="#019297"/>
</linearGradient>
<linearGradient id="paint1_linear_192_300" x1="36.673" y1="22.5132" x2="24.7487" y2="23.8702" gradientUnits="userSpaceOnUse">
<stop stop-color="#73ED7C"/>
<stop offset="1" stop-color="#019297"/>
</linearGradient>
<linearGradient id="paint2_linear_192_300" x1="28.9763" y1="26.3425" x2="21.3837" y2="26.835" gradientUnits="userSpaceOnUse">
<stop stop-color="#73ED7C"/>
<stop offset="1" stop-color="#019297"/>
</linearGradient>
<linearGradient id="paint3_linear_192_300" x1="22.0168" y1="28.4838" x2="14.1273" y2="29.0652" gradientUnits="userSpaceOnUse">
<stop stop-color="#73ED7C"/>
<stop offset="1" stop-color="#019297"/>
</linearGradient>
<linearGradient id="paint4_linear_192_300" x1="17.6702" y1="26.2501" x2="5.00721" y2="27.9052" gradientUnits="userSpaceOnUse">
<stop stop-color="#73ED7C"/>
<stop offset="1" stop-color="#019297"/>
</linearGradient>
<linearGradient id="paint5_linear_192_300" x1="14.0291" y1="22.4497" x2="0.288349" y2="25.6266" gradientUnits="userSpaceOnUse">
<stop stop-color="#73ED7C"/>
<stop offset="1" stop-color="#019297"/>
</linearGradient>
</defs>
</svg>
