<svg width="169" height="41" viewBox="0 0 169 41" fill="none" xmlns="http://www.w3.org/2000/svg">
<path d="M50.5146 26.6191H62.4666V23.0191H54.7626V9.45911H50.5146V26.6191Z" fill="#042A2D"/>
<path d="M69.5481 24.2192C67.8441 24.2192 66.9561 22.7312 66.9561 20.4992C66.9561 18.2672 67.8441 16.7552 69.5481 16.7552C71.2521 16.7552 72.1641 18.2672 72.1641 20.4992C72.1641 22.7312 71.2521 24.2192 69.5481 24.2192ZM69.5721 27.0032C73.5321 27.0032 76.1241 24.1952 76.1241 20.4992C76.1241 16.8032 73.5321 13.9952 69.5721 13.9952C65.6361 13.9952 62.9961 16.8032 62.9961 20.4992C62.9961 24.1952 65.6361 27.0032 69.5721 27.0032Z" fill="#042A2D"/>
<path d="M82.9779 30.8668C84.8019 30.8668 86.4099 30.4588 87.4899 29.4988C88.4739 28.6108 89.1219 27.2668 89.1219 25.4188V14.3308H85.3779V15.6508H85.3299C84.6099 14.6188 83.5059 13.9708 81.8739 13.9708C78.8259 13.9708 76.7139 16.5148 76.7139 20.1148C76.7139 23.8828 79.2819 25.9468 82.0419 25.9468C83.5299 25.9468 84.4659 25.3468 85.1859 24.5308H85.2819V25.7548C85.2819 27.2428 84.5859 28.1068 82.9299 28.1068C81.6339 28.1068 80.9859 27.5548 80.7699 26.9068H76.9779C77.3619 29.4748 79.5939 30.8668 82.9779 30.8668ZM82.9539 23.0428C81.4899 23.0428 80.5299 21.8428 80.5299 19.9948C80.5299 18.1228 81.4899 16.9228 82.9539 16.9228C84.5859 16.9228 85.4499 18.3148 85.4499 19.9708C85.4499 21.6988 84.6579 23.0428 82.9539 23.0428Z" fill="#042A2D"/>
<path d="M96.8206 24.2192C95.1166 24.2192 94.2286 22.7312 94.2286 20.4992C94.2286 18.2672 95.1166 16.7552 96.8206 16.7552C98.5246 16.7552 99.4366 18.2672 99.4366 20.4992C99.4366 22.7312 98.5246 24.2192 96.8206 24.2192ZM96.8446 27.0032C100.805 27.0032 103.397 24.1952 103.397 20.4992C103.397 16.8032 100.805 13.9952 96.8446 13.9952C92.9086 13.9952 90.2686 16.8032 90.2686 20.4992C90.2686 24.1952 92.9086 27.0032 96.8446 27.0032Z" fill="#042A2D"/>
<path d="M104.539 26.6191H108.451V14.3311H104.539V26.6191ZM104.539 12.6271H108.451V9.45911H104.539V12.6271Z" fill="#042A2D"/>
<path d="M110.147 30.6748H114.059V25.3468H114.107C114.875 26.3788 116.003 27.0028 117.587 27.0028C120.803 27.0028 122.939 24.4588 122.939 20.4748C122.939 16.7788 120.947 13.9708 117.683 13.9708C116.003 13.9708 114.803 14.7148 113.963 15.8188H113.891V14.3308H110.147V30.6748ZM116.579 23.9788C114.899 23.9788 113.939 22.6108 113.939 20.6188C113.939 18.6268 114.803 17.1148 116.507 17.1148C118.187 17.1148 118.979 18.5068 118.979 20.6188C118.979 22.7068 118.067 23.9788 116.579 23.9788Z" fill="#042A2D"/>
<path d="M129.31 27.0028C132.526 27.0028 134.902 25.6108 134.902 22.9228C134.902 19.7788 132.358 19.2268 130.198 18.8668C128.638 18.5788 127.246 18.4588 127.246 17.5948C127.246 16.8268 127.99 16.4668 128.95 16.4668C130.03 16.4668 130.774 16.8028 130.918 17.9068H134.518C134.326 15.4828 132.454 13.9708 128.974 13.9708C126.07 13.9708 123.67 15.3148 123.67 17.9068C123.67 20.7868 125.95 21.3628 128.086 21.7228C129.718 22.0108 131.206 22.1308 131.206 23.2348C131.206 24.0268 130.462 24.4588 129.286 24.4588C127.99 24.4588 127.174 23.8588 127.03 22.6348H123.334C123.454 25.3468 125.71 27.0028 129.31 27.0028Z" fill="#042A2D"/>
<path d="M140.215 26.9792C141.919 26.9792 142.999 26.3072 143.887 25.1072H143.959V26.6192H147.703V14.3312H143.791V21.1952C143.791 22.6592 142.975 23.6672 141.631 23.6672C140.383 23.6672 139.783 22.9232 139.783 21.5792V14.3312H135.895V22.3952C135.895 25.1312 137.383 26.9792 140.215 26.9792Z" fill="#042A2D"/>
<path d="M149.405 26.6188H153.317V19.7308C153.317 18.2668 154.037 17.2348 155.261 17.2348C156.437 17.2348 156.989 18.0028 156.989 19.3228V26.6188H160.901V19.7308C160.901 18.2668 161.597 17.2348 162.845 17.2348C164.021 17.2348 164.573 18.0028 164.573 19.3228V26.6188H168.485V18.6268C168.485 15.8668 167.093 13.9708 164.309 13.9708C162.725 13.9708 161.405 14.6428 160.445 16.1308H160.397C159.773 14.8108 158.549 13.9708 156.941 13.9708C155.165 13.9708 153.989 14.8108 153.221 16.0828H153.149V14.3308H149.405V26.6188Z" fill="#042A2D"/>
<path fill-rule="evenodd" clip-rule="evenodd" d="M9.06738 3.76107C7.63672 4.76143 6.34302 5.94418 5.21997 7.2756C9.80927 6.84953 15.6398 7.54525 22.409 10.9299C29.6376 14.5441 35.4584 14.6663 39.5094 13.8849C39.1418 12.772 38.679 11.7024 38.1309 10.6856C33.4936 11.1747 27.5486 10.5273 20.6202 7.06318C16.2206 4.86338 12.3424 3.95721 9.06738 3.76107ZM35.422 6.82985C31.7599 2.7382 26.438 0.163208 20.5146 0.163208C18.7751 0.163208 17.0873 0.385315 15.4783 0.802688C17.6575 1.39729 19.9725 2.26719 22.409 3.48547C27.4816 6.02173 31.861 6.83836 35.422 6.82985ZM40.3755 17.7913C35.4815 18.7577 28.7234 18.5592 20.6202 14.5076C13.0446 10.7198 7.01508 10.7675 2.94855 11.6712C2.73865 11.7178 2.53369 11.7668 2.33368 11.8178C1.80127 12.9757 1.37628 14.1933 1.07135 15.4577C1.39703 15.3707 1.73358 15.288 2.08081 15.2108C7.01422 14.1145 13.9847 14.1621 22.409 18.3743C29.9847 22.1621 36.0142 22.1144 40.0808 21.2107C40.2201 21.1798 40.3574 21.1478 40.4924 21.1148C40.5072 20.7995 40.5146 20.4822 40.5146 20.1632C40.5146 19.3607 40.4674 18.5692 40.3755 17.7913ZM39.8394 25.3355C34.9929 26.1828 28.4316 25.8576 20.6202 21.952C13.0446 18.1642 7.01508 18.2119 2.94855 19.1156C2.0459 19.3161 1.23389 19.5604 0.517578 19.8183C0.515625 19.933 0.514648 20.048 0.514648 20.1632C0.514648 31.2089 9.46894 40.1632 20.5146 40.1632C29.7717 40.1632 37.5599 33.8741 39.8394 25.3355Z" fill="url(#paint0_linear_192_339)"/>
<defs>
<linearGradient id="paint0_linear_192_339" x1="40.4962" y1="0.605363" x2="-3.60698" y2="6.02108" gradientUnits="userSpaceOnUse">
<stop stop-color="#73ED7C"/>
<stop offset="1" stop-color="#019297"/>
</linearGradient>
</defs>
</svg>
