<svg width="123" height="124" viewBox="0 0 123 124" fill="none" xmlns="http://www.w3.org/2000/svg">
<circle cx="61.5004" cy="62.0063" r="41.5786" fill="#F2F1ED"/>
<circle cx="61.3804" cy="61.8862" r="28.5796" fill="url(#paint0_linear_192_181)"/>
<g clip-path="url(#clip0_192_181)">
<path d="M63.3032 55.7002C63.8008 55.7002 64.2041 55.2969 64.2041 54.7993C64.2041 54.3018 63.8008 53.8984 63.3032 53.8984C62.8057 53.8984 62.4023 54.3018 62.4023 54.7993C62.4023 55.2969 62.8057 55.7002 63.3032 55.7002Z" fill="white"/>
<path d="M66.9067 55.7002C67.4043 55.7002 67.8076 55.2969 67.8076 54.7993C67.8076 54.3018 67.4043 53.8984 66.9067 53.8984C66.4092 53.8984 66.0059 54.3018 66.0059 54.7993C66.0059 55.2969 66.4092 55.7002 66.9067 55.7002Z" fill="white"/>
<path d="M70.5103 55.7002C71.0078 55.7002 71.4111 55.2969 71.4111 54.7993C71.4111 54.3018 71.0078 53.8984 70.5103 53.8984C70.0127 53.8984 69.6094 54.3018 69.6094 54.7993C69.6094 55.2969 70.0127 55.7002 70.5103 55.7002Z" fill="white"/>
<path d="M66.3785 75.5195C67.8617 75.5195 69.0684 74.3071 69.0684 72.8169V69.2134C69.0684 68.8258 68.8205 68.4817 68.453 68.3589L63.0605 66.5572C62.7965 66.469 62.5068 66.5077 62.2753 66.662L59.9821 68.1908C57.521 67.023 54.6122 64.14 53.4552 61.7226L54.9835 59.4303C55.1378 59.1988 55.1765 58.9089 55.0883 58.645L53.2866 53.2526C53.1638 52.885 52.8197 52.6372 52.4321 52.6372H48.8286C47.3384 52.6372 46.126 53.8438 46.126 55.3271C46.126 60.3045 48.3892 65.4131 52.3354 69.3427C56.2773 73.2682 61.3959 75.5195 66.3785 75.5195ZM48.8286 54.439H51.7833L53.2397 58.7978L51.6826 61.1335C51.518 61.3803 51.4855 61.6923 51.5958 61.9677C52.1948 63.4654 53.3937 65.1499 54.9715 66.7109C56.5389 68.2615 58.2316 69.4473 59.7378 70.0498C60.0132 70.1599 60.3253 70.1274 60.5721 69.9629L62.9078 68.4058L67.2666 69.8622V72.8169C67.2666 73.322 66.8765 73.7178 66.3785 73.7178C56.8945 73.7178 47.9277 64.7802 47.9277 55.3271C47.9277 54.829 48.3235 54.439 48.8286 54.439Z" fill="white"/>
<path d="M62.9575 64.6404C63.2941 64.7799 63.6816 64.7027 63.9393 64.4451L67.2789 61.1055H70.5093C74.0196 61.1055 76.8755 58.2765 76.8755 54.7993C76.8755 51.3221 74.0196 48.4932 70.5093 48.4932H63.3022C59.825 48.4932 56.9961 51.3221 56.9961 54.7993C56.9961 57.9707 59.3494 60.6028 62.4014 61.0413V63.8081C62.4014 64.1725 62.6209 64.5009 62.9575 64.6404ZM58.7979 54.7993C58.7979 52.3156 60.8185 50.2949 63.3022 50.2949H70.5093C73.0261 50.2949 75.0737 52.3156 75.0737 54.7993C75.0737 57.283 73.0261 59.3037 70.5093 59.3037H66.9058C66.6668 59.3037 66.4377 59.3986 66.2688 59.5675L64.2031 61.6332V60.2046C64.2031 59.7071 63.7998 59.3037 63.3022 59.3037C60.8185 59.3037 58.7979 57.283 58.7979 54.7993Z" fill="white"/>
</g>
<path d="M123 62.0063C123 95.9719 95.4655 123.506 61.5 123.506C27.5345 123.506 0 95.9719 0 62.0063C0 28.0408 27.5345 0.506348 61.5 0.506348C95.4655 0.506348 123 28.0408 123 62.0063ZM20.3711 62.0063C20.3711 84.7212 38.7851 103.135 61.5 103.135C84.2149 103.135 102.629 84.7212 102.629 62.0063C102.629 39.2915 84.2149 20.8774 61.5 20.8774C38.7851 20.8774 20.3711 39.2915 20.3711 62.0063Z" fill="url(#paint1_linear_192_181)"/>
<path d="M68.6014 13.303L70.463 13.5008C70.3608 14.107 70.1351 14.6308 69.786 15.0722C69.441 15.5141 68.9887 15.8396 68.4292 16.0488C67.8738 16.2584 67.2247 16.3237 66.4817 16.2447C65.9006 16.183 65.3903 16.028 64.9507 15.7798C64.5116 15.5275 64.1482 15.195 63.8604 14.7824C63.5768 14.3703 63.3784 13.8875 63.2651 13.334C63.1519 12.7805 63.1305 12.1716 63.2011 11.5075L63.2679 10.8787C63.3385 10.2146 63.4894 9.62409 63.7207 9.10718C63.9565 8.58657 64.2584 8.15483 64.6265 7.81197C64.9987 7.46955 65.4259 7.22113 65.9083 7.06672C66.3906 6.9123 66.9161 6.86531 67.4847 6.92575C68.2402 7.00604 68.8627 7.21073 69.3525 7.53981C69.8463 7.86934 70.2109 8.29006 70.4461 8.80198C70.6855 9.31434 70.8016 9.88075 70.7944 10.5012L68.9266 10.3027C68.9446 9.93525 68.9049 9.6183 68.8073 9.35188C68.7101 9.0813 68.5418 8.86822 68.3022 8.71264C68.0673 8.55335 67.7423 8.45165 67.3273 8.40754C67.016 8.37445 66.7379 8.40367 66.4931 8.49518C66.2483 8.58669 66.0345 8.74236 65.8516 8.96219C65.6688 9.18201 65.5187 9.46829 65.4015 9.82101C65.2888 10.17 65.2069 10.5853 65.1557 11.0668L65.0876 11.708C65.0377 12.1771 65.0291 12.5938 65.0617 12.9583C65.0948 13.3186 65.1709 13.6289 65.2902 13.8892C65.414 14.1458 65.5856 14.3487 65.8048 14.498C66.0286 14.6435 66.3065 14.7339 66.6385 14.7692C67.0287 14.8107 67.357 14.7826 67.6234 14.685C67.8898 14.5874 68.1025 14.4232 68.2613 14.1924C68.4243 13.9621 68.5377 13.6656 68.6014 13.303Z" fill="white"/>
<path d="M73.3375 13.7776L73.3763 13.652C73.5229 13.1774 73.7256 12.7616 73.9844 12.4047C74.2444 12.0438 74.5496 11.7559 74.9 11.5408C75.2504 11.3258 75.6403 11.195 76.0697 11.1486C76.5003 11.0981 76.9609 11.1486 77.4514 11.3002C77.9419 11.4517 78.3527 11.6704 78.6839 11.9561C79.0162 12.2379 79.2664 12.5664 79.4345 12.9416C79.6065 13.3181 79.6981 13.7286 79.7093 14.1733C79.7217 14.614 79.6545 15.0716 79.5079 15.5462L79.4691 15.6718C79.3238 16.1424 79.121 16.5582 78.861 16.9191C78.6022 17.276 78.295 17.5634 77.9394 17.7812C77.589 17.9962 77.1991 18.1269 76.7697 18.1734C76.3404 18.2199 75.8804 18.1673 75.3899 18.0158C74.8993 17.8643 74.4879 17.6476 74.1556 17.3658C73.8272 17.0853 73.577 16.7568 73.405 16.3803C73.2381 16.0012 73.1485 15.5912 73.1361 15.1505C73.125 14.7058 73.1921 14.2482 73.3375 13.7776ZM75.0991 14.1842L75.0603 14.3098C74.9765 14.581 74.9222 14.8417 74.8974 15.0917C74.8726 15.3418 74.8843 15.5726 74.9325 15.7841C74.986 15.9928 75.0831 16.1736 75.2238 16.3262C75.3644 16.4789 75.5584 16.5934 75.8057 16.6698C76.045 16.7438 76.2657 16.7574 76.468 16.7106C76.6703 16.6639 76.8504 16.5688 77.0083 16.4254C77.1674 16.2779 77.3073 16.094 77.4278 15.8735C77.5524 15.6542 77.6565 15.4089 77.7403 15.1378L77.7791 15.0121C77.8604 14.7489 77.9109 14.4936 77.9305 14.2463C77.9553 13.9962 77.9416 13.7648 77.8894 13.5521C77.8424 13.3366 77.7491 13.1505 77.6097 12.9939C77.4702 12.8372 77.2789 12.7213 77.0356 12.6462C76.7923 12.571 76.5689 12.5588 76.3654 12.6095C76.1659 12.6614 75.9839 12.7625 75.8196 12.9127C75.6604 13.0601 75.5206 13.2441 75.4001 13.4646C75.2807 13.6811 75.1804 13.921 75.0991 14.1842Z" fill="white"/>
<path d="M84.3102 15.6367L81.8808 20.3788L80.276 19.5567L83.3648 13.5273L84.8693 14.2981L84.3102 15.6367ZM83.2997 17.0325L82.865 16.8098C83.0934 16.3641 83.3565 15.9923 83.6544 15.6947C83.9541 15.3934 84.2728 15.1697 84.6102 15.0236C84.9496 14.8739 85.2965 14.8054 85.6511 14.8182C86.0113 14.8292 86.3697 14.926 86.7263 15.1087C87.0086 15.2534 87.2459 15.4265 87.4381 15.6281C87.6302 15.8298 87.7642 16.0626 87.84 16.3265C87.9196 16.5924 87.9287 16.8949 87.8676 17.234C87.8101 17.5751 87.6729 17.9574 87.4559 18.3809L85.4861 22.2258L83.8702 21.398L85.8428 17.5474C85.9798 17.28 86.0492 17.0529 86.0511 16.8662C86.0529 16.6796 85.9966 16.5194 85.8821 16.3858C85.7733 16.2503 85.6149 16.1293 85.4069 16.0227C85.1914 15.9123 84.9819 15.8589 84.7784 15.8625C84.5786 15.868 84.3877 15.9203 84.2056 16.0193C84.0292 16.1165 83.8636 16.2521 83.7088 16.4261C83.554 16.6 83.4177 16.8022 83.2997 17.0325Z" fill="white"/>
<path d="M93.8034 19.6946L93.0744 20.7434L89.8355 18.4922L90.5645 17.4434L93.8034 19.6946ZM92.3206 16.6281L93.8012 17.6573L90.1457 22.9167C90.0337 23.0778 89.9685 23.2155 89.9501 23.3297C89.9351 23.4464 89.9585 23.5516 90.0204 23.6455C90.0846 23.7359 90.1819 23.8263 90.3121 23.9169C90.4046 23.9812 90.4893 24.0349 90.566 24.0781C90.6486 24.1202 90.7191 24.154 90.7777 24.1795L90.0253 25.273C89.8699 25.226 89.7101 25.1632 89.5461 25.0848C89.382 25.0063 89.2109 24.9052 89.0326 24.7813C88.707 24.555 88.4595 24.3041 88.29 24.0287C88.1263 23.7523 88.0627 23.4489 88.0992 23.1184C88.1357 22.788 88.2898 22.4274 88.5614 22.0367L92.3206 16.6281Z" fill="white"/>
<path d="M94.6885 27.3081L96.716 25.0728C96.8618 24.9121 96.9603 24.7507 97.0115 24.5886C97.0655 24.4234 97.0663 24.2579 97.0139 24.092C96.9646 23.929 96.8534 23.7689 96.6803 23.6119C96.5319 23.4773 96.3797 23.3872 96.2238 23.3416C96.0707 23.2929 95.9214 23.2898 95.7757 23.3324C95.6328 23.3719 95.5039 23.455 95.3889 23.5817L94.0533 22.3703C94.2468 22.157 94.48 21.9993 94.7528 21.8974C95.0256 21.7954 95.3222 21.7573 95.6426 21.7831C95.9658 21.8057 96.2951 21.8931 96.6305 22.0452C96.969 22.2001 97.3006 22.4247 97.6252 22.7192C98.0147 23.0725 98.3021 23.4515 98.4873 23.8562C98.6725 24.2609 98.7339 24.6716 98.6715 25.0883C98.6122 25.5079 98.4058 25.9124 98.0525 26.302L96.1049 28.4492C95.8553 28.7243 95.6676 28.9655 95.5418 29.1725C95.4187 29.3765 95.3308 29.5729 95.2779 29.7616L95.2064 29.8404L93.8569 28.6164C93.9154 28.4215 94.0201 28.2065 94.1712 27.9716C94.3282 27.7365 94.5006 27.5153 94.6885 27.3081ZM96.6104 25.5434L95.934 26.3077L95.1874 25.6305C95.0112 25.4707 94.8399 25.3519 94.6736 25.2744C94.5073 25.1968 94.3487 25.1572 94.198 25.1557C94.05 25.1511 93.9124 25.1785 93.7853 25.2379C93.6613 25.3001 93.5474 25.3884 93.4436 25.5027C93.3399 25.6171 93.2722 25.7445 93.2406 25.885C93.2119 26.0223 93.2231 26.1621 93.2744 26.3044C93.3284 26.4436 93.4219 26.5735 93.5549 26.6941C93.7558 26.8764 93.967 26.9946 94.1883 27.0488C94.4096 27.1031 94.6137 27.1079 94.8007 27.0633C94.9907 27.0216 95.135 26.9495 95.2334 26.8472L95.0727 27.7327C94.9082 27.8146 94.721 27.8843 94.5111 27.9418C94.3042 28.0021 94.0812 28.0337 93.8419 28.0364C93.6055 28.0362 93.3611 27.9919 93.1085 27.9038C92.8588 27.8125 92.6088 27.6533 92.3583 27.4262C92.0399 27.1373 91.8083 26.8117 91.6636 26.4494C91.5247 26.0868 91.4819 25.724 91.5352 25.3609C91.5943 24.9975 91.7556 24.6705 92.0192 24.3798C92.2576 24.117 92.5188 23.9285 92.8028 23.8142C93.0868 23.6999 93.3878 23.6601 93.7057 23.6948C94.0294 23.7293 94.3689 23.8427 94.724 24.0352C95.0819 24.2246 95.4526 24.4932 95.8359 24.8409L96.6104 25.5434Z" fill="white"/>
<path d="M99.2172 32.5713C99.3547 32.7447 99.5093 32.8724 99.6811 32.9546C99.8561 33.0342 100.034 33.0637 100.215 33.0429C100.401 33.0228 100.579 32.9483 100.748 32.8193L101.803 34.1486C101.427 34.4411 101.016 34.6046 100.57 34.6392C100.126 34.6713 99.6902 34.5883 99.2614 34.3903C98.8359 34.1897 98.4611 33.885 98.1368 33.4762C97.81 33.0641 97.5934 32.6499 97.4869 32.2336C97.383 31.8205 97.3717 31.4166 97.4529 31.0219C97.5373 30.6246 97.7012 30.2469 97.9446 29.8887C98.1912 29.528 98.5009 29.1997 98.8737 28.904L99.016 28.7912C99.392 28.4929 99.7822 28.2661 100.186 28.1107C100.594 27.9526 100.999 27.8791 101.402 27.8899C101.808 27.8981 102.2 27.9998 102.579 28.195C102.957 28.3902 103.309 28.6922 103.633 29.1009C103.978 29.5359 104.197 29.983 104.289 30.4423C104.384 30.9049 104.351 31.3526 104.188 31.7854C104.031 32.2189 103.743 32.6046 103.323 32.9425L102.269 31.6131C102.443 31.4698 102.574 31.3051 102.66 31.119C102.75 30.9362 102.784 30.744 102.762 30.5425C102.747 30.3417 102.663 30.1448 102.51 29.9518C102.346 29.7458 102.169 29.6124 101.977 29.5516C101.788 29.4883 101.59 29.4803 101.382 29.5276C101.178 29.5724 100.969 29.6553 100.756 29.7763C100.549 29.898 100.343 30.0405 100.137 30.204L99.9942 30.3168C99.7882 30.4802 99.6007 30.6502 99.4318 30.8268C99.2629 31.0034 99.1334 31.1861 99.0433 31.3747C98.9558 31.5667 98.9214 31.7618 98.9401 31.96C98.9588 32.1583 99.0512 32.362 99.2172 32.5713Z" fill="white"/>
<path d="M108.558 36.6408L107.462 37.2979L105.433 33.9155L106.528 33.2584L108.558 36.6408ZM108.464 33.2359L109.392 34.7821L103.9 38.0773C103.731 38.1783 103.615 38.277 103.552 38.3737C103.49 38.4739 103.468 38.5795 103.486 38.6904C103.508 38.7992 103.559 38.9217 103.641 39.0577C103.699 39.1543 103.754 39.2381 103.806 39.3089C103.864 39.3812 103.915 39.441 103.958 39.4883L102.823 40.1765C102.7 40.0698 102.58 39.9471 102.463 39.8082C102.346 39.6693 102.231 39.5068 102.119 39.3207C101.915 38.9807 101.793 38.6503 101.751 38.3296C101.715 38.0103 101.782 37.7075 101.951 37.4212C102.12 37.1349 102.408 36.8693 102.816 36.6245L108.464 33.2359Z" fill="white"/>
<path d="M115.987 49.1148L107.28 51.8143L106.724 50.0203L111.476 44.7122L105.639 46.5218L105.083 44.7277L113.79 42.0282L114.346 43.8223L109.59 49.1381L115.433 47.3267L115.987 49.1148Z" fill="white"/>
<path d="M111.035 53.713L111.165 53.6991C111.659 53.6465 112.121 53.6687 112.551 53.7656C112.985 53.8621 113.371 54.0289 113.706 54.266C114.042 54.5031 114.316 54.8097 114.528 55.1859C114.745 55.5616 114.88 56.0048 114.934 56.5153C114.989 57.0258 114.95 57.4896 114.818 57.9066C114.69 58.3232 114.487 58.6827 114.209 58.9852C113.931 59.2918 113.59 59.538 113.186 59.7238C112.786 59.9091 112.339 60.028 111.845 60.0806L111.714 60.0945C111.224 60.1467 110.762 60.1245 110.328 60.028C109.898 59.9311 109.513 59.7622 109.172 59.5214C108.836 59.2843 108.562 58.9777 108.35 58.6015C108.138 58.2253 108.005 57.782 107.95 57.2714C107.896 56.7609 107.933 56.2974 108.06 55.8808C108.189 55.4684 108.392 55.1088 108.67 54.8022C108.952 54.4993 109.294 54.2552 109.694 54.0698C110.098 53.8841 110.545 53.7651 111.035 53.713ZM111.356 55.4921L111.225 55.5061C110.943 55.5361 110.682 55.5891 110.443 55.6649C110.203 55.7408 109.996 55.8427 109.82 55.9705C109.65 56.102 109.522 56.2625 109.437 56.452C109.352 56.6415 109.324 56.865 109.351 57.1223C109.378 57.3713 109.452 57.5796 109.575 57.747C109.698 57.9144 109.856 58.0424 110.05 58.1308C110.249 58.2189 110.473 58.2748 110.723 58.2985C110.974 58.3264 111.24 58.3253 111.522 58.2952L111.653 58.2813C111.927 58.2522 112.181 58.1978 112.416 58.1182C112.656 58.0423 112.863 57.9384 113.038 57.8065C113.218 57.6782 113.352 57.5191 113.441 57.3291C113.53 57.1392 113.561 56.9176 113.534 56.6644C113.507 56.4112 113.43 56.2012 113.303 56.0342C113.176 55.8713 113.012 55.744 112.809 55.6523C112.611 55.5643 112.386 55.5084 112.136 55.4847C111.89 55.4605 111.63 55.463 111.356 55.4921Z" fill="white"/>
<path d="M110.127 64.453L114.988 66.3414L114.877 67.4818L112.95 66.9231L108.307 65.056L108.4 64.1026L110.127 64.453ZM115.194 64.2289L110.105 64.7465L108.344 64.6696L108.454 63.548L115.362 62.4965L115.194 64.2289ZM109.842 68.2878L114.657 69.7439L114.488 71.4825L107.912 69.119L108.02 68.0036L109.842 68.2878ZM114.862 67.6376L109.766 68.5509L107.965 68.5707L108.058 67.611L112.968 66.6733L114.972 66.5096L114.862 67.6376Z" fill="white"/>
<path d="M109.147 81.792L107.826 81.2864L109.09 77.9824L110.411 78.4879L109.147 81.792Z" fill="white"/>
<path d="M101.354 92.2156L100.266 93.7387C99.7884 93.3513 99.4436 92.8971 99.2312 92.3759C99.0164 91.8581 98.9556 91.3042 99.0489 90.7142C99.1398 90.1276 99.4025 89.5303 99.8369 88.9225C100.177 88.447 100.563 88.0791 100.995 87.8187C101.431 87.5606 101.899 87.4079 102.4 87.3605C102.898 87.3165 103.416 87.3814 103.954 87.5552C104.491 87.7291 105.032 88.0102 105.575 88.3985L106.09 88.7662C106.633 89.1545 107.073 89.5765 107.409 90.0322C107.746 90.4938 107.973 90.9691 108.091 91.4583C108.205 91.9508 108.211 92.445 108.108 92.9409C108.005 93.4367 107.788 93.9173 107.455 94.3825C107.013 95.0006 106.529 95.4418 106.001 95.7061C105.471 95.9738 104.926 96.084 104.364 96.0368C103.801 95.993 103.25 95.8152 102.714 95.5036L103.806 93.9754C104.117 94.172 104.412 94.2934 104.692 94.3396C104.976 94.3882 105.244 94.3465 105.497 94.2146C105.752 94.0885 106 93.8557 106.243 93.5161C106.425 93.2614 106.536 93.005 106.577 92.7468C106.618 92.4887 106.588 92.226 106.486 91.9586C106.385 91.6912 106.21 91.4197 105.96 91.144C105.712 90.8741 105.391 90.5984 104.997 90.3169L104.472 89.9419C104.088 89.6677 103.73 89.4551 103.397 89.3041C103.067 89.1555 102.759 89.0691 102.474 89.0447C102.189 89.0262 101.928 89.0756 101.691 89.193C101.454 89.3162 101.238 89.5136 101.044 89.7853C100.816 90.1045 100.679 90.4041 100.633 90.684C100.587 90.964 100.625 91.2299 100.747 91.4818C100.868 91.737 101.07 91.9816 101.354 92.2156Z" fill="white"/>
<path d="M98.6089 96.1077L98.6993 96.2031C99.0408 96.5638 99.3035 96.9445 99.4875 97.3451C99.6743 97.7488 99.7754 98.1561 99.7908 98.5669C99.8061 98.9777 99.7287 99.3816 99.5584 99.7785C99.391 100.178 99.1209 100.555 98.7481 100.908C98.3753 101.261 97.9832 101.512 97.5717 101.66C97.1631 101.811 96.7541 101.868 96.3447 101.83C95.9323 101.795 95.5296 101.673 95.1367 101.465C94.7467 101.259 94.3809 100.976 94.0393 100.616L93.9489 100.52C93.6103 100.163 93.3476 99.7819 93.1607 99.3782C92.9768 98.9775 92.8772 98.5688 92.862 98.1521C92.8466 97.7413 92.9241 97.3374 93.0943 96.9405C93.2646 96.5436 93.5361 96.1686 93.9089 95.8156C94.2817 95.4626 94.6724 95.2105 95.0811 95.0593C95.4867 94.9109 95.8957 94.8541 96.3081 94.889C96.7203 94.9298 97.1215 95.0529 97.5115 95.2584C97.9044 95.4669 98.2702 95.75 98.6089 96.1077ZM97.39 97.4429L97.2995 97.3475C97.1044 97.1414 96.904 96.9661 96.6983 96.8218C96.4926 96.6774 96.2857 96.5743 96.0778 96.5125C95.8697 96.4567 95.6646 96.4526 95.4625 96.5002C95.2604 96.5478 95.0655 96.6606 94.8775 96.8385C94.6957 97.0107 94.5755 97.1964 94.5169 97.3956C94.4583 97.5948 94.4528 97.7984 94.5002 98.0063C94.5506 98.2173 94.6422 98.4295 94.7752 98.6427C94.9051 98.8589 95.0677 99.07 95.2628 99.2761L95.3532 99.3716C95.5426 99.5716 95.7403 99.7408 95.9461 99.8793C96.1518 100.024 96.3602 100.125 96.5712 100.184C96.782 100.249 96.9899 100.259 97.1948 100.215C97.3997 100.17 97.5947 100.06 97.7795 99.885C97.9644 99.71 98.0847 99.5213 98.1404 99.3191C98.1931 99.1198 98.1943 98.9117 98.1442 98.6947C98.0938 98.4837 98.0022 98.2716 97.8692 98.0583C97.7391 97.8481 97.5794 97.643 97.39 97.4429Z" fill="white"/>
<path d="M91.6071 104.759L88.6608 100.319L90.1633 99.3223L93.9093 104.967L92.5007 105.902L91.6071 104.759ZM90.8845 103.194L91.2914 102.924C91.5684 103.342 91.7637 103.753 91.8775 104.159C91.9936 104.567 92.0327 104.955 91.9949 105.321C91.9594 105.69 91.8493 106.026 91.6646 106.329C91.4787 106.637 91.2188 106.903 90.885 107.124C90.6207 107.3 90.3536 107.422 90.0837 107.491C89.8138 107.56 89.5452 107.562 89.2779 107.499C89.0071 107.439 88.7389 107.299 88.4731 107.079C88.2038 106.862 87.9376 106.555 87.6744 106.159L85.2856 102.559L86.7985 101.555L89.1908 105.16C89.357 105.411 89.521 105.582 89.6829 105.675C89.8447 105.768 90.012 105.797 90.1845 105.763C90.3559 105.734 90.539 105.656 90.7338 105.526C90.9355 105.392 91.0846 105.236 91.181 105.057C91.274 104.88 91.3219 104.688 91.3246 104.48C91.3262 104.279 91.289 104.068 91.2131 103.848C91.1371 103.628 91.0276 103.41 90.8845 103.194Z" fill="white"/>
<path d="M83.4187 111.054L82.8611 109.905L86.4099 108.183L86.9675 109.332L83.4187 111.054ZM86.8185 111.262L85.1963 112.049L82.4 106.287C82.3144 106.11 82.2263 105.986 82.1356 105.914C82.0413 105.844 81.938 105.813 81.8259 105.821C81.7156 105.833 81.5892 105.873 81.4465 105.942C81.3451 105.992 81.2568 106.039 81.1815 106.085C81.1044 106.136 81.0404 106.181 80.9895 106.22L80.4044 105.028C80.5215 104.916 80.6544 104.807 80.8031 104.703C80.9518 104.598 81.1238 104.498 81.3191 104.404C81.6759 104.23 82.0158 104.137 82.3389 104.124C82.6601 104.117 82.9558 104.21 83.2261 104.404C83.4963 104.597 83.7353 104.908 83.9431 105.336L86.8185 111.262Z" fill="white"/>
<path d="M76.3536 108.091L77.3068 110.955C77.3754 111.161 77.4677 111.326 77.5838 111.45C77.7013 111.578 77.8451 111.66 78.0154 111.695C78.1817 111.732 78.3757 111.714 78.5975 111.64C78.7876 111.577 78.9407 111.489 79.0569 111.375C79.1745 111.266 79.2504 111.137 79.2848 110.989C79.3205 110.845 79.3113 110.692 79.2572 110.53L80.9681 109.96C81.0591 110.233 81.0821 110.514 81.0371 110.802C80.9921 111.089 80.8798 111.367 80.7002 111.633C80.5219 111.904 80.2842 112.148 79.9871 112.365C79.6861 112.584 79.3277 112.763 78.9118 112.902C78.4128 113.068 77.9416 113.132 77.4981 113.095C77.0546 113.058 76.6666 112.91 76.3341 112.651C75.9976 112.394 75.7463 112.015 75.5801 111.516L74.6645 108.766C74.5471 108.413 74.4291 108.132 74.3104 107.92C74.193 107.713 74.065 107.54 73.9265 107.401L73.8929 107.3L75.6216 106.725C75.7627 106.871 75.8986 107.068 76.0292 107.315C76.1571 107.567 76.2653 107.826 76.3536 108.091ZM76.9486 110.632L76.6144 109.667L77.5708 109.349C77.7965 109.274 77.984 109.183 78.1332 109.076C78.2824 108.969 78.3946 108.85 78.4699 108.72C78.5465 108.593 78.5901 108.46 78.6007 108.32C78.6074 108.181 78.5863 108.039 78.5375 107.892C78.4888 107.746 78.4109 107.624 78.3041 107.528C78.1985 107.435 78.0711 107.377 77.922 107.351C77.7742 107.33 77.6151 107.348 77.4448 107.405C77.1874 107.49 76.9808 107.616 76.825 107.783C76.6691 107.949 76.5648 108.124 76.5119 108.309C76.4551 108.495 76.4471 108.656 76.488 108.792L75.7952 108.218C75.8045 108.034 75.8356 107.837 75.8885 107.626C75.9374 107.416 76.0193 107.206 76.1343 106.996C76.2505 106.79 76.409 106.599 76.6097 106.422C76.8117 106.25 77.0731 106.11 77.3939 106.003C77.8018 105.867 78.1991 105.825 78.5858 105.877C78.9699 105.934 79.3071 106.074 79.5974 106.299C79.8851 106.529 80.0909 106.83 80.2148 107.202C80.3269 107.538 80.363 107.859 80.3233 108.162C80.2836 108.466 80.1707 108.747 79.9844 109.007C79.7956 109.273 79.5302 109.513 79.1882 109.728C78.8476 109.947 78.4318 110.138 77.9407 110.302L76.9486 110.632Z" fill="white"/>
<path d="M69.5344 109.448C69.3159 109.483 69.1286 109.554 68.9724 109.663C68.817 109.776 68.7038 109.917 68.6329 110.084C68.5586 110.256 68.5358 110.448 68.5647 110.659L66.8885 110.922C66.8188 110.451 66.8789 110.013 67.0687 109.607C67.2591 109.206 67.546 108.867 67.9295 108.591C68.3136 108.32 68.7633 108.143 69.2788 108.062C69.7983 107.981 70.2655 107.996 70.6803 108.109C71.091 108.221 71.4481 108.41 71.7517 108.675C72.0559 108.945 72.304 109.273 72.496 109.661C72.6885 110.054 72.8217 110.485 72.8956 110.955L72.9237 111.134C72.9982 111.608 73.0036 112.06 72.9399 112.488C72.8768 112.92 72.7414 113.309 72.5337 113.655C72.3266 114.004 72.0449 114.295 71.6886 114.529C71.3323 114.762 70.8964 114.919 70.381 115C69.8326 115.086 69.3357 115.057 68.8903 114.911C68.4408 114.766 68.0678 114.516 67.7712 114.162C67.4712 113.812 67.2773 113.371 67.1897 112.84L68.8659 112.576C68.905 112.798 68.9841 112.993 69.1033 113.16C69.2184 113.328 69.3689 113.452 69.5548 113.533C69.7372 113.618 69.9501 113.642 70.1934 113.604C70.4532 113.563 70.6568 113.474 70.8042 113.337C70.9523 113.204 71.0568 113.035 71.1178 112.831C71.1794 112.631 71.2099 112.409 71.2095 112.164C71.2055 111.924 71.1832 111.674 71.1424 111.414L71.1142 111.235C71.0734 110.975 71.0177 110.728 70.9472 110.494C70.8767 110.26 70.7815 110.057 70.6616 109.886C70.5376 109.715 70.3847 109.589 70.203 109.508C70.0212 109.427 69.7983 109.407 69.5344 109.448Z" fill="white"/>
<path d="M61.3811 115.575L61.3482 114.298L65.2914 114.197L65.3242 115.474L61.3811 115.575ZM64.3908 117.17L62.5882 117.216L62.4236 110.813C62.4185 110.617 62.3896 110.468 62.3369 110.365C62.2799 110.262 62.1988 110.191 62.0934 110.152C61.9881 110.117 61.8562 110.101 61.6976 110.106C61.585 110.108 61.4849 110.115 61.3975 110.126C61.306 110.141 61.2292 110.155 61.1669 110.169L61.1265 108.843C61.2796 108.789 61.4455 108.745 61.6242 108.711C61.8029 108.677 62.0007 108.657 62.2177 108.652C62.6141 108.641 62.9621 108.697 63.2616 108.819C63.5572 108.945 63.788 109.152 63.954 109.44C64.1201 109.728 64.2093 110.11 64.2215 110.586L64.3908 117.17Z" fill="white"/>
<path d="M46.839 115.922L48.7599 107.01L50.5961 107.406L52.8889 114.152L54.1765 108.178L56.0127 108.574L54.0918 117.485L52.2557 117.089L49.958 110.337L48.669 116.316L46.839 115.922Z" fill="white"/>
<path d="M45.2453 109.344L45.1932 109.464C44.9962 109.92 44.7499 110.312 44.4541 110.639C44.1566 110.969 43.8221 111.223 43.4505 111.399C43.079 111.575 42.6773 111.663 42.2454 111.662C41.8118 111.666 41.3594 111.566 40.8881 111.363C40.4168 111.159 40.0319 110.897 39.7336 110.577C39.4336 110.261 39.2203 109.908 39.0937 109.517C38.9633 109.124 38.9166 108.706 38.9534 108.263C38.9887 107.823 39.1048 107.375 39.3017 106.919L39.3539 106.799C39.5492 106.347 39.7956 105.955 40.093 105.624C40.3888 105.297 40.7253 105.045 41.1023 104.867C41.4738 104.691 41.8756 104.603 42.3075 104.603C42.7393 104.603 43.1909 104.705 43.6623 104.909C44.1336 105.112 44.5192 105.372 44.8192 105.688C45.1154 106.002 45.3287 106.356 45.4591 106.749C45.584 107.144 45.6289 107.561 45.5936 108C45.5568 108.444 45.4407 108.891 45.2453 109.344ZM43.5378 108.749L43.59 108.628C43.7025 108.368 43.7846 108.115 43.8363 107.869C43.888 107.623 43.9013 107.392 43.8761 107.177C43.8455 106.963 43.7685 106.773 43.6451 106.606C43.5217 106.439 43.3412 106.304 43.1036 106.202C42.8737 106.103 42.6557 106.065 42.4495 106.09C42.2434 106.114 42.0541 106.19 41.8816 106.315C41.7075 106.444 41.5487 106.612 41.405 106.818C41.2575 107.023 41.1275 107.256 41.015 107.516L40.9628 107.637C40.8536 107.89 40.7759 108.138 40.7297 108.382C40.678 108.628 40.6667 108.859 40.6957 109.076C40.7191 109.296 40.7918 109.491 40.9135 109.662C41.0352 109.832 41.213 109.968 41.4467 110.069C41.6805 110.17 41.9012 110.207 42.109 110.178C42.313 110.148 42.5048 110.067 42.6844 109.936C42.8585 109.806 43.0174 109.638 43.161 109.432C43.303 109.23 43.4286 109.002 43.5378 108.749Z" fill="white"/>
<path d="M36.4137 103.313L32.3772 106.616L31.4391 105.958L32.8739 104.555L36.7846 101.432L37.5689 101.982L36.4137 103.313ZM34.115 107.834L36.1692 103.15L37.1024 101.655L38.0251 102.302L35.54 108.834L34.115 107.834ZM33.2159 101.178L29.5783 104.653L28.1481 103.65L33.4423 99.0885L34.3599 99.732L33.2159 101.178ZM31.3109 105.868L33.0242 100.982L33.8934 99.4049L34.6829 99.9585L33.0826 104.694L32.2388 106.519L31.3109 105.868Z" fill="white"/>
<path d="M21.7857 93.9324L22.8742 93.0283L25.1344 95.7496L24.0459 96.6537L21.7857 93.9324Z" fill="white"/>
<path d="M16.5121 82.033L15.7171 80.3381C16.2886 80.1116 16.8536 80.0333 17.412 80.1034C17.9686 80.1696 18.4813 80.3879 18.9501 80.7582C19.417 81.1247 19.8091 81.6462 20.1264 82.3227C20.3745 82.8517 20.5062 83.3685 20.5216 83.8731C20.5331 84.3794 20.437 84.8625 20.2331 85.3223C20.0274 85.7784 19.7172 86.1982 19.3024 86.5818C18.8875 86.9653 18.3778 87.2989 17.7732 87.5825L17.2006 87.851C16.596 88.1346 16.0127 88.3113 15.4507 88.3813C14.8833 88.4492 14.3576 88.4145 13.8736 88.2772C13.388 88.1362 12.9542 87.8994 12.5723 87.5667C12.1903 87.2341 11.878 86.8089 11.6352 86.2912C11.3126 85.6034 11.1652 84.9648 11.1931 84.3755C11.2192 83.7823 11.3903 83.2526 11.7064 82.7862C12.0207 82.3161 12.4451 81.9234 12.9796 81.6082L13.7771 83.3088C13.4534 83.4837 13.2029 83.6818 13.0256 83.9033C12.8444 84.1266 12.7493 84.3809 12.7403 84.6664C12.7257 84.9499 12.8071 85.2805 12.9843 85.6585C13.1172 85.9419 13.2862 86.1646 13.4913 86.3266C13.6963 86.4886 13.9403 86.5909 14.223 86.6335C14.5058 86.676 14.8284 86.6561 15.1908 86.5737C15.5477 86.4893 15.9454 86.3443 16.3837 86.1387L16.9676 85.8649C17.3946 85.6646 17.7556 85.4562 18.0505 85.2395C18.3416 85.0246 18.5676 84.7987 18.7285 84.5619C18.8839 84.323 18.9686 84.0712 18.9827 83.8064C18.9913 83.5396 18.9247 83.2551 18.7829 82.9527C18.6163 82.5975 18.4223 82.3312 18.2008 82.1539C17.9793 81.9765 17.7287 81.8796 17.449 81.8633C17.1676 81.8432 16.8552 81.8997 16.5121 82.033Z" fill="white"/>
<path d="M14.4615 77.7237L14.3339 77.7555C13.8519 77.8755 13.3913 77.9171 12.9519 77.8803C12.5085 77.8445 12.1042 77.7322 11.7389 77.5436C11.3736 77.355 11.06 77.089 10.7981 76.7456C10.5322 76.4032 10.3372 75.9829 10.2131 75.4847C10.089 74.9865 10.0636 74.5218 10.1369 74.0906C10.2061 73.6604 10.3578 73.2764 10.5919 72.9384C10.825 72.5965 11.129 72.3057 11.5038 72.0661C11.8745 71.8275 12.3009 71.6482 12.7829 71.5281L12.9105 71.4963C13.3884 71.3773 13.849 71.3357 14.2924 71.3715C14.7318 71.4083 15.1366 71.5226 15.507 71.7142C15.8722 71.9029 16.1858 72.1689 16.4477 72.5123C16.7096 72.8557 16.9026 73.2765 17.0267 73.7747C17.1508 74.2729 17.1782 74.7371 17.109 75.1673C17.0388 75.5934 16.8871 75.9775 16.654 76.3194C16.4158 76.6584 16.1113 76.9471 15.7406 77.1857C15.3658 77.4253 14.9394 77.6046 14.4615 77.7237ZM13.8981 76.0057L14.0257 75.9739C14.3011 75.9054 14.5522 75.817 14.7791 75.7089C15.006 75.6007 15.1974 75.4713 15.3535 75.3206C15.5044 75.1669 15.6089 74.9903 15.6667 74.7909C15.7246 74.5916 15.7223 74.3663 15.6597 74.1152C15.5992 73.8722 15.4966 73.6762 15.352 73.5272C15.2074 73.3783 15.0328 73.2734 14.8284 73.2124C14.6199 73.1525 14.3901 73.128 14.139 73.139C13.8869 73.1458 13.6232 73.1835 13.3478 73.2521L13.2202 73.2839C12.9529 73.3505 12.7083 73.4394 12.4865 73.5505C12.2596 73.6587 12.0687 73.7901 11.9137 73.9449C11.7536 74.0966 11.6426 74.2726 11.5806 74.473C11.5187 74.6734 11.5185 74.8971 11.5801 75.1442C11.6416 75.3913 11.7467 75.5888 11.8954 75.7367C12.0431 75.8806 12.2237 75.984 12.4372 76.047C12.6457 76.1069 12.8755 76.1314 13.1266 76.1205C13.3736 76.1106 13.6308 76.0723 13.8981 76.0057Z" fill="white"/>
<path d="M10.3765 67.3886L15.6911 67.0088L15.8196 68.8074L9.0624 69.2903L8.94191 67.6041L10.3765 67.3886ZM12.0939 67.5295L12.1287 68.0166C11.6291 68.0523 11.1749 68.0199 10.766 67.9194C10.3529 67.8192 9.99645 67.6626 9.69668 67.4497C9.39274 67.2371 9.15438 66.9758 8.98159 66.666C8.80433 66.3522 8.70143 65.9955 8.67287 65.5958C8.65026 65.2794 8.67538 64.9868 8.74823 64.7179C8.82108 64.4491 8.95074 64.2139 9.13719 64.0122C9.32335 63.8064 9.57732 63.6418 9.89909 63.5184C10.2206 63.3908 10.6186 63.31 11.0932 63.2761L15.4024 62.9682L15.5318 64.7793L11.2164 65.0877C10.9166 65.1091 10.6865 65.1674 10.5259 65.2625C10.3653 65.3577 10.2575 65.4889 10.2025 65.656C10.143 65.8193 10.1216 66.0175 10.1383 66.2506C10.1555 66.4921 10.2184 66.6989 10.327 66.8711C10.4352 67.0391 10.5789 67.1753 10.7579 67.2797C10.9325 67.3802 11.1343 67.4516 11.3632 67.4938C11.5922 67.5361 11.8358 67.5479 12.0939 67.5295Z" fill="white"/>
<path d="M8.92691 57.0771L10.2017 57.157L9.9549 61.0938L8.68015 61.0139L8.92691 57.0771ZM7.07282 59.9345L7.18562 58.1348L13.5781 58.5355C13.7739 58.5478 13.9255 58.5322 14.0328 58.4887C14.1403 58.4411 14.2182 58.3665 14.2664 58.265C14.3104 58.1632 14.3373 58.0331 14.3473 57.8748C14.3543 57.7624 14.3564 57.6621 14.3536 57.5741C14.3468 57.4817 14.3391 57.4038 14.3306 57.3406L15.6557 57.4173C15.696 57.5746 15.7252 57.7437 15.7431 57.9247C15.761 58.1057 15.7632 58.3044 15.7496 58.5211C15.7248 58.9168 15.6386 59.2585 15.4909 59.5462C15.3393 59.8295 15.1128 60.0411 14.8112 60.1811C14.5097 60.3212 14.1215 60.3763 13.6466 60.3465L7.07282 59.9345Z" fill="white"/>
<path d="M14.9732 52.4052L12.0106 51.8304C11.7975 51.7891 11.6084 51.7885 11.4433 51.8288C11.2741 51.8682 11.1321 51.9534 11.0175 52.0842C10.9036 52.2109 10.8244 52.389 10.7799 52.6185C10.7417 52.8151 10.7435 52.992 10.7854 53.1489C10.8231 53.305 10.8979 53.4343 11.0099 53.5368C11.1177 53.6385 11.2556 53.7057 11.4236 53.7383L11.0801 55.5085C10.7974 55.4536 10.5417 55.336 10.3131 55.1556C10.0845 54.9751 9.89816 54.7413 9.75407 54.4539C9.60588 54.1658 9.50986 53.8389 9.46601 53.4733C9.42295 53.1035 9.44316 52.7035 9.52664 52.2733C9.62682 51.7569 9.80191 51.3147 10.0519 50.9465C10.3019 50.5784 10.6213 50.3129 11.01 50.1502C11.3996 49.9835 11.8525 49.9502 12.3688 50.0503L15.2146 50.6025C15.5793 50.6733 15.8828 50.7088 16.1251 50.709C16.3633 50.7085 16.5768 50.6819 16.7656 50.6292L16.8701 50.6495L16.523 52.4381C16.326 52.4892 16.0879 52.511 15.8088 52.5036C15.5263 52.4913 15.2477 52.4585 14.9732 52.4052ZM12.4678 51.6768L13.472 51.8589L13.28 52.8484C13.2347 53.082 13.222 53.29 13.2418 53.4724C13.2617 53.6549 13.3101 53.8109 13.387 53.9407C13.4598 54.0696 13.5545 54.173 13.6712 54.2509C13.7887 54.3247 13.9232 54.3764 14.0748 54.4058C14.2264 54.4352 14.3705 54.427 14.5069 54.3812C14.6393 54.3346 14.753 54.2525 14.8481 54.1349C14.9391 54.0165 15.0017 53.8692 15.0359 53.693C15.0875 53.4266 15.0792 53.1848 15.0108 52.9674C14.9424 52.7501 14.8407 52.573 14.7057 52.4363C14.5715 52.2954 14.4351 52.2094 14.2965 52.1783L15.137 51.8567C15.2923 51.9548 15.449 52.0788 15.607 52.2285C15.7659 52.3741 15.9085 52.5484 16.0349 52.7516C16.1572 52.9539 16.2461 53.1858 16.3017 53.4475C16.3531 53.7083 16.3466 54.0047 16.2822 54.3366C16.2003 54.7587 16.042 55.1255 15.8072 55.4371C15.5691 55.7438 15.281 55.9685 14.9429 56.1113C14.6016 56.2491 14.2383 56.2807 13.8531 56.2059C13.5048 56.1384 13.2082 56.0128 12.9631 55.8292C12.7181 55.6456 12.5281 55.4089 12.393 55.119C12.2546 54.8243 12.1756 54.4752 12.1561 54.0718C12.1325 53.6675 12.17 53.2113 12.2686 52.7032L12.4678 51.6768Z" fill="white"/>
<path d="M17.1432 45.7834C17.2206 45.5761 17.2502 45.3778 17.2319 45.1882C17.2097 44.9972 17.1431 44.8297 17.0321 44.6858C16.9186 44.5364 16.7629 44.4225 16.5649 44.344L17.159 42.7547C17.6032 42.9252 17.9555 43.1928 18.2158 43.5574C18.4722 43.9206 18.6263 44.3369 18.6781 44.8064C18.726 45.2743 18.6586 45.7527 18.4759 46.2414C18.2918 46.734 18.0489 47.1334 17.7473 47.4396C17.4472 47.7418 17.1072 47.9601 16.7272 48.0943C16.3434 48.2271 15.9353 48.2818 15.5029 48.2583C15.0666 48.2334 14.6256 48.1376 14.1799 47.971L14.0098 47.9075C13.5602 47.7394 13.1645 47.5224 12.8227 47.2565C12.477 46.9892 12.2048 46.6802 12.0061 46.3297C11.8034 45.9777 11.688 45.5892 11.6597 45.1642C11.6314 44.7392 11.7086 44.2823 11.8912 43.7936C12.0856 43.2736 12.3556 42.8553 12.7011 42.5389C13.0481 42.2185 13.449 42.0163 13.9037 41.9323C14.356 41.8429 14.8351 41.8905 15.3409 42.0751L14.7468 43.6645C14.5342 43.5895 14.3259 43.5628 14.1217 43.5845C13.9189 43.6023 13.7368 43.6724 13.5752 43.7947C13.4112 43.9116 13.2861 44.0855 13.1999 44.3161C13.1078 44.5625 13.0853 44.7835 13.1324 44.9794C13.1756 45.1738 13.2711 45.3476 13.4188 45.5008C13.5626 45.6526 13.7413 45.7885 13.9549 45.9084C14.1661 46.023 14.3948 46.1263 14.6411 46.2184L14.8112 46.282C15.0575 46.374 15.2999 46.4468 15.5384 46.5003C15.7768 46.5538 16.0001 46.5704 16.2082 46.5502C16.4178 46.526 16.6026 46.4547 16.7627 46.3363C16.9228 46.2179 17.0496 46.0336 17.1432 45.7834Z" fill="white"/>
<path d="M15.8148 35.6762L16.9424 36.2761L15.0898 39.7584L13.9622 39.1586L15.8148 35.6762ZM12.9451 37.5111L13.792 35.9192L19.4466 38.9274C19.6198 39.0196 19.7643 39.068 19.8799 39.0728C19.9975 39.0739 20.0993 39.0382 20.1851 38.9657C20.2673 38.8912 20.3456 38.784 20.4201 38.6439C20.473 38.5444 20.5164 38.454 20.5502 38.3727C20.5823 38.2858 20.6075 38.2117 20.6258 38.1506L21.8006 38.7684C21.7723 38.9283 21.7289 39.0943 21.6704 39.2665C21.6119 39.4387 21.5317 39.6206 21.4297 39.8122C21.2435 40.1623 21.0237 40.4378 20.7702 40.6386C20.5151 40.8338 20.2213 40.9329 19.8888 40.9357C19.5564 40.9385 19.1801 40.8281 18.76 40.6046L12.9451 37.5111Z" fill="white"/>
<path d="M22.6579 22.8823L29.469 28.9415L28.2205 30.3449L21.2204 29.0198L25.786 33.0814L24.5376 34.4848L17.7266 28.4257L18.975 27.0223L25.984 28.3468L21.4137 24.281L22.6579 22.8823Z" fill="white"/>
<path d="M29.1524 24.742L29.0727 24.6374C28.7718 24.2422 28.5513 23.8356 28.4113 23.4176C28.2687 22.9962 28.2118 22.5805 28.2405 22.1704C28.2692 21.7603 28.3894 21.367 28.6011 20.9906C28.8104 20.6109 29.1192 20.2655 29.5276 19.9544C29.9361 19.6433 30.3528 19.4361 30.7778 19.3327C31.2002 19.2261 31.613 19.2134 32.016 19.2948C32.4223 19.3736 32.8096 19.5377 33.1779 19.787C33.5438 20.0331 33.8771 20.3537 34.1781 20.7489L34.2578 20.8535C34.5562 21.2453 34.7767 21.6519 34.9192 22.0732C35.0593 22.4913 35.1145 22.9083 35.0851 23.3243C35.0564 23.7344 34.9362 24.1276 34.7244 24.5041C34.5126 24.8805 34.2025 25.2242 33.7941 25.5353C33.3857 25.8464 32.9702 26.0552 32.5478 26.1619C32.1286 26.266 31.7159 26.2787 31.3096 26.1999C30.9041 26.1152 30.5184 25.9499 30.1526 25.7038C29.7842 25.4544 29.4508 25.1338 29.1524 24.742ZM30.5072 23.5448L30.5869 23.6494C30.7589 23.8752 30.9394 24.0709 31.1285 24.2364C31.3175 24.402 31.5121 24.5266 31.7123 24.6103C31.9132 24.6881 32.1167 24.7142 32.3227 24.6884C32.5287 24.6627 32.7347 24.5714 32.9405 24.4146C33.1398 24.2629 33.2792 24.0911 33.3587 23.8993C33.4383 23.7076 33.4656 23.5057 33.4406 23.2939C33.4132 23.0787 33.3447 22.858 33.2354 22.6317C33.1293 22.4029 32.9903 22.1756 32.8183 21.9498L32.7386 21.8452C32.5717 21.6261 32.3933 21.4366 32.2035 21.2769C32.0144 21.1114 31.8181 20.988 31.6147 20.9069C31.412 20.8199 31.2064 20.7876 30.9979 20.81C30.7893 20.8324 30.5838 20.9208 30.3812 21.0751C30.1787 21.2293 30.0389 21.404 29.9618 21.5991C29.8881 21.7917 29.8646 21.9985 29.8913 22.2195C29.9188 22.4347 29.9872 22.6554 30.0966 22.8817C30.2034 23.1046 30.3403 23.3257 30.5072 23.5448Z" fill="white"/>
<path d="M38.7284 19.9992L37.8254 14.8628L38.8583 14.3669L39.3788 16.3048L40.187 21.2437L39.3234 21.6582L38.7284 19.9992ZM35.9119 15.7813L38.991 19.8662L39.8371 21.4117L38.8211 21.8994L34.3428 16.5345L35.9119 15.7813ZM42.1562 18.2565L40.9072 13.3834L42.482 12.6274L43.8672 19.4771L42.8568 19.9621L42.1562 18.2565ZM38.9994 14.2992L42.4205 18.1852L43.3704 19.7155L42.5012 20.1328L39.1557 16.4188L37.9778 14.7896L38.9994 14.2992Z" fill="white"/>
<path d="M54.0957 11.8571L54.3466 13.2496L50.8651 13.8768L50.6143 12.4843L54.0957 11.8571Z" fill="white"/>
<defs>
<linearGradient id="paint0_linear_192_181" x1="89.9337" y1="33.9383" x2="26.911" y2="41.6773" gradientUnits="userSpaceOnUse">
<stop stop-color="#73ED7C"/>
<stop offset="1" stop-color="#019297"/>
</linearGradient>
<linearGradient id="paint1_linear_192_181" x1="122.943" y1="1.86597" x2="-12.674" y2="18.5193" gradientUnits="userSpaceOnUse">
<stop stop-color="#73ED7C"/>
<stop offset="1" stop-color="#019297"/>
</linearGradient>
<clipPath id="clip0_192_181">
<rect width="30.75" height="30.75" fill="white" transform="translate(46.126 46.6313)"/>
</clipPath>
</defs>
</svg>
