<svg xmlns="http://www.w3.org/2000/svg" viewBox="0 0 64 64" id="Courier">
  <rect width="2" height="2" x="27" y="54" fill="#ffffff" class="color000000 svgShape"></rect>
  <rect width="2" height="2" x="27" y="58" fill="#ffffff" class="color000000 svgShape"></rect>
  <rect width="4" height="2" x="35" y="54" fill="#ffffff" class="color000000 svgShape"></rect>
  <path d="M5,60H9a1,1,0,0,0,1-1V55a1,1,0,0,0-1-1H5a1,1,0,0,0-1,1v4A1,1,0,0,0,5,60Zm1-4H8v2H6Z" fill="#ffffff" class="color000000 svgShape"></path>
  <rect width="4" height="2" x="8" y="45" fill="#ffffff" class="color000000 svgShape"></rect>
  <path d="M60.745,50H60a1,1,0,0,0-.243.03L59,50.22V42a1,1,0,0,0-1-1H55V40a1,1,0,0,0-1-1H46a1,1,0,0,0-1,1v1H42a1,1,0,0,0-1,1v2.125l-3-.875V39.376a12.027,12.027,0,0,0,5.621-7.439A4.99,4.99,0,0,0,48,27V11.559a9.006,9.006,0,0,0-7.179-8.813L36.188,1.537a16.667,16.667,0,0,0-8.376,0l-4.577,1.2A9.024,9.024,0,0,0,16,11.559V27a4.99,4.99,0,0,0,4.379,4.937A12.027,12.027,0,0,0,26,39.376V43.25L20,45V42a1,1,0,0,0-1-1H5a1,1,0,0,0-1,1v7H2a1,1,0,0,0-1,1V62a1,1,0,0,0,1,1H58a1,1,0,0,0,1-1V59.78l.757.19A1,1,0,0,0,60,60h.745A2.258,2.258,0,0,0,63,57.744V52.256A2.258,2.258,0,0,0,60.745,50ZM47,41h6v2H47ZM41,61H33V48.414l4.293,4.293A1,1,0,0,0,38,53a1.028,1.028,0,0,0,.251-.032,1,1,0,0,0,.71-.694l1.757-6.147.282.082ZM26.8,45.1l2.677,2.008L26.5,50.091,25.2,45.568Zm10.4,0,1.6.466-1.293,4.525-2.983-2.983ZM20,22.1a4.954,4.954,0,0,0-2,.925V20.983a.942.942,0,0,0,.275-.022L20,20.469Zm-1.281-3.347-.51-2.042,6.331-1.688a29.005,29.005,0,0,1,14.92,0l6.331,1.688-.51,2.042-6.3-1.8a25.372,25.372,0,0,0-13.96,0ZM28,11a4,4,0,1,1,7.781,1.286,31.059,31.059,0,0,0-7.562,0A4,4,0,0,1,28,11Zm17.725,9.961A.993.993,0,0,0,46,21v2.026a4.954,4.954,0,0,0-2-.925V20.469Zm-1.767,8.868c.019-.275.042-.549.042-.829V24.184a2.982,2.982,0,0,1-.042,5.645ZM23.684,4.682l4.633-1.209a14.658,14.658,0,0,1,7.366,0l4.69,1.221A7.02,7.02,0,0,1,46,11.559V14.7l-6.024-1.606c-.728-.194-1.462-.354-2.2-.494a6,6,0,1,0-11.554,0c-.737.14-1.471.3-2.2.494L18,14.7V11.559A7.037,7.037,0,0,1,23.684,4.682ZM18,27a3,3,0,0,1,2-2.816V29c0,.28.023.554.042.829A3,3,0,0,1,18,27Zm4,2V19.9l3.569-1.02a23.389,23.389,0,0,1,12.862,0L42,19.9V29a10,10,0,0,1-20,0ZM32,41a11.922,11.922,0,0,0,4-.7v3.2L32.667,46H31.333L28,43.5V40.3A11.922,11.922,0,0,0,32,41ZM6,43H18v6H6ZM21,61H3V51H21ZM20,49V47.091l3.283-.961,1.756,6.144a1,1,0,0,0,.71.694A1.028,1.028,0,0,0,26,53a1,1,0,0,0,.707-.293L31,48.414V61H23V50a1,1,0,0,0-1-1ZM57,61H43V43h2v1a1,1,0,0,0,1,1h8a1,1,0,0,0,1-1V43h2v7.719l-.107.027A2.494,2.494,0,0,0,55,53.171v3.658a2.494,2.494,0,0,0,1.893,2.425l.107.027Zm4-3.256a.256.256,0,0,1-.255.256h-.622l-2.745-.686A.5.5,0,0,1,57,56.829V53.171a.5.5,0,0,1,.378-.485L60.123,52h.622a.256.256,0,0,1,.255.256Z" fill="#ffffff" class="color000000 svgShape"></path>
</svg>
