<svg width="20" height="21" viewBox="0 0 20 21" fill="none" xmlns="http://www.w3.org/2000/svg">
<path d="M18.2422 3.5275H1.75781C0.786602 3.5275 0 4.31898 0 5.28531V15.8322C0 16.8043 0.792383 17.59 1.75781 17.59H18.2422C19.2053 17.59 20 16.8076 20 15.8322V5.28531C20 4.3207 19.2165 3.5275 18.2422 3.5275ZM17.996 4.69937C17.6369 5.0566 11.4564 11.2046 11.243 11.4168C10.9109 11.7489 10.4695 11.9317 10 11.9317C9.53047 11.9317 9.08906 11.7488 8.75594 11.4157C8.61242 11.273 2.50012 5.19289 2.00398 4.69937H17.996ZM1.17188 15.5937V5.52457L6.23586 10.5619L1.17188 15.5937ZM2.00473 16.4181L7.06672 11.3883L7.9284 12.2455C8.48176 12.7988 9.21746 13.1036 10 13.1036C10.7825 13.1036 11.5182 12.7988 12.0705 12.2466L12.9333 11.3883L17.9953 16.4181H2.00473ZM18.8281 15.5937L13.7641 10.5619L18.8281 5.52457V15.5937Z" fill="white"/>
</svg>
