<svg width="24" height="25" viewBox="0 0 24 25" fill="none" xmlns="http://www.w3.org/2000/svg">
<path d="M18.2404 3.10986H5.76037C5.47265 3.11776 5.19083 3.19326 4.93769 3.33025C4.68455 3.46725 4.46721 3.66189 4.30323 3.89843L1.18323 8.21843C0.95155 8.54582 0.83585 8.9412 0.854484 9.34183C0.873118 9.74246 1.02502 10.1254 1.28608 10.4299L10.6461 21.2127C10.8063 21.4192 11.0117 21.5863 11.2464 21.7013C11.4811 21.8162 11.739 21.876 12.0004 21.876C12.2617 21.876 12.5196 21.8162 12.7544 21.7013C12.9891 21.5863 13.1944 21.4192 13.3547 21.2127L22.7147 10.4299C22.9757 10.1254 23.1276 9.74246 23.1463 9.34183C23.1649 8.9412 23.0492 8.54582 22.8175 8.21843L19.6975 3.89843C19.5335 3.66189 19.3162 3.46725 19.063 3.33025C18.8099 3.19326 18.5281 3.11776 18.2404 3.10986V3.10986Z" stroke="white" stroke-linecap="round" stroke-linejoin="round"/>
<path d="M11.1086 3.09271L6.92578 9.57271L12.0001 21.8299" stroke="white" stroke-linecap="round" stroke-linejoin="round"/>
<path d="M12.9429 3.09271L17.1086 9.57271L12 21.8299" stroke="white" stroke-linecap="round" stroke-linejoin="round"/>
<path d="M0.891602 9.57269H23.1087" stroke="white" stroke-linecap="round" stroke-linejoin="round"/>
</svg>
