<svg width="30" height="30" viewBox="0 0 30 30" fill="none" xmlns="http://www.w3.org/2000/svg">
<path d="M9.64272 27.8572C14.3766 27.8572 18.2141 24.0196 18.2141 19.2857C18.2141 14.5519 14.3766 10.7143 9.64272 10.7143C4.90885 10.7143 1.07129 14.5519 1.07129 19.2857C1.07129 24.0196 4.90885 27.8572 9.64272 27.8572Z" stroke="white" stroke-width="1.5" stroke-linecap="round" stroke-linejoin="round"/>
<path d="M20.3566 27.8572C25.0905 27.8572 28.928 24.0196 28.928 19.2857C28.928 14.5519 25.0905 10.7143 20.3566 10.7143C15.6227 10.7143 11.7852 14.5519 11.7852 19.2857C11.7852 24.0196 15.6227 27.8572 20.3566 27.8572Z" stroke="white" stroke-width="1.5" stroke-linecap="round" stroke-linejoin="round"/>
<path d="M15.0001 19.2857C19.734 19.2857 23.5716 15.4482 23.5716 10.7143C23.5716 5.98041 19.734 2.14285 15.0001 2.14285C10.2663 2.14285 6.42871 5.98041 6.42871 10.7143C6.42871 15.4482 10.2663 19.2857 15.0001 19.2857Z" stroke="white" stroke-width="1.5" stroke-linecap="round" stroke-linejoin="round"/>
</svg>
