<svg width="20" height="21" viewBox="0 0 20 21" fill="none" xmlns="http://www.w3.org/2000/svg">
<path fill-rule="evenodd" clip-rule="evenodd" d="M4.70641 14.028C4.80559 14.3586 4.61798 14.7071 4.28736 14.8063C3.56584 15.0227 3.02748 15.268 2.68345 15.512C2.32318 15.7676 2.29199 15.9332 2.29199 15.9753C2.29199 16.0175 2.32318 16.1832 2.68345 16.4387C3.02748 16.6827 3.56584 16.928 4.28736 17.1445C5.72244 17.575 7.74244 17.8503 10.0003 17.8503C12.2582 17.8503 14.2782 17.575 15.7133 17.1445C16.4348 16.928 16.9732 16.6827 17.3172 16.4387C17.6775 16.1832 17.7087 16.0175 17.7087 15.9753C17.7087 15.9332 17.6775 15.7676 17.3172 15.5121C16.9732 15.268 16.4348 15.0227 15.7132 14.8063C15.3827 14.7071 15.1951 14.3586 15.2942 14.028C15.3934 13.6974 15.7418 13.5098 16.0725 13.6089C16.859 13.8449 17.541 14.1383 18.0403 14.4925C18.5235 14.8351 18.9587 15.3272 18.9587 15.9753C18.9587 16.6235 18.5235 17.1156 18.0403 17.4583C17.541 17.8124 16.859 18.1058 16.0725 18.3418C14.4915 18.8161 12.3448 19.1003 10.0003 19.1003C7.65583 19.1003 5.50917 18.8161 3.92818 18.3418C3.14166 18.1058 2.45963 17.8124 1.96028 17.4583C1.47718 17.1156 1.04199 16.6235 1.04199 15.9753C1.04199 15.3272 1.47718 14.8351 1.96028 14.4925C2.45963 14.1383 3.14166 13.8449 3.92818 13.6089C4.25879 13.5098 4.60722 13.6974 4.70641 14.028Z" fill="white"/>
<path fill-rule="evenodd" clip-rule="evenodd" d="M3.95898 7.5095C3.95898 4.23149 6.67863 1.60042 10.0007 1.60042C13.3227 1.60042 16.0423 4.23149 16.0423 7.5095C16.0423 9.81317 14.5347 11.8755 13.1577 13.2956C12.4552 14.02 11.7551 14.6097 11.2312 15.0179C10.9688 15.2225 10.7494 15.3825 10.5944 15.4922C10.5168 15.5471 10.4553 15.5894 10.4125 15.6185C10.3911 15.633 10.3743 15.6443 10.3626 15.6521L10.3487 15.6613L10.3447 15.6639L10.3433 15.6648C10.3432 15.6648 10.3426 15.6653 10.0007 15.1421C9.65873 15.6653 9.65857 15.6652 9.6584 15.6651L9.65665 15.6639L9.65265 15.6613L9.63873 15.6521C9.62698 15.6443 9.61023 15.633 9.58882 15.6185C9.54598 15.5894 9.48449 15.5471 9.4069 15.4922C9.2519 15.3825 9.03248 15.2225 8.77007 15.0179C8.24628 14.6097 7.54607 14.02 6.84362 13.2956C5.46665 11.8755 3.95898 9.81317 3.95898 7.5095ZM10.0007 15.1421L9.6584 15.6651C9.86615 15.8008 10.1348 15.801 10.3426 15.6653L10.0007 15.1421ZM10.0007 14.3799C10.1272 14.2882 10.2839 14.1715 10.4627 14.0321C10.9546 13.6487 11.6086 13.0976 12.2603 12.4254C13.5917 11.0523 14.7923 9.29842 14.7923 7.5095C14.7923 4.95088 12.6617 2.85042 10.0007 2.85042C7.33959 2.85042 5.20898 4.95088 5.20898 7.5095C5.20898 9.29842 6.40965 11.0523 7.74102 12.4254C8.39273 13.0976 9.04673 13.6487 9.53857 14.0321C9.7174 14.1715 9.87415 14.2882 10.0007 14.3799Z" fill="white"/>
<path fill-rule="evenodd" clip-rule="evenodd" d="M7.29199 7.64208C7.29199 6.14632 8.50458 4.93375 10.0003 4.93375C11.4961 4.93375 12.7087 6.14632 12.7087 7.64208C12.7087 9.13783 11.4961 10.3504 10.0003 10.3504C8.50458 10.3504 7.29199 9.13783 7.29199 7.64208ZM10.0003 6.18375C9.19491 6.18375 8.54199 6.83667 8.54199 7.64208C8.54199 8.44749 9.19491 9.10041 10.0003 9.10041C10.8057 9.10041 11.4587 8.44749 11.4587 7.64208C11.4587 6.83667 10.8057 6.18375 10.0003 6.18375Z" fill="white"/>
</svg>
