<svg width="30" height="30" viewBox="0 0 30 30" fill="none" xmlns="http://www.w3.org/2000/svg">
<path d="M14.722 20.3572C20.0476 20.3572 24.3648 16.0399 24.3648 10.7143C24.3648 5.3887 20.0476 1.07144 14.722 1.07144C9.39636 1.07144 5.0791 5.3887 5.0791 10.7143C5.0791 16.0399 9.39636 20.3572 14.722 20.3572Z" stroke="white" stroke-width="1.5" stroke-linecap="round" stroke-linejoin="round"/>
<path d="M14.7213 15C17.0882 15 19.007 13.0812 19.007 10.7143C19.007 8.34737 17.0882 6.42859 14.7213 6.42859C12.3543 6.42859 10.4355 8.34737 10.4355 10.7143C10.4355 13.0812 12.3543 15 14.7213 15Z" stroke="white" stroke-width="1.5" stroke-linecap="round" stroke-linejoin="round"/>
<path d="M12.8573 20.1857L10.9716 28.1143C10.9342 28.265 10.8652 28.406 10.7692 28.5279C10.6731 28.6498 10.5522 28.7499 10.4144 28.8215C10.269 28.8846 10.1122 28.9171 9.9537 28.9171C9.79519 28.9171 9.63838 28.8846 9.49298 28.8215L2.3787 25.7143C2.22947 25.6438 2.09816 25.5403 1.99463 25.4118C1.8911 25.2832 1.81803 25.1329 1.78092 24.972C1.7438 24.8112 1.7436 24.6441 1.78033 24.4831C1.81706 24.3222 1.88976 24.1717 1.99298 24.0429L7.50012 17.1429" stroke="white" stroke-width="1.5" stroke-linecap="round" stroke-linejoin="round"/>
<path d="M17.1426 20.0786L19.0711 28.1143C19.1095 28.2675 19.1813 28.4104 19.2813 28.5326C19.3813 28.6549 19.5071 28.7535 19.6497 28.8214C19.7911 28.8853 19.9445 28.9184 20.0997 28.9184C20.2549 28.9184 20.4083 28.8853 20.5497 28.8214L27.6211 25.7143C27.7726 25.6446 27.9057 25.5405 28.0099 25.4103C28.1141 25.2801 28.1864 25.1274 28.2211 24.9643C28.2618 24.8048 28.2635 24.6378 28.2262 24.4775C28.1889 24.3171 28.1137 24.1681 28.0069 24.0429L22.264 16.7357" stroke="white" stroke-width="1.5" stroke-linecap="round" stroke-linejoin="round"/>
</svg>
