<svg width="26" height="26" viewBox="0 0 26 26" fill="none" xmlns="http://www.w3.org/2000/svg">
<path d="M13.0001 20.9409C17.5883 20.9409 21.3078 17.2214 21.3078 12.6332C21.3078 8.04499 17.5883 4.3255 13.0001 4.3255C8.41187 4.3255 4.69238 8.04499 4.69238 12.6332C4.69238 17.2214 8.41187 20.9409 13.0001 20.9409Z" stroke="white" stroke-linecap="round" stroke-linejoin="round"/>
<path d="M12.9998 14.2501C13.8928 14.2501 14.6167 13.5262 14.6167 12.6331C14.6167 11.7401 13.8928 11.0162 12.9998 11.0162C12.1068 11.0162 11.3828 11.7401 11.3828 12.6331C11.3828 13.5262 12.1068 14.2501 12.9998 14.2501Z" stroke="white" stroke-linecap="round" stroke-linejoin="round"/>
<path d="M13 4.32549V0.633179" stroke="white" stroke-linecap="round" stroke-linejoin="round"/>
<path d="M13 24.6332V20.9409" stroke="white" stroke-linecap="round" stroke-linejoin="round"/>
<path d="M21.3076 12.6332H24.9999" stroke="white" stroke-linecap="round" stroke-linejoin="round"/>
<path d="M1 12.6332H4.69231" stroke="white" stroke-linecap="round" stroke-linejoin="round"/>
</svg>
