<svg width="25" height="25" viewBox="0 0 25 25" fill="none" xmlns="http://www.w3.org/2000/svg">
<g clip-path="url(#clip0_337_14)">
<path d="M23.2821 11.4846C23.5664 11.7996 23.7238 12.2089 23.7238 12.6332C23.7238 13.0575 23.5664 13.4668 23.2821 13.7818C21.4821 15.7189 17.385 19.4903 12.6021 19.4903C7.81928 19.4903 3.72214 15.7189 1.92214 13.7818C1.63784 13.4668 1.48047 13.0575 1.48047 12.6332C1.48047 12.2089 1.63784 11.7996 1.92214 11.4846C3.72214 9.54749 7.81928 5.77606 12.6021 5.77606C17.385 5.77606 21.4821 9.54749 23.2821 11.4846Z" stroke="white" stroke-linecap="round" stroke-linejoin="round"/>
<path d="M12.6024 16.0618C14.4959 16.0618 16.031 14.5268 16.031 12.6332C16.031 10.7397 14.4959 9.20465 12.6024 9.20465C10.7089 9.20465 9.17383 10.7397 9.17383 12.6332C9.17383 14.5268 10.7089 16.0618 12.6024 16.0618Z" stroke="white" stroke-linecap="round" stroke-linejoin="round"/>
</g>
<defs>
<clipPath id="clip0_337_14">
<rect width="24" height="24" fill="white" transform="translate(0.602539 0.633179)"/>
</clipPath>
</defs>
</svg>
