<svg width="58" height="59" viewBox="0 0 58 59" fill="none" xmlns="http://www.w3.org/2000/svg">
<path d="M11.3589 43.6031C8.94219 40.9448 7.49219 38.0448 7.49219 33.2114C7.49219 24.7531 13.5339 17.2614 21.9922 13.3948L24.1672 16.5364C16.1922 20.8864 14.5005 26.4448 14.0172 30.0698C15.2255 29.3448 16.9172 29.1031 18.6089 29.3448C22.9589 29.8281 26.3422 33.2114 26.3422 37.8031C26.3422 39.9781 25.3755 42.1531 23.9255 43.8448C22.2339 45.5364 20.3005 46.2614 17.8839 46.2614C15.2255 46.2614 12.8089 45.0531 11.3589 43.6031ZM35.5255 43.6031C33.1089 40.9448 31.6589 38.0448 31.6589 33.2114C31.6589 24.7531 37.7005 17.2614 46.1589 13.3948L48.3339 16.5364C40.3589 20.8864 38.6672 26.4448 38.1839 30.0698C39.3922 29.3448 41.0839 29.1031 42.7755 29.3448C47.1255 29.8281 50.5089 33.2114 50.5089 37.8031C50.5089 39.9781 49.5422 42.1531 48.0922 43.8448C46.6422 45.5364 44.4672 46.2614 42.0505 46.2614C39.3922 46.2614 36.9755 45.0531 35.5255 43.6031Z" fill="url(#paint0_linear_218_869)"/>
<defs>
<linearGradient id="paint0_linear_218_869" x1="50.489" y1="13.7581" x2="3.55681" y2="21.301" gradientUnits="userSpaceOnUse">
<stop stop-color="#73ED7C"/>
<stop offset="1" stop-color="#019297"/>
</linearGradient>
</defs>
</svg>
