<svg width="20" height="21" viewBox="0 0 20 21" fill="none" xmlns="http://www.w3.org/2000/svg">
<g clip-path="url(#clip0_203_2737)">
<path d="M15.8064 12.948C15.397 12.5217 14.9031 12.2938 14.3797 12.2938C13.8605 12.2938 13.3624 12.5175 12.936 12.9438L11.6022 14.2735C11.4924 14.2144 11.3827 14.1595 11.2771 14.1046C11.1252 14.0286 10.9816 13.9569 10.8592 13.8809C9.60978 13.0873 8.47429 12.0532 7.38524 10.7151C6.8576 10.0481 6.50302 9.4867 6.24553 8.91685C6.59166 8.60027 6.91247 8.27102 7.22483 7.95443C7.34303 7.83624 7.46122 7.71383 7.57941 7.59563C8.46585 6.7092 8.46585 5.56105 7.57941 4.67461L6.42704 3.52224C6.29618 3.39138 6.16111 3.25631 6.03447 3.12123C5.78121 2.85952 5.51527 2.58937 5.2409 2.3361C4.83145 1.93087 4.3418 1.71559 3.82682 1.71559C3.31184 1.71559 2.81375 1.93087 2.39163 2.3361C2.38741 2.34032 2.38741 2.34032 2.38319 2.34454L0.948004 3.79239C0.407699 4.3327 0.099556 4.99119 0.0320178 5.75522C-0.0692895 6.98779 0.293728 8.13594 0.572323 8.8873C1.25615 10.7319 2.27766 12.4415 3.80149 14.2735C5.65035 16.4811 7.87489 18.2245 10.416 19.4528C11.3869 19.9129 12.6828 20.4574 14.1306 20.5503C14.2193 20.5545 14.3121 20.5587 14.3965 20.5587C15.3716 20.5587 16.1905 20.2084 16.8321 19.5119C16.8364 19.5035 16.8448 19.4992 16.849 19.4908C17.0685 19.2249 17.3218 18.9843 17.5877 18.7268C17.7692 18.5537 17.955 18.3722 18.1365 18.1822C18.5544 17.7475 18.7739 17.2409 18.7739 16.7217C18.7739 16.1983 18.5501 15.696 18.1238 15.2739L15.8064 12.948ZM17.3176 17.3929C17.3134 17.3929 17.3134 17.3971 17.3176 17.3929C17.1529 17.5702 16.9841 17.7306 16.8026 17.9079C16.5282 18.1696 16.2496 18.444 15.9879 18.7521C15.5616 19.208 15.0593 19.4233 14.4008 19.4233C14.3375 19.4233 14.2699 19.4233 14.2066 19.419C12.9529 19.3388 11.7879 18.8492 10.9141 18.4313C8.52494 17.2747 6.42704 15.6327 4.68371 13.5517C3.2443 11.8168 2.28188 10.2127 1.64449 8.49052C1.25193 7.43945 1.10841 6.62055 1.17172 5.84808C1.21394 5.35421 1.40389 4.94476 1.75424 4.59441L3.19365 3.155C3.40048 2.96083 3.61998 2.8553 3.83526 2.8553C4.10119 2.8553 4.31647 3.0157 4.45155 3.15078C4.45577 3.155 4.45999 3.15922 4.46421 3.16344C4.7217 3.40405 4.96653 3.65309 5.22402 3.91903C5.35487 4.0541 5.48995 4.18918 5.62502 4.32848L6.77739 5.48085C7.22483 5.92829 7.22483 6.34196 6.77739 6.7894C6.65498 6.91181 6.53679 7.03422 6.41438 7.15242C6.0598 7.51543 5.72211 7.85312 5.35487 8.18237C5.34643 8.19082 5.33799 8.19504 5.33377 8.20348C4.97075 8.5665 5.03829 8.92107 5.11427 9.16168C5.11849 9.17434 5.12271 9.187 5.12693 9.19967C5.42663 9.9257 5.84874 10.6095 6.49036 11.4242L6.49458 11.4284C7.65961 12.8636 8.88796 13.9822 10.2429 14.8391C10.416 14.9489 10.5933 15.0375 10.7621 15.1219C10.9141 15.1979 11.0576 15.2697 11.18 15.3456C11.1969 15.3541 11.2138 15.3667 11.2307 15.3752C11.3742 15.4469 11.5093 15.4807 11.6486 15.4807C11.9989 15.4807 12.2184 15.2612 12.2902 15.1895L13.7338 13.7458C13.8773 13.6023 14.1053 13.4292 14.3712 13.4292C14.6329 13.4292 14.8482 13.5939 14.9791 13.7374C14.9833 13.7416 14.9833 13.7416 14.9875 13.7458L17.3134 16.0717C17.7481 16.5022 17.7481 16.9455 17.3176 17.3929Z" fill="white"/>
<path d="M10.8089 5.31623C11.9148 5.50196 12.9195 6.02538 13.7215 6.82739C14.5235 7.62941 15.0427 8.63404 15.2327 9.73998C15.2791 10.0186 15.5197 10.2127 15.7941 10.2127C15.8278 10.2127 15.8574 10.2085 15.8912 10.2043C16.2035 10.1537 16.4104 9.85817 16.3597 9.54581C16.1318 8.20771 15.4986 6.9878 14.5319 6.02116C13.5653 5.05452 12.3454 4.42135 11.0073 4.1934C10.6949 4.14275 10.4037 4.34959 10.3488 4.65773C10.2939 4.96587 10.4965 5.26557 10.8089 5.31623Z" fill="white"/>
<path d="M19.9766 9.38118C19.6009 7.17775 18.5625 5.17271 16.9669 3.57712C15.3714 1.98153 13.3663 0.94313 11.1629 0.567449C10.8547 0.512575 10.5635 0.723631 10.5086 1.03177C10.4579 1.34414 10.6648 1.6354 10.9771 1.69027C12.9442 2.02374 14.7382 2.95661 16.1649 4.37914C17.5917 5.80588 18.5203 7.59986 18.8538 9.56691C18.9002 9.84551 19.1408 10.0397 19.4152 10.0397C19.449 10.0397 19.4785 10.0355 19.5123 10.0312C19.8204 9.98481 20.0315 9.68933 19.9766 9.38118Z" fill="white"/>
</g>
<defs>
<clipPath id="clip0_203_2737">
<rect width="20" height="20" fill="white" transform="translate(0 0.558746)"/>
</clipPath>
</defs>
</svg>
