<svg width="31" height="31" viewBox="0 0 31 31" fill="none" xmlns="http://www.w3.org/2000/svg">
<g clip-path="url(#clip0_1251_55)">
<path d="M6.64509 29.8917C9.70238 29.8917 12.1808 27.4133 12.1808 24.356C12.1808 21.2987 9.70238 18.8203 6.64509 18.8203C3.5878 18.8203 1.10938 21.2987 1.10938 24.356C1.10938 27.4133 3.5878 29.8917 6.64509 29.8917Z" stroke="white" stroke-width="1.5" stroke-linecap="round" stroke-linejoin="round"/>
<path d="M12.1795 6.64546V3.32403C12.1795 2.73676 11.9462 2.17355 11.5309 1.75829C11.1157 1.34303 10.5524 1.10974 9.96518 1.10974H7.35232C6.83117 1.10026 6.32337 1.27494 5.91834 1.60302C5.5133 1.9311 5.23699 2.39155 5.13804 2.90331L1.21875 23.2526" stroke="white" stroke-width="1.5" stroke-linecap="round" stroke-linejoin="round"/>
<path d="M9.96875 12.1797H21.0402" stroke="white" stroke-width="1.5" stroke-linecap="round" stroke-linejoin="round"/>
<path d="M12.1797 17.7188V24.3616" stroke="white" stroke-width="1.5" stroke-linecap="round" stroke-linejoin="round"/>
<path d="M24.356 29.8917C27.4133 29.8917 29.8917 27.4133 29.8917 24.356C29.8917 21.2987 27.4133 18.8203 24.356 18.8203C21.2987 18.8203 18.8203 21.2987 18.8203 24.356C18.8203 27.4133 21.2987 29.8917 24.356 29.8917Z" stroke="white" stroke-width="1.5" stroke-linecap="round" stroke-linejoin="round"/>
<path d="M18.8203 6.64546V3.32403C18.8203 2.73676 19.0536 2.17355 19.4689 1.75829C19.8841 1.34303 20.4473 1.10974 21.0346 1.10974H23.6475C24.1686 1.10026 24.6764 1.27494 25.0814 1.60302C25.4865 1.9311 25.7628 2.39155 25.8617 2.90331L29.8253 23.2526" stroke="white" stroke-width="1.5" stroke-linecap="round" stroke-linejoin="round"/>
<path d="M18.8203 17.7188V24.3616" stroke="white" stroke-width="1.5" stroke-linecap="round" stroke-linejoin="round"/>
</g>
<defs>
<clipPath id="clip0_1251_55">
<rect width="31" height="31" fill="white"/>
</clipPath>
</defs>
</svg>
