<svg width="36" height="51" viewBox="0 0 36 51" fill="none" xmlns="http://www.w3.org/2000/svg">
<g clip-path="url(#clip0_1262_134)">
<path d="M18.2036 0.54816C18.2793 0.589643 18.3551 0.631126 18.4331 0.673866C18.4921 0.703452 18.5511 0.733038 18.6118 0.763521C18.6956 0.81006 18.6956 0.81006 18.7811 0.85754C18.8464 0.893692 18.9116 0.929845 18.9788 0.967094C19.0844 1.02632 19.0844 1.02632 19.1921 1.08675C19.3058 1.1502 19.3058 1.1502 19.4217 1.21494C20.2531 1.68154 21.0752 2.16393 21.8979 2.64569C22.5185 3.00898 23.1411 3.36891 23.7642 3.728C23.8691 3.78845 23.974 3.84889 24.082 3.91117C24.2948 4.03379 24.5076 4.15639 24.7204 4.27897C25.2478 4.58285 25.775 4.8871 26.3022 5.19131C26.5127 5.31275 26.7232 5.43419 26.9337 5.55562C28.1967 6.28424 29.4596 7.01286 30.7225 7.74148C30.8269 7.80169 30.9313 7.8619 31.0388 7.92392C31.2476 8.04441 31.4564 8.1649 31.6653 8.28539C32.1577 8.56954 32.6503 8.85363 33.1429 9.13753C33.3751 9.2714 33.6074 9.4053 33.8397 9.5392C34.0033 9.63351 34.1669 9.72778 34.3305 9.82204C34.4299 9.87933 34.5293 9.93663 34.6317 9.99566C34.7189 10.046 34.8061 10.0962 34.8959 10.148C34.9774 10.1954 35.0589 10.2428 35.1428 10.2917C35.2269 10.3324 35.3109 10.3731 35.3974 10.4151C35.6286 10.5832 35.6286 10.5832 35.6889 10.8106C35.6887 10.9011 35.6886 10.9916 35.6884 11.0848C35.6893 11.1893 35.6903 11.2937 35.6913 11.4014C35.6899 11.5166 35.6885 11.6318 35.687 11.7505C35.6874 11.8725 35.6878 11.9946 35.6883 12.1203C35.6894 12.4597 35.6874 12.7991 35.685 13.1385C35.6829 13.5042 35.6836 13.87 35.684 14.2357C35.6842 14.8696 35.6827 15.5035 35.68 16.1374C35.676 17.0539 35.6747 17.9704 35.6741 18.887C35.6731 20.3739 35.6698 21.8608 35.6652 23.3477C35.6608 24.7923 35.6573 26.2369 35.6553 27.6815C35.6551 27.7705 35.655 27.8595 35.6549 27.9512C35.6543 28.3977 35.6536 28.8443 35.653 29.2908C35.648 32.9965 35.6394 36.7023 35.6286 40.408C35.5529 40.4513 35.4771 40.4945 35.3991 40.5391C35.1116 40.7033 34.824 40.8675 34.5364 41.0318C34.4132 41.1022 34.29 41.1725 34.1668 41.2429C33.0078 41.9047 31.8515 42.5709 30.696 43.2387C30.3791 43.4216 30.0621 43.6044 29.745 43.787C28.7293 44.3722 27.7148 44.959 26.703 45.5509C25.86 46.0439 25.0134 46.5306 24.165 47.0142C23.3126 47.5 22.4621 47.9889 21.6148 48.4836C21.5214 48.5378 21.428 48.592 21.3317 48.6479C20.8276 48.9413 20.3274 49.24 19.8304 49.5454C19.6717 49.6416 19.6717 49.6416 19.5098 49.7396C19.3066 49.8629 19.1044 49.9877 18.9032 50.1143C18.2317 50.5187 18.2317 50.5187 17.8495 50.4884C17.7536 50.432 17.6576 50.3755 17.5588 50.3173C17.4856 50.2769 17.4124 50.2365 17.3369 50.1949C17.0596 50.0403 16.7871 49.8788 16.5144 49.7162C16.3042 49.5921 16.094 49.4682 15.8837 49.3443C15.7753 49.2802 15.6669 49.2162 15.5552 49.1502C15.0308 48.8417 14.5037 48.5381 13.9764 48.2346C13.7641 48.1123 13.5519 47.99 13.3396 47.8677C13.2342 47.8069 13.1288 47.7462 13.0202 47.6837C12.4928 47.3798 11.9656 47.0755 11.4384 46.7713C11.2279 46.6499 11.0174 46.5284 10.8069 46.407C10.1754 46.0427 10.1754 46.0427 9.54394 45.6784C9.43973 45.6183 9.33552 45.5582 9.22815 45.4962C9.01782 45.3749 8.80749 45.2535 8.59716 45.1321C8.06861 44.8272 7.53999 44.5223 7.01122 44.2177C5.79771 43.5185 4.58599 42.8164 3.37684 42.1097C2.96202 41.8672 2.54681 41.6255 2.13136 41.3841C1.96955 41.29 1.96955 41.29 1.80448 41.194C1.59617 41.0729 1.3878 40.9518 1.17936 40.831C1.08652 40.7769 0.993673 40.7229 0.898016 40.6672C0.815684 40.6194 0.733352 40.5716 0.648525 40.5223C0.460464 40.408 0.460464 40.408 0.363315 40.3109C0.353096 40.1535 0.349687 39.9956 0.348918 39.8378C0.348185 39.7348 0.347453 39.6317 0.346698 39.5255C0.346385 39.4109 0.346071 39.2963 0.345748 39.1782C0.345048 39.0576 0.344348 38.9369 0.343627 38.8126C0.341793 38.4761 0.340407 38.1396 0.339221 37.8031C0.338129 37.5149 0.336677 37.2266 0.335226 36.9384C0.32152 34.2066 0.315173 31.4748 0.310033 28.7431C0.309352 28.3874 0.30866 28.0317 0.307956 27.676C0.307782 27.5876 0.307607 27.4992 0.307427 27.4081C0.304506 25.9759 0.298215 24.5436 0.290598 23.1114C0.282847 21.6418 0.278395 20.1723 0.277098 18.7028C0.27628 17.8773 0.273966 17.0519 0.267901 16.2264C0.262738 15.5234 0.260519 14.8205 0.262179 14.1174C0.262933 13.7586 0.262263 13.3999 0.257781 13.0412C0.25296 12.6522 0.254904 12.2636 0.257517 11.8746C0.255036 11.7611 0.252555 11.6476 0.25 11.5306C0.262896 10.7836 0.262897 10.7836 0.554632 10.4836C0.776706 10.3332 0.995634 10.2122 1.23766 10.0974C1.33534 10.0395 1.43302 9.98146 1.53366 9.92175C1.62032 9.87401 1.70698 9.82626 1.79627 9.77707C1.89451 9.7226 1.99274 9.66813 2.09396 9.61201C2.24716 9.52766 2.24716 9.52766 2.40345 9.4416C3.10185 9.0538 3.79914 8.66538 4.48609 8.25759C5.16325 7.85581 5.844 7.46061 6.52623 7.06751C6.6338 7.00553 6.74136 6.94355 6.85219 6.87969C7.07278 6.75261 7.29339 6.62555 7.514 6.49851C8.04509 6.1926 8.57592 5.88624 9.10676 5.57991C9.7404 5.21427 10.3741 4.84872 11.008 4.48356C11.9279 3.95351 12.8476 3.4231 13.7639 2.88688C14.0484 2.7206 14.3332 2.55505 14.6181 2.38954C15.0043 2.16498 15.3888 1.93792 15.7723 1.70874C16.0209 1.56057 16.2704 1.41388 16.52 1.26743C16.641 1.19604 16.7615 1.12401 16.8817 1.05134C17.0491 0.950203 17.218 0.851446 17.3869 0.7528C17.4835 0.695319 17.58 0.637838 17.6795 0.578614C17.9474 0.479567 17.9474 0.479567 18.2036 0.54816ZM17.2734 4.27446C16.5477 4.7045 15.8185 5.12845 15.0876 5.54955C14.9802 5.61142 14.8728 5.67329 14.7622 5.73704C14.5414 5.86423 14.3206 5.9914 14.0998 6.11855C13.5687 6.42446 13.0379 6.73082 12.507 7.03715C12.2965 7.15859 12.086 7.28003 11.8756 7.40146C11.7714 7.46157 11.6672 7.52168 11.5598 7.58362C10.6126 8.13008 10.6126 8.13008 10.2968 8.31226C10.0865 8.43361 9.87613 8.55497 9.6658 8.67633C9.13725 8.98131 8.60863 9.28615 8.07986 9.59074C7.01816 10.2025 5.95743 10.8159 4.89898 11.4332C4.7529 11.5184 4.7529 11.5184 4.60388 11.6053C4.23204 11.8225 4.23204 11.8225 3.86069 12.0404C3.77703 12.0772 3.69336 12.1141 3.60715 12.152C3.34398 12.3152 3.34398 12.3152 3.31518 12.6332C3.31563 12.7583 3.31607 12.8834 3.31653 13.0123C3.31612 13.082 3.3157 13.1517 3.31528 13.2235C3.31448 13.4576 3.31715 13.6915 3.3198 13.9256C3.31994 14.0931 3.31986 14.2607 3.31959 14.4282C3.31945 14.8836 3.32231 15.339 3.3257 15.7944C3.32873 16.2701 3.32902 16.7459 3.32959 17.2216C3.33111 18.1227 3.33509 19.0238 3.33996 19.9249C3.34539 20.9506 3.34806 21.9764 3.3505 23.0021C3.35558 25.1124 3.36413 27.2227 3.37495 29.333C3.44485 29.3733 3.51475 29.4137 3.58677 29.4552C5.41058 30.5074 7.23438 31.5596 9.05819 32.6118C9.1624 32.6719 9.26661 32.732 9.37397 32.794C9.58431 32.9153 9.79464 33.0367 10.005 33.158C10.5335 33.463 11.0622 33.7679 11.5909 34.0725C12.5223 34.6091 13.4534 35.1463 14.3813 35.6888C14.6695 35.8572 14.958 36.0249 15.2466 36.1927C15.6292 36.4153 16.0095 36.6414 16.3888 36.8697C16.5724 36.9785 16.7559 37.0873 16.9395 37.196C17.0229 37.2472 17.1064 37.2984 17.1923 37.3511C17.2704 37.397 17.3485 37.4429 17.429 37.4901C17.4966 37.5308 17.5642 37.5715 17.6338 37.6134C18.012 37.7434 18.3204 37.6437 18.6733 37.4779C18.7518 37.4307 18.8304 37.3836 18.9113 37.3349C19.0017 37.2813 19.092 37.2278 19.1851 37.1726C19.2816 37.1142 19.3781 37.0558 19.4775 36.9957C19.6862 36.8716 19.8949 36.7477 20.1037 36.6238C20.2119 36.5592 20.3201 36.4946 20.4316 36.4281C20.981 36.1023 21.5347 35.7841 22.0884 35.4656C22.2382 35.3791 22.2382 35.3791 22.3911 35.2909C23.1432 34.8573 23.897 34.4269 24.6507 33.9962C24.6507 32.0406 24.6507 30.0849 24.6507 28.0701C23.8824 28.4542 23.1404 28.8418 22.4041 29.2784C22.2019 29.3973 21.9996 29.5162 21.7973 29.6351C21.6929 29.6965 21.5885 29.7579 21.4809 29.8212C20.914 30.1532 20.3445 30.4808 19.775 30.8085C19.5651 30.9292 19.3553 31.05 19.1454 31.1709C19.057 31.2217 18.9686 31.2726 18.8775 31.325C18.6234 31.4665 18.6234 31.4665 18.3886 31.6469C18.1417 31.7617 18.1417 31.7617 17.8529 31.7009C17.5688 31.572 17.3006 31.4349 17.0313 31.2775C16.9313 31.2194 16.8312 31.1613 16.7281 31.1014C16.6216 31.0388 16.515 30.9762 16.4051 30.9117C16.2921 30.8458 16.179 30.7799 16.0658 30.7141C15.7764 30.5456 15.4874 30.3765 15.1985 30.2072C14.759 29.9497 14.3191 29.6931 13.8793 29.4362C13.7389 29.3542 13.7389 29.3542 13.5957 29.2704C12.3959 28.57 11.1881 27.8836 9.98111 27.1957C9.53228 26.9392 9.08345 26.6828 8.62102 26.4185C8.62102 22.7317 8.62102 19.0449 8.62102 15.2463C9.19809 14.9257 9.77515 14.6051 10.3697 14.2748C10.7431 14.0597 11.1156 13.8438 11.487 13.6251C11.6865 13.5082 11.8862 13.3913 12.0858 13.2745C12.1869 13.2153 12.288 13.1562 12.3921 13.0952C13.0151 12.7316 13.6401 12.3717 14.2653 12.012C14.763 11.7255 15.2605 11.4385 15.7565 11.1489C15.9893 11.013 16.2224 10.8775 16.4554 10.7419C16.6202 10.6459 16.7848 10.5494 16.9493 10.4528C17.049 10.3949 17.1487 10.337 17.2514 10.2773C17.3391 10.226 17.4268 10.1748 17.5172 10.1219C17.9106 9.91897 17.9106 9.91897 18.1417 9.90306C18.3985 10.0132 18.3985 10.0132 18.6927 10.1858C18.8022 10.2493 18.9116 10.3127 19.0244 10.3781C19.1431 10.4484 19.2617 10.5188 19.3803 10.5892C19.5034 10.6611 19.6264 10.7328 19.7495 10.8044C20.0622 10.9865 20.374 11.17 20.6857 11.3538C20.9471 11.5077 21.2092 11.6602 21.4713 11.8127C21.8519 12.0341 22.2321 12.256 22.6121 12.4783C23.5391 13.0201 24.4701 13.5552 25.4005 14.0911C25.9279 14.395 26.4551 14.6992 26.9823 15.0035C27.6217 15.3724 28.2611 15.7413 28.9006 16.11C29.0625 16.2034 29.0625 16.2034 29.2276 16.2986C29.4405 16.4214 29.6534 16.5442 29.8664 16.667C30.357 16.9499 30.8472 17.2333 31.3366 17.5183C31.423 17.5686 31.5095 17.619 31.5986 17.6708C31.7594 17.7644 31.9201 17.8582 32.0807 17.9522C32.3801 18.1619 32.3801 18.1619 32.7141 18.258C32.7141 16.3023 32.7141 14.3467 32.7141 12.3318C32.3174 12.1054 31.9206 11.879 31.5119 11.6457C30.2661 10.9342 29.0228 10.2186 27.7806 9.50075C27.2556 9.19744 26.7303 8.89451 26.2051 8.59154C25.9946 8.47011 25.7841 8.34867 25.5736 8.22723C25.4694 8.16712 25.3652 8.10701 25.2579 8.04508C24.9422 7.86292 24.6264 7.68077 24.3107 7.49861C24.2064 7.43847 24.1022 7.37833 23.9948 7.31636C23.7848 7.19524 23.5749 7.07412 23.365 6.953C22.8303 6.64453 22.2956 6.33609 21.7609 6.02771C21.653 5.96548 21.5451 5.90324 21.4339 5.83912C21.221 5.71632 21.0081 5.59354 20.7951 5.47078C20.3045 5.18788 19.8143 4.90444 19.3249 4.61942C19.2385 4.56911 19.152 4.5188 19.0629 4.46696C18.9021 4.37334 18.7414 4.27956 18.5808 4.18557C17.9476 3.81708 17.878 3.91365 17.2734 4.27446ZM17.5167 13.4525C17.4248 13.5064 17.3328 13.5602 17.2382 13.6158C17.1376 13.675 17.037 13.7342 16.9334 13.7952C16.7199 13.9203 16.5064 14.0454 16.2928 14.1705C16.2374 14.2029 16.182 14.2354 16.125 14.2688C15.4239 14.6792 14.7195 15.0841 14.0151 15.4888C13.8167 15.6031 13.62 15.7204 13.425 15.8405C13.159 15.9858 12.9331 16.0813 12.6499 16.1774C12.161 16.3643 11.7424 16.5538 11.4384 16.995C11.1783 17.8951 11.2753 18.8829 11.325 19.8088C11.342 20.1597 11.3494 20.5108 11.3577 20.862C11.3754 21.5489 11.4035 22.2349 11.4384 22.9211C12.3011 22.4666 13.1549 22.0025 13.9946 21.5064C14.1941 21.3895 14.3936 21.2726 14.5931 21.1557C14.6957 21.0956 14.7982 21.0354 14.9039 20.9734C15.4165 20.6728 15.9294 20.3727 16.4432 20.0743C16.6088 19.9779 16.774 19.8811 16.9392 19.7842C17.0904 19.6965 17.0904 19.6965 17.2446 19.607C17.3335 19.5552 17.4225 19.5033 17.5141 19.4498C17.9105 19.2454 17.9105 19.2454 18.1417 19.2295C18.3954 19.338 18.3954 19.338 18.6859 19.5088C18.7943 19.5717 18.9028 19.6346 19.0146 19.6995C19.1325 19.7695 19.2503 19.8395 19.3682 19.9095C19.4907 19.9811 19.6133 20.0525 19.7359 20.1239C19.9885 20.2711 20.2407 20.4188 20.4926 20.5671C20.936 20.8278 21.3818 21.0843 21.8277 21.3407C22.1384 21.5193 22.4487 21.6986 22.7589 21.8779C23.191 22.1276 23.6234 22.3768 24.056 22.6255C24.2765 22.7524 24.497 22.8792 24.7175 23.0061C24.8228 23.0667 24.928 23.1273 25.0365 23.1897C25.6843 23.5633 26.3492 23.8882 26.9847 24.2826C27.2453 24.4462 27.2604 24.4506 27.4682 24.572C27.4682 28.2589 27.5652 31.9463 27.5652 35.7449C27.3247 35.841 27.3247 35.841 27.0794 35.9392C26.9124 36.026 26.7469 36.1158 26.5827 36.2078C26.4867 36.2616 26.3907 36.3153 26.2918 36.3706C26.1891 36.4286 26.0863 36.4866 25.9804 36.5463C25.8727 36.6069 25.765 36.6675 25.6541 36.7299C24.7354 37.248 23.824 37.7779 22.9142 38.3114C22.1763 38.7437 21.4354 39.1709 20.6931 39.5957C20.2198 39.8672 19.7495 40.141 19.2874 40.4312C19.2119 40.478 19.1363 40.5248 19.0585 40.573C18.9218 40.6583 18.786 40.7452 18.6516 40.8339C18.3734 41.0063 18.2008 41.0959 17.8715 41.0524C17.4078 40.8172 16.9608 40.559 16.5144 40.2927C16.3042 40.1686 16.094 40.0447 15.8837 39.9208C15.7211 39.8247 15.7211 39.8247 15.5552 39.7267C15.0308 39.4182 14.5037 39.1146 13.9764 38.8111C13.7641 38.6888 13.5519 38.5665 13.3396 38.4442C13.2342 38.3835 13.1288 38.3227 13.0202 38.2602C12.4928 37.9563 11.9656 37.652 11.4384 37.3478C11.2279 37.2264 11.0174 37.105 10.8069 36.9835C10.1754 36.6192 10.1754 36.6192 9.54394 36.2549C9.43967 36.1947 9.33541 36.1346 9.22799 36.0726C9.0182 35.9516 8.80842 35.8305 8.59865 35.7095C8.06166 35.3996 7.52457 35.09 6.98731 34.7806C6.76885 34.6547 6.55039 34.5289 6.33193 34.403C6.1749 34.3125 6.1749 34.3125 6.0147 34.2202C5.32014 33.8196 4.62776 33.4154 3.93923 33.0044C3.67391 32.8165 3.67391 32.8165 3.37495 32.7332C3.37495 34.6888 3.37495 36.6445 3.37495 38.6593C4.20849 39.1402 5.04203 39.6211 5.90083 40.1166C7.79525 41.2095 9.68966 42.3025 11.5841 43.3954C11.6884 43.4555 11.7926 43.5157 11.9 43.5776C12.1099 43.6988 12.3199 43.8199 12.5298 43.941C13.0645 44.2495 13.5992 44.5579 14.1339 44.8663C14.2418 44.9285 14.3496 44.9908 14.4607 45.0549C14.674 45.1778 14.8873 45.3005 15.1007 45.423C15.588 45.703 16.0729 45.9855 16.5528 46.278C16.6371 46.3287 16.7213 46.3795 16.8082 46.4318C16.9634 46.5255 17.1178 46.6205 17.2713 46.717C17.584 46.9045 17.7782 47.0133 18.1478 47.018C18.5057 46.8914 18.8168 46.7158 19.1375 46.5163C19.2848 46.4272 19.4321 46.3383 19.5796 46.2495C19.6601 46.2008 19.7405 46.1521 19.8235 46.102C20.3097 45.8109 20.8017 45.5297 21.293 45.2473C21.5114 45.1214 21.7299 44.9956 21.9484 44.8697C22.058 44.8065 22.1677 44.7434 22.2807 44.6783C22.8118 44.3724 23.3427 44.066 23.8735 43.7597C24.084 43.6383 24.2945 43.5168 24.505 43.3954C24.6092 43.3353 24.7134 43.2752 24.8207 43.2132C25.7679 42.6668 25.7679 42.6668 26.0837 42.4846C26.294 42.3632 26.5044 42.2419 26.7147 42.1205C27.2433 41.8155 27.7719 41.5107 28.3006 41.2061C29.4699 40.5324 30.6376 39.8562 31.8022 39.1745C31.8938 39.121 31.9853 39.0674 32.0796 39.0123C32.1602 38.9651 32.2408 38.9179 32.3238 38.8693C32.4519 38.7956 32.582 38.7254 32.7141 38.6593C32.7141 33.049 32.7141 27.4386 32.7141 21.6582C31.8164 21.1452 30.9188 20.6323 29.9939 20.1038C28.6695 19.3417 27.3471 18.5766 26.0282 17.8052C25.2228 17.335 24.4133 16.8722 23.6031 16.4105C22.8021 15.954 22.0037 15.4934 21.208 15.0277C20.4486 14.5836 19.6881 14.1417 18.925 13.7041C18.8374 13.6537 18.7499 13.6033 18.6597 13.5514C18.5801 13.5059 18.5004 13.4603 18.4183 13.4134C18.3132 13.3531 18.3132 13.3531 18.2059 13.2916C17.9126 13.1363 17.7934 13.2897 17.5167 13.4525ZM17.7404 22.6232C17.6603 22.6715 17.5802 22.7197 17.4977 22.7693C17.4063 22.8236 17.3149 22.8779 17.2207 22.9338C17.1219 22.9937 17.0231 23.0537 16.9213 23.1154C16.7115 23.2405 16.5016 23.3655 16.2917 23.4904C16.1818 23.5561 16.0719 23.6217 15.9587 23.6894C15.6101 23.8969 15.2587 24.0995 14.9065 24.301C14.8488 24.334 14.791 24.3671 14.7316 24.4012C14.4502 24.5622 14.1687 24.723 13.887 24.8835C13.7348 24.9708 13.7348 24.9708 13.5795 25.0599C13.4895 25.1113 13.3995 25.1627 13.3068 25.2156C13.081 25.3439 13.081 25.3439 12.8956 25.5442C12.957 25.5782 13.0184 25.6123 13.0816 25.6474C14.3678 26.3626 15.6473 27.0863 16.9158 27.8325C17.0074 27.8864 17.099 27.9402 17.1933 27.9957C17.2735 28.043 17.3537 28.0903 17.4363 28.139C17.5088 28.1804 17.5813 28.2217 17.6559 28.2644C17.7204 28.3063 17.7849 28.3482 17.8514 28.3914C18.0476 28.4819 18.0476 28.4819 18.2568 28.3864C18.3719 28.3185 18.3719 28.3185 18.4893 28.2492C18.6208 28.1732 18.6208 28.1732 18.755 28.0956C18.8492 28.0391 18.9433 27.9826 19.0403 27.9243C19.1379 27.8674 19.2354 27.8104 19.3359 27.7517C19.5435 27.6303 19.7508 27.5082 19.9576 27.3855C20.2797 27.1953 20.6035 27.0082 20.9279 26.8219C21.1367 26.7017 21.3454 26.5814 21.5541 26.461C21.6524 26.4044 21.7507 26.3478 21.8521 26.2895C22.2917 26.0335 22.7122 25.7841 23.0963 25.447C22.3196 24.9928 21.5424 24.5395 20.7647 24.0869C20.7065 24.053 20.6483 24.0191 20.5883 23.9842C20.2397 23.7813 19.8909 23.5787 19.5419 23.3766C19.376 23.2804 19.2103 23.184 19.0445 23.0875C18.8927 22.9997 18.8927 22.9997 18.7379 22.9101C18.6484 22.8582 18.559 22.8064 18.4668 22.7529C18.1154 22.5475 18.1154 22.5475 17.7404 22.6232Z" fill="url(#paint0_linear_1262_134)"/>
</g>
<defs>
<linearGradient id="paint0_linear_1262_134" x1="35.6749" y1="1.05269" x2="-3.69288" y2="4.47932" gradientUnits="userSpaceOnUse">
<stop stop-color="white"/>
<stop offset="1" stop-color="white"/>
</linearGradient>
<clipPath id="clip0_1262_134">
<rect width="36" height="51" fill="white"/>
</clipPath>
</defs>
</svg>
