<?xml version="1.0" encoding="UTF-8"?> <svg xmlns="http://www.w3.org/2000/svg" id="Calque_1" viewBox="0 0 145 72"><defs><style>.cls-1{fill:#f26724;}.cls-2{fill:#fff;}.cls-3{fill:#12100b;}</style></defs><g transform="matrix(1.154275, 0, 0, 1.154275, -1.154293, -2.310389)"><path class="cls-2" d="M 33.17 43.2 C 27.51 43.2 22.91 38.67 22.91 33.11 C 22.91 27.55 27.44 23.01 33.01 23.01 L 94.59 23.01 C 100.16 23.01 104.69 27.54 104.69 33.11 C 104.69 38.68 100.23 43.2 94.74 43.2"></path><path class="cls-1" d="M 32.17 64.11 C 15.12 64.11 1.24 50.24 1.24 33.2 C 1.24 16.16 15.11 2.27 32.17 2.27 L 95.43 2.27 C 112.48 2.27 126.36 16.14 126.36 33.2 C 126.36 50.26 112.49 64.11 95.43 64.11 M 33.01 23 C 27.44 23 22.91 27.53 22.91 33.1 C 22.91 38.67 27.51 43.19 33.17 43.19 L 94.75 43.19 C 100.23 43.19 104.69 38.66 104.69 33.1 C 104.69 27.54 100.16 23 94.59 23"></path><path class="cls-3" d="M 33.7 35.81 L 32.43 35.81 L 32.43 34.04 L 33.7 34.04 C 34.38 34.04 34.72 34.32 34.72 34.91 C 34.72 35.5 34.38 35.81 33.7 35.81 M 45.36 33.11 C 45.36 34.59 44.42 35.84 42.84 35.84 C 41.26 35.84 40.32 34.59 40.32 33.11 C 40.32 31.63 41.26 30.38 42.84 30.38 C 44.42 30.38 45.36 31.63 45.36 33.11 M 32.43 30.35 L 33.45 30.35 C 34.04 30.35 34.33 30.6 34.33 31.13 C 34.33 31.68 34.03 31.96 33.45 31.96 L 32.43 31.96 M 79.49 38.25 C 82.02 38.25 83.31 36.85 83.31 34.22 L 83.31 28.17 L 80.8 28.17 L 80.8 34.45 C 80.8 35.45 80.31 36.02 79.48 36.02 C 78.65 36.02 78.16 35.45 78.16 34.45 L 78.16 28.17 L 75.65 28.17 L 75.65 34.22 C 75.65 36.86 76.94 38.25 79.48 38.25 M 65.58 28.16 L 62.84 28.16 L 61.23 31.85 L 59.62 28.16 L 56.9 28.16 L 59.99 34.67 L 59.99 38.05 L 62.5 38.05 L 62.5 34.67 M 52.57 38.24 C 55.1 38.24 56.4 36.84 56.4 34.21 L 56.4 28.16 L 53.89 28.16 L 53.89 34.44 C 53.89 35.44 53.4 36.01 52.57 36.01 C 51.74 36.01 51.25 35.44 51.25 34.44 L 51.25 28.16 L 48.74 28.16 L 48.74 34.21 C 48.74 36.85 50.03 38.24 52.56 38.24 M 84.24 38.04 L 90.24 38.04 L 90.24 35.8 L 86.68 35.8 L 86.68 34.11 L 89.92 34.11 L 89.92 31.93 L 86.68 31.93 L 86.68 30.39 L 90.14 30.39 L 90.14 28.15 L 84.24 28.15 M 37.26 35.03 C 37.26 34.09 36.72 33.21 35.69 32.8 C 36.51 32.35 36.89 31.65 36.89 30.73 C 36.89 29.21 35.84 28.15 34.08 28.15 L 29.91 28.15 L 29.91 38.04 L 33.63 38.04 C 36.16 38.04 37.26 36.75 37.26 35.03 M 74.83 33.09 L 74.83 32.48 L 69.56 32.48 L 69.56 34.58 L 72.03 34.58 C 71.81 35.48 70.84 35.94 69.75 35.94 C 68.14 35.94 67.18 34.65 67.18 33.12 C 67.18 31.59 68.14 30.31 69.75 30.31 C 70.71 30.31 71.44 30.76 71.87 31.44 L 74.59 31.44 C 74 29.49 72.29 27.94 69.75 27.94 C 66.52 27.94 64.66 30.42 64.66 33.08 C 64.66 35.74 66.52 38.22 69.75 38.22 C 72.98 38.22 74.84 35.87 74.84 33.08 M 97.56 31.06 C 97.51 29.29 96.39 27.93 94.25 27.93 C 92.11 27.93 90.94 29.25 90.94 30.91 C 90.94 34.65 95.12 33.65 95.12 35.33 C 95.12 35.8 94.86 36.08 94.26 36.08 C 93.66 36.08 93.23 35.68 93.27 34.97 L 90.84 34.97 C 90.84 36.84 91.87 38.21 94.2 38.21 C 96.53 38.21 97.55 36.75 97.55 35.28 C 97.55 31.51 93.37 32.47 93.37 30.8 C 93.37 30.34 93.66 30.06 94.15 30.06 C 94.64 30.06 95.05 30.39 95.05 31.05 M 37.73 33.07 C 37.73 35.73 39.59 38.21 42.82 38.21 C 46.05 38.21 47.91 35.73 47.91 33.07 C 47.91 30.41 46.05 27.93 42.82 27.93 C 39.59 27.93 37.73 30.41 37.73 33.07 M 94.57 23.22 C 100 23.22 104.42 27.64 104.42 33.07 C 104.42 38.5 100.07 42.91 94.73 42.91 L 33.17 42.91 C 27.64 42.91 23.16 38.49 23.16 33.07 C 23.16 27.65 27.58 23.22 33.01 23.22 M 104.94 33.07 C 104.94 27.36 100.3 22.72 94.59 22.72 L 33.01 22.72 C 27.3 22.72 22.66 27.36 22.66 33.07 C 22.66 38.78 27.38 43.41 33.17 43.41 L 94.75 43.41 C 100.37 43.41 104.94 38.77 104.94 33.07 M 95.43 2.52 C 112.35 2.52 126.11 16.28 126.11 33.2 C 126.11 50.12 112.35 63.86 95.43 63.86 L 32.17 63.86 C 15.24 63.86 1.49 50.1 1.49 33.2 C 1.49 16.3 15.24 2.52 32.17 2.52 M 126.61 33.2 C 126.61 16.02 112.62 2.02 95.43 2.02 L 32.17 2.02 C 14.98 2.02 1 16.01 1 33.2 C 1 50.39 14.98 64.36 32.17 64.36 L 95.44 64.36 C 112.62 64.36 126.62 50.38 126.62 33.2"></path></g></svg> 