<svg width="134" height="51" viewBox="0 0 134 51" fill="none" xmlns="http://www.w3.org/2000/svg">
<path d="M18.206 0.241031C18.2817 0.282514 18.3575 0.323997 18.4356 0.366737C18.4945 0.396323 18.5535 0.425909 18.6142 0.456391C18.698 0.50293 18.698 0.50293 18.7835 0.55041C18.8488 0.586563 18.914 0.622715 18.9813 0.659964C19.0868 0.719194 19.0868 0.719194 19.1945 0.779622C19.3082 0.843079 19.3082 0.843079 19.4241 0.907818C20.2555 1.37441 21.0776 1.85681 21.9003 2.33857C22.521 2.70185 23.1435 3.06178 23.7666 3.42087C23.8715 3.48132 23.9764 3.54177 24.0845 3.60405C24.2972 3.72666 24.51 3.84926 24.7228 3.97184C25.2503 4.27572 25.7774 4.57997 26.3047 4.88419C26.5151 5.00562 26.7256 5.12706 26.9361 5.2485C28.1991 5.97712 29.462 6.70574 30.725 7.43436C30.8293 7.49456 30.9337 7.55477 31.0412 7.6168C31.25 7.73728 31.4589 7.85777 31.6677 7.97826C32.1602 8.26241 32.6527 8.54651 33.1453 8.83041C33.3776 8.96428 33.6098 9.09817 33.8421 9.23207C34.0057 9.32638 34.1693 9.42065 34.333 9.51491C34.4323 9.57221 34.5317 9.6295 34.6341 9.68853C34.7213 9.73878 34.8085 9.78903 34.8983 9.8408C34.9798 9.88823 35.0613 9.93566 35.1453 9.98453C35.2293 10.0252 35.3133 10.0659 35.3998 10.1079C35.631 10.276 35.631 10.276 35.6913 10.5034C35.6912 10.5939 35.691 10.6844 35.6908 10.7776C35.6917 10.8821 35.6927 10.9866 35.6937 11.0942C35.6923 11.2094 35.6909 11.3246 35.6894 11.4433C35.6898 11.5653 35.6902 11.6874 35.6907 11.8131C35.6918 12.1525 35.6898 12.4919 35.6874 12.8313C35.6853 13.197 35.686 13.5628 35.6864 13.9285C35.6866 14.5625 35.6851 15.1963 35.6824 15.8302C35.6784 16.7468 35.6772 17.6633 35.6765 18.5798C35.6755 20.0667 35.6722 21.5536 35.6676 23.0405C35.6632 24.4851 35.6598 25.9297 35.6577 27.3743C35.6576 27.4633 35.6574 27.5523 35.6573 27.644C35.6567 28.0906 35.6561 28.5371 35.6555 28.9836C35.6504 32.6894 35.6419 36.3951 35.631 40.1009C35.5553 40.1441 35.4796 40.1873 35.4015 40.2319C35.114 40.3961 34.8264 40.5604 34.5389 40.7246C34.4156 40.795 34.2924 40.8654 34.1692 40.9357C33.0103 41.5975 31.8539 42.2637 30.6984 42.9315C30.3815 43.1145 30.0645 43.2972 29.7474 43.4798C28.7317 44.065 27.7172 44.6518 26.7054 45.2437C25.8624 45.7368 25.0159 46.2235 24.1674 46.707C23.315 47.1929 22.4645 47.6818 21.6172 48.1764C21.5238 48.2306 21.4304 48.2849 21.3341 48.3407C20.83 48.6341 20.3298 48.9328 19.8328 49.2382C19.6742 49.3344 19.6742 49.3344 19.5123 49.4325C19.3091 49.5557 19.1068 49.6805 18.9056 49.8071C18.2341 50.2115 18.2341 50.2115 17.8519 50.1813C17.756 50.1248 17.66 50.0683 17.5612 50.0101C17.488 49.9697 17.4148 49.9294 17.3393 49.8878C17.062 49.7331 16.7895 49.5717 16.5169 49.409C16.3067 49.285 16.0964 49.161 15.8861 49.0371C15.7777 48.973 15.6693 48.909 15.5576 48.843C15.0333 48.5345 14.5061 48.2309 13.9788 47.9275C13.7666 47.8051 13.5543 47.6828 13.342 47.5605C13.2366 47.4998 13.1312 47.4391 13.0226 47.3765C12.4952 47.0726 11.968 46.7684 11.4408 46.4641C11.2303 46.3427 11.0198 46.2213 10.8093 46.0998C10.1779 45.7355 10.1779 45.7355 9.54638 45.3712C9.44217 45.3111 9.33796 45.251 9.2306 45.189C9.02026 45.0677 8.80993 44.9463 8.5996 44.825C8.07105 44.52 7.54243 44.2151 7.01366 43.9106C5.80015 43.2114 4.58843 42.5092 3.37929 41.8025C2.96447 41.56 2.54925 41.3183 2.1338 41.0769C1.97199 40.9828 1.97199 40.9828 1.80692 40.8868C1.59861 40.7657 1.39024 40.6447 1.1818 40.5238C1.08896 40.4697 0.996115 40.4157 0.900458 40.3601C0.818126 40.3122 0.735794 40.2644 0.650967 40.2152C0.462906 40.1009 0.462906 40.1009 0.365756 40.0037C0.355537 39.8463 0.352128 39.6884 0.351359 39.5306C0.350627 39.4276 0.349895 39.3245 0.34914 39.2184C0.348827 39.1038 0.348513 38.9891 0.34819 38.8711C0.34749 38.7504 0.34679 38.6297 0.346069 38.5054C0.344235 38.1689 0.342849 37.8324 0.341663 37.4959C0.34057 37.2077 0.339119 36.9194 0.337668 36.6312C0.323962 33.8995 0.317615 31.1677 0.312475 28.4359C0.311794 28.0802 0.311102 27.7245 0.310398 27.3689C0.310224 27.2804 0.310049 27.192 0.309869 27.101C0.306948 25.6687 0.300657 24.2364 0.293039 22.8042C0.285288 21.3347 0.280836 19.8652 0.279539 18.3956C0.278722 17.5701 0.276408 16.7447 0.270343 15.9193C0.26518 15.2162 0.26296 14.5133 0.264621 13.8102C0.265375 13.4514 0.264704 13.0928 0.260222 12.734C0.255402 12.345 0.257346 11.9564 0.259959 11.5675C0.257478 11.4539 0.254997 11.3404 0.252441 11.2234C0.265338 10.4764 0.265339 10.4764 0.557074 10.1764C0.779148 10.0261 0.998076 9.90503 1.2401 9.79023C1.33778 9.73228 1.43546 9.67433 1.5361 9.61462C1.62276 9.56688 1.70942 9.51913 1.79871 9.46994C1.89695 9.41548 1.99518 9.36101 2.0964 9.30489C2.2496 9.22053 2.2496 9.22053 2.40589 9.13447C3.10429 8.74668 3.80158 8.35825 4.48854 7.95047C5.16569 7.54869 5.84644 7.15348 6.52867 6.76038C6.63624 6.6984 6.74381 6.63642 6.85463 6.57256C7.07522 6.44549 7.29583 6.31843 7.51644 6.19139C8.04753 5.88547 8.57836 5.57912 9.10921 5.27278C9.74285 4.90715 10.3765 4.54159 11.0105 4.17644C11.9304 3.64638 12.85 3.11598 13.7663 2.57976C14.0508 2.41348 14.3356 2.24792 14.6205 2.08241C15.0067 1.85786 15.3912 1.6308 15.7747 1.40162C16.0233 1.25345 16.2728 1.10675 16.5224 0.960303C16.6434 0.88891 16.7639 0.816887 16.8841 0.744214C17.0515 0.643074 17.2204 0.544316 17.3893 0.44567C17.4859 0.388189 17.5825 0.330708 17.682 0.271485C17.9498 0.172438 17.9498 0.172438 18.206 0.241031ZM17.2758 3.96734C16.5501 4.39737 15.821 4.82132 15.09 5.24242C14.9826 5.3043 14.8752 5.36617 14.7646 5.42992C14.5438 5.5571 14.323 5.68427 14.1022 5.81142C13.5711 6.11733 13.0403 6.4237 12.5094 6.73003C12.2989 6.85146 12.0885 6.9729 11.878 7.09434C11.7738 7.15445 11.6696 7.21456 11.5622 7.27649C10.615 7.82296 10.615 7.82296 10.2992 8.00514C10.0889 8.12649 9.87857 8.24784 9.66824 8.36921C9.1397 8.67418 8.61108 8.97903 8.08231 9.28361C7.0206 9.89535 5.95987 10.5087 4.90142 11.126C4.75535 11.2112 4.75535 11.2112 4.60632 11.2982C4.23449 11.5153 4.23449 11.5153 3.86314 11.7332C3.77947 11.7701 3.6958 11.8069 3.6096 11.8448C3.34643 12.008 3.34643 12.008 3.31762 12.326C3.31807 12.4511 3.31851 12.5763 3.31898 12.7051C3.31856 12.7748 3.31815 12.8445 3.31772 12.9163C3.31692 13.1504 3.31959 13.3843 3.32224 13.6184C3.32238 13.7859 3.3223 13.9535 3.32203 14.121C3.32189 14.5765 3.32475 15.0318 3.32814 15.4872C3.33117 15.963 3.33146 16.4387 3.33204 16.9144C3.33355 17.8155 3.33754 18.7166 3.34241 19.6177C3.34783 20.6434 3.35051 21.6692 3.35294 22.6949C3.35803 24.8053 3.36657 26.9155 3.37739 29.0258C3.44729 29.0662 3.51719 29.1065 3.58922 29.148C5.41302 30.2002 7.23683 31.2524 9.06063 32.3046C9.16484 32.3647 9.26905 32.4249 9.37642 32.4868C9.58675 32.6081 9.79708 32.7295 10.0074 32.8509C10.536 33.1558 11.0646 33.4607 11.5933 33.7653C12.5247 34.3019 13.4558 34.8391 14.3837 35.3817C14.6719 35.55 14.9604 35.7178 15.249 35.8855C15.6316 36.1082 16.0119 36.3343 16.3912 36.5625C16.5748 36.6713 16.7583 36.7801 16.9419 36.8889C17.0253 36.94 17.1088 36.9912 17.1947 37.0439C17.2728 37.0898 17.351 37.1357 17.4314 37.183C17.499 37.2237 17.5666 37.2643 17.6362 37.3063C18.0144 37.4363 18.3228 37.3365 18.6757 37.1708C18.7542 37.1236 18.8328 37.0764 18.9137 37.0278C19.0041 36.9742 19.0945 36.9206 19.1876 36.8654C19.284 36.807 19.3805 36.7486 19.4799 36.6885C19.6886 36.5644 19.8973 36.4405 20.1061 36.3166C20.2143 36.252 20.3225 36.1875 20.434 36.121C20.9834 35.7952 21.5371 35.4769 22.0908 35.1584C22.2407 35.0719 22.2407 35.0719 22.3935 34.9838C23.1456 34.5502 23.8994 34.1197 24.6531 33.689C24.6531 31.7334 24.6531 29.7778 24.6531 27.7629C23.8848 28.1471 23.1428 28.5346 22.4065 28.9712C22.2043 29.0901 22.002 29.2091 21.7997 29.3279C21.6953 29.3893 21.5909 29.4508 21.4833 29.514C20.9164 29.8461 20.3469 30.1736 19.7774 30.5013C19.5676 30.6221 19.3577 30.7429 19.1479 30.8637C19.0594 30.9146 18.971 30.9654 18.8799 31.0178C18.6258 31.1593 18.6258 31.1593 18.391 31.3397C18.1441 31.4546 18.1441 31.4546 17.8553 31.3937C17.5712 31.2648 17.3031 31.1277 17.0337 30.9703C16.9337 30.9122 16.8336 30.8541 16.7306 30.7943C16.624 30.7316 16.5174 30.669 16.4076 30.6045C16.2945 30.5386 16.1814 30.4728 16.0682 30.407C15.7788 30.2385 15.4898 30.0694 15.2009 29.9C14.7614 29.6425 14.3215 29.3859 13.8817 29.129C13.7413 29.047 13.7413 29.047 13.5981 28.9633C12.3983 28.2628 11.1905 27.5764 9.98355 26.8885C9.53472 26.6321 9.08589 26.3756 8.62346 26.1113C8.62346 22.4245 8.62346 18.7377 8.62346 14.9392C9.20053 14.6186 9.77759 14.298 10.3721 13.9677C10.7455 13.7525 11.118 13.5366 11.4894 13.318C11.6889 13.201 11.8886 13.0842 12.0882 12.9673C12.1893 12.9082 12.2904 12.849 12.3945 12.788C13.0175 12.4245 13.6425 12.0646 14.2677 11.7048C14.7655 11.4183 15.2629 11.1313 15.7589 10.8418C15.9918 10.7059 16.2248 10.5703 16.4578 10.4348C16.6227 10.3387 16.7872 10.2422 16.9517 10.1456C17.0514 10.0877 17.1511 10.0298 17.2538 9.97011C17.3415 9.91884 17.4292 9.86758 17.5196 9.81476C17.913 9.61185 17.913 9.61185 18.1441 9.59593C18.4009 9.70601 18.4009 9.70601 18.6951 9.87865C18.8046 9.94209 18.9141 10.0055 19.0268 10.0709C19.1455 10.1413 19.2641 10.2116 19.3828 10.2821C19.5058 10.3539 19.6288 10.4256 19.752 10.4972C20.0646 10.6794 20.3764 10.8628 20.6881 11.0466C20.9495 11.2005 21.2116 11.353 21.4738 11.5055C21.8543 11.7269 22.2345 11.9488 22.6145 12.1712C23.5416 12.7129 24.4725 13.248 25.4029 13.7839C25.9303 14.0878 26.4575 14.3921 26.9847 14.6963C27.6241 15.0652 28.2635 15.4341 28.903 15.8029C29.0649 15.8962 29.0649 15.8962 29.23 15.9915C29.4429 16.1143 29.6558 16.237 29.8688 16.3598C30.3594 16.6427 30.8496 16.9261 31.339 17.2112C31.4255 17.2615 31.5119 17.3118 31.601 17.3636C31.7618 17.4572 31.9225 17.551 32.0831 17.645C32.3825 17.8547 32.3825 17.8547 32.7165 17.9508C32.7165 15.9952 32.7165 14.0395 32.7165 12.0247C32.3198 11.7983 31.9231 11.5718 31.5143 11.3386C30.2685 10.627 29.0252 9.91139 27.7831 9.19363C27.258 8.89031 26.7327 8.58739 26.2075 8.28442C25.997 8.16298 25.7865 8.04154 25.576 7.92011C25.4718 7.85999 25.3677 7.79988 25.2603 7.73795C24.9446 7.5558 24.6288 7.37364 24.3131 7.19149C24.2088 7.13134 24.1046 7.0712 23.9972 7.00924C23.7873 6.88812 23.5773 6.767 23.3674 6.64587C22.8327 6.3374 22.298 6.02896 21.7633 5.72058C21.6554 5.65835 21.5475 5.59612 21.4363 5.532C21.2234 5.40919 21.0105 5.28641 20.7975 5.16366C20.3069 4.88076 19.8167 4.59731 19.3274 4.31229C19.2409 4.26198 19.1544 4.21167 19.0653 4.15983C18.9045 4.06622 18.7438 3.97243 18.5832 3.87844C17.95 3.50996 17.8804 3.60652 17.2758 3.96734ZM17.5191 13.1453C17.4272 13.1992 17.3353 13.2531 17.2406 13.3086C17.14 13.3678 17.0394 13.427 16.9358 13.488C16.7223 13.6131 16.5088 13.7382 16.2952 13.8633C16.2398 13.8957 16.1845 13.9282 16.1274 13.9616C15.4263 14.3721 14.7219 14.7769 14.0176 15.1817C13.8191 15.2959 13.6224 15.4132 13.4274 15.5333C13.1614 15.6786 12.9355 15.7741 12.6523 15.8702C12.1634 16.0571 11.7448 16.2466 11.4408 16.6878C11.1807 17.5879 11.2777 18.5758 11.3274 19.5017C11.3444 19.8526 11.3519 20.2037 11.3602 20.5548C11.3778 21.2417 11.4059 21.9278 11.4408 22.614C12.3035 22.1594 13.1573 21.6953 13.997 21.1992C14.1965 21.0823 14.396 20.9654 14.5955 20.8486C14.6981 20.7884 14.8007 20.7282 14.9063 20.6662C15.4189 20.3657 15.9318 20.0655 16.4456 19.7671C16.6112 19.6708 16.7764 19.5739 16.9416 19.4771C17.0928 19.3894 17.0928 19.3894 17.247 19.2999C17.3359 19.248 17.4249 19.1961 17.5165 19.1426C17.9129 18.9383 17.9129 18.9383 18.1441 18.9223C18.3978 19.0308 18.3978 19.0308 18.6883 19.2016C18.7968 19.2645 18.9052 19.3275 19.017 19.3923C19.1349 19.4623 19.2527 19.5323 19.3706 19.6023C19.4931 19.6739 19.6157 19.7454 19.7383 19.8167C19.9909 19.9639 20.2431 20.1117 20.495 20.2599C20.9384 20.5206 21.3842 20.7772 21.8301 21.0335C22.1408 21.2122 22.4511 21.3914 22.7614 21.5707C23.1934 21.8204 23.6258 22.0696 24.0585 22.3183C24.2789 22.4452 24.4994 22.5721 24.7199 22.699C24.8252 22.7595 24.9305 22.8201 25.0389 22.8825C25.6867 23.2561 26.3516 23.581 26.9871 23.9754C27.2477 24.139 27.2628 24.1434 27.4706 24.2649C27.4706 27.9517 27.5676 31.6391 27.5676 35.4377C27.3272 35.5339 27.3272 35.5339 27.0819 35.632C26.9148 35.7188 26.7493 35.8086 26.5851 35.9007C26.4891 35.9544 26.3931 36.0081 26.2942 36.0634C26.1915 36.1214 26.0887 36.1794 25.9828 36.2392C25.8751 36.2997 25.7674 36.3603 25.6565 36.4227C24.7379 36.9408 23.8264 37.4708 22.9166 38.0042C22.1787 38.4366 21.4378 38.8637 20.6955 39.2885C20.2222 39.56 19.7519 39.8338 19.2898 40.124C19.2143 40.1708 19.1387 40.2176 19.0609 40.2658C18.9242 40.3511 18.7885 40.438 18.654 40.5267C18.3758 40.6992 18.2032 40.7887 17.8739 40.7452C17.4103 40.51 16.9632 40.2518 16.5169 39.9855C16.3067 39.8615 16.0964 39.7375 15.8861 39.6136C15.7235 39.5175 15.7235 39.5175 15.5576 39.4195C15.0333 39.111 14.5061 38.8074 13.9788 38.504C13.7666 38.3816 13.5543 38.2593 13.342 38.137C13.2366 38.0763 13.1312 38.0156 13.0226 37.953C12.4952 37.6491 11.968 37.3449 11.4408 37.0407C11.2303 36.9192 11.0198 36.7978 10.8093 36.6763C10.1779 36.312 10.1779 36.312 9.54638 35.9477C9.44212 35.8876 9.33785 35.8274 9.23043 35.7654C9.02065 35.6444 8.81087 35.5234 8.60109 35.4023C8.0641 35.0925 7.52702 34.7828 6.98975 34.4734C6.77129 34.3475 6.55283 34.2217 6.33438 34.0958C6.17735 34.0053 6.17735 34.0053 6.01715 33.9131C5.32258 33.5124 4.63021 33.1082 3.94167 32.6973C3.67635 32.5093 3.67635 32.5093 3.37739 32.4261C3.37739 34.3817 3.37739 36.3373 3.37739 38.3522C4.21093 38.8331 5.04447 39.3139 5.90327 39.8094C7.79769 40.9023 9.6921 41.9953 11.5865 43.0882C11.6908 43.1483 11.795 43.2085 11.9024 43.2705C12.1124 43.3916 12.3223 43.5127 12.5322 43.6338C13.0669 43.9423 13.6016 44.2507 14.1363 44.5591C14.2442 44.6213 14.352 44.6836 14.4631 44.7477C14.6764 44.8706 14.8897 44.9933 15.1032 45.1158C15.5904 45.3958 16.0753 45.6784 16.5552 45.9708C16.6395 46.0216 16.7238 46.0723 16.8106 46.1246C16.9658 46.2183 17.1202 46.3133 17.2737 46.4098C17.5864 46.5974 17.7807 46.7061 18.1502 46.7108C18.5081 46.5842 18.8192 46.4086 19.1399 46.2091C19.2872 46.1201 19.4345 46.0311 19.582 45.9424C19.6625 45.8937 19.7429 45.845 19.8259 45.7948C20.3121 45.5037 20.8041 45.2225 21.2954 44.9401C21.5139 44.8143 21.7323 44.6884 21.9508 44.5625C22.0605 44.4994 22.1701 44.4362 22.2832 44.3711C22.8142 44.0652 23.3451 43.7588 23.8759 43.4525C24.0864 43.3311 24.2969 43.2096 24.5074 43.0882C24.6116 43.0281 24.7158 42.968 24.8231 42.9061C25.7703 42.3596 25.7703 42.3596 26.0861 42.1774C26.2965 42.0561 26.5068 41.9347 26.7171 41.8133C27.2457 41.5084 27.7743 41.2035 28.3031 40.8989C29.4723 40.2252 30.64 39.549 31.8047 38.8673C31.8962 38.8138 31.9877 38.7602 32.082 38.7051C32.1626 38.6579 32.2432 38.6107 32.3262 38.5621C32.4543 38.4884 32.5844 38.4182 32.7165 38.3522C32.7165 32.7418 32.7165 27.1314 32.7165 21.351C31.8189 20.8381 30.9212 20.3251 29.9963 19.7966C28.672 19.0345 27.3495 18.2694 26.0306 17.498C25.2252 17.0278 24.4157 16.5651 23.6055 16.1034C22.8045 15.6469 22.0061 15.1862 21.2104 14.7206C20.451 14.2764 19.6905 13.8345 18.9274 13.3969C18.8398 13.3465 18.7523 13.2962 18.6621 13.2443C18.5825 13.1987 18.5028 13.1532 18.4208 13.1062C18.3156 13.0459 18.3156 13.0459 18.2083 12.9844C17.915 12.8291 17.7958 12.9825 17.5191 13.1453ZM17.7428 22.3161C17.6627 22.3643 17.5826 22.4125 17.5001 22.4622C17.4087 22.5164 17.3173 22.5707 17.2231 22.6266C17.1243 22.6865 17.0255 22.7465 16.9237 22.8083C16.7139 22.9333 16.504 23.0583 16.2941 23.1832C16.1842 23.2489 16.0743 23.3146 15.9611 23.3822C15.6125 23.5897 15.2611 23.7923 14.909 23.9938C14.8512 24.0269 14.7935 24.0599 14.734 24.094C14.4526 24.255 14.1711 24.4158 13.8894 24.5763C13.7372 24.6637 13.7372 24.6637 13.5819 24.7528C13.4919 24.8041 13.4019 24.8555 13.3093 24.9085C13.0835 25.0367 13.0835 25.0367 12.898 25.237C12.9594 25.2711 13.0208 25.3052 13.084 25.3403C14.3702 26.0554 15.6497 26.7791 16.9182 27.5254C17.0098 27.5792 17.1014 27.633 17.1958 27.6885C17.2759 27.7358 17.3561 27.7831 17.4388 27.8319C17.5112 27.8732 17.5837 27.9146 17.6584 27.9572C17.7228 27.9991 17.7873 28.041 17.8538 28.0842C18.05 28.1748 18.05 28.1748 18.2592 28.0792C18.3743 28.0113 18.3743 28.0113 18.4917 27.942C18.6232 27.866 18.6232 27.866 18.7574 27.7885C18.8516 27.7319 18.9457 27.6754 19.0427 27.6172C19.1403 27.5602 19.2378 27.5032 19.3383 27.4445C19.5459 27.3231 19.7532 27.201 19.9601 27.0783C20.2822 26.8881 20.6059 26.701 20.9303 26.5147C21.1391 26.3945 21.3478 26.2742 21.5565 26.1538C21.6548 26.0972 21.7532 26.0406 21.8545 25.9823C22.2941 25.7263 22.7146 25.4769 23.0987 25.1398C22.322 24.6856 21.5448 24.2324 20.7671 23.7798C20.7089 23.7459 20.6507 23.712 20.5907 23.677C20.2421 23.4741 19.8933 23.2715 19.5443 23.0694C19.3784 22.9732 19.2127 22.8768 19.047 22.7803C18.8952 22.6925 18.8952 22.6925 18.7403 22.603C18.6508 22.5511 18.5614 22.4992 18.4692 22.4457C18.1178 22.2404 18.1178 22.2404 17.7428 22.3161Z" fill="url(#paint0_linear_76_8580)"/>
<path d="M52.3738 33.7025V16.9025H55.6138V33.7025H52.3738ZM69.9752 33.7025L58.9832 17.7665V16.9025H62.2232L73.2392 32.8385V33.7025H69.9752ZM58.9832 33.7025V16.9025H62.2232V33.7025H58.9832ZM69.9752 33.7025V16.9025H73.2392V33.7025H69.9752ZM76.6082 33.7025V16.9025H79.8482V33.7025H76.6082ZM78.2642 26.8385V23.7665H86.7842V26.8385H78.2642ZM78.2642 19.9745V16.9025H87.5042V19.9745H78.2642ZM89.8973 33.7025V16.9025H93.1373V33.7025H89.8973ZM107.499 33.7025L96.5067 17.7665V16.9025H99.7467L110.763 32.8385V33.7025H107.499ZM96.5067 33.7025V16.9025H99.7467V33.7025H96.5067ZM107.499 33.7025V16.9025H110.763V33.7025H107.499ZM114.132 33.7025V16.9025H117.372V33.7025H114.132ZM115.788 33.7025V30.6305H125.508V33.7025H115.788ZM115.788 26.7185V23.6465H124.788V26.7185H115.788ZM115.788 19.9745V16.9025H125.508V19.9745H115.788Z" fill="white"/>
<path d="M129.731 33.9425C129.171 33.9425 128.683 33.7425 128.267 33.3425C127.867 32.9425 127.667 32.4625 127.667 31.9025C127.667 31.3425 127.867 30.8705 128.267 30.4865C128.683 30.0865 129.171 29.8865 129.731 29.8865C130.275 29.8865 130.747 30.0865 131.147 30.4865C131.547 30.8705 131.747 31.3425 131.747 31.9025C131.747 32.4625 131.547 32.9425 131.147 33.3425C130.747 33.7425 130.275 33.9425 129.731 33.9425Z" fill="#6FEA7D"/>
<defs>
<linearGradient id="paint0_linear_76_8580" x1="35.6774" y1="0.745565" x2="-3.69044" y2="4.17219" gradientUnits="userSpaceOnUse">
<stop stop-color="#73ED7C"/>
<stop offset="1" stop-color="#019297"/>
</linearGradient>
</defs>
</svg>
