<svg xmlns="http://www.w3.org/2000/svg" viewBox="0 0 512 512" id="saas">
  <path fill-rule="evenodd" d="M269.931,207.893h-27.862l-6.173,19.253-.008-.003c-.944,2.93-3.302,5.339-6.493,6.208-3.899,1.064-7.746,2.375-11.521,3.917-.146.069-.295.136-.446.199-3.882,1.608-7.675,3.475-11.36,5.582l-.007-.012c-2.681,1.53-6.058,1.716-9.006.197l-17.976-9.248-19.692,19.692,9.004,17.501c1.662,2.826,1.804,6.439.06,9.488-2.144,3.751-4.012,7.534-5.584,11.328-1.575,3.801-2.916,7.676-4.006,11.606-.715,3.142-3.023,5.837-6.313,6.894l-19.253,6.173v27.863l19.253,6.173-.003.008c2.93.944,5.339,3.302,6.208,6.493,1.109,4.065,2.487,8.073,4.115,12.003,1.571,3.793,3.438,7.575,5.582,11.324l-.012.007c1.53,2.681,1.716,6.058.197,9.006l-9.248,17.976,19.692,19.692,17.501-9.003c2.826-1.662,6.438-1.804,9.488-.06,3.751,2.144,7.535,4.012,11.328,5.584,3.801,1.575,7.676,2.916,11.605,4.005,3.142.715,5.837,3.023,6.894,6.313l6.173,19.254h27.862l6.173-19.254.008.003c.944-2.93,3.302-5.339,6.493-6.208,4.065-1.109,8.073-2.487,12.004-4.116,3.792-1.571,7.574-3.438,11.323-5.581l.007.012c2.681-1.53,6.058-1.716,9.006-.197l17.977,9.248,19.692-19.692-9.003-17.501c-1.662-2.826-1.804-6.439-.06-9.488,2.144-3.75,4.011-7.533,5.583-11.327,1.576-3.802,2.916-7.678,4.006-11.608.715-3.142,3.023-5.837,6.313-6.893l19.254-6.173v-27.862l-19.254-6.173.003-.008c-2.93-.944-5.339-3.302-6.208-6.493-1.109-4.065-2.487-8.073-4.116-12.003-1.571-3.792-3.438-7.574-5.581-11.323l.012-.007c-1.53-2.681-1.716-6.058-.197-9.006l9.248-17.976-19.692-19.692-17.502,9.003c-2.826,1.662-6.438,1.804-9.488.06-3.75-2.144-7.534-4.012-11.327-5.584-3.802-1.575-7.677-2.916-11.607-4.006-3.143-.715-5.837-3.023-6.894-6.313l-6.173-19.253h0ZM287.605,298.993c8.087,8.087,13.09,19.262,13.09,31.605s-5.002,23.518-13.09,31.605c-8.087,8.087-19.262,13.09-31.605,13.09s-23.518-5.003-31.605-13.09c-8.088-8.087-13.09-19.262-13.09-31.605s5.003-23.517,13.09-31.605c8.088-8.087,19.262-13.09,31.605-13.09s23.518,5.002,31.605,13.09h0ZM256,266.991c17.564,0,33.465,7.12,44.976,18.631,11.511,11.511,18.631,27.412,18.631,44.976s-7.12,33.465-18.631,44.976c-11.511,11.511-27.413,18.631-44.976,18.631s-33.465-7.12-44.976-18.631c-11.511-11.511-18.631-27.412-18.631-44.976s7.12-33.465,18.631-44.975c11.511-11.511,27.413-18.631,44.976-18.631h0ZM114.383,340.816h-4.585c-25.804,0-49.256-10.55-66.252-27.546-16.996-16.996-27.546-40.448-27.546-66.252s10.55-49.255,27.546-66.252c16.996-16.996,40.448-27.546,66.252-27.546v.037h3.281c2.288-30.18,15.477-57.315,35.639-77.478,22.239-22.239,52.962-35.995,86.896-35.995,25.496,0,49.217,7.809,68.906,21.174,17.19,11.668,31.265,27.581,40.723,46.231,2.527-1.263,5.149-2.357,7.852-3.267,6.262-2.109,12.911-3.252,19.763-3.252,17.12,0,32.622,6.941,43.843,18.162,10.433,10.433,17.165,24.566,18.059,40.26,16.935,6.319,31.59,17.403,42.308,31.598,11.871,15.722,18.928,35.246,18.928,56.327,0,25.804-10.55,49.256-27.546,66.252-16.996,16.996-40.448,27.546-66.252,27.546h-4.586v10.58c0,4.484-3.122,8.24-7.311,9.211l-20.362,6.528c-1.008,3.156-2.136,6.235-3.378,9.232-1.286,3.104-2.67,6.099-4.145,8.977l10.122,19.675c1.928,3.74,1.111,8.17-1.713,10.993l.014.014-29.414,29.414c-3.144,3.144-7.953,3.61-11.591,1.399l-19.092-9.822c-2.877,1.475-5.871,2.858-8.973,4.143-2.998,1.242-6.079,2.37-9.236,3.379l-6.764,21.098c-1.284,4-4.988,6.548-8.976,6.547v.028h-41.597c-4.484,0-8.24-3.122-9.211-7.311l-6.528-20.362c-3.155-1.008-6.234-2.135-9.23-3.377-3.105-1.286-6.1-2.67-8.979-4.146l-19.675,10.122c-3.74,1.928-8.17,1.111-10.993-1.713l-.014.014-29.414-29.414c-3.144-3.144-3.61-7.953-1.399-11.591l9.822-19.091c-1.475-2.878-2.858-5.871-4.144-8.975-1.242-2.998-2.37-6.078-3.379-9.235l-21.098-6.764c-4-1.284-6.548-4.988-6.547-8.976h-.028v-10.58h0ZM397.616,321.904v-12.105h-.028c0-3.987-2.547-7.692-6.547-8.976l-21.098-6.764c-1.009-3.157-2.137-6.237-3.379-9.235-1.286-3.103-2.669-6.096-4.144-8.974l9.822-19.092c2.211-3.638,1.745-8.446-1.399-11.591l-29.414-29.413-.014.014c-2.823-2.824-7.253-3.641-10.993-1.713l-19.676,10.122c-2.878-1.475-5.873-2.859-8.978-4.146-2.997-1.242-6.076-2.37-9.231-3.378l-6.528-20.362c-.972-4.189-4.727-7.311-9.211-7.311h-41.597v.028c-3.987,0-7.692,2.547-8.976,6.547l-6.764,21.098c-2.993.956-5.918,2.02-8.768,3.187-.169.059-.337.123-.505.192-3.06,1.268-6.043,2.651-8.941,4.141l-19.087-9.819c-3.638-2.211-8.446-1.745-11.591,1.399l-29.414,29.414.014.014c-2.824,2.823-3.641,7.253-1.713,10.993l10.122,19.675c-1.475,2.879-2.859,5.873-4.146,8.978-1.242,2.997-2.369,6.076-3.377,9.231l-20.362,6.528c-4.189.972-7.311,4.727-7.311,9.211v12.105h-4.585c-20.584,0-39.304-8.428-52.881-22.005-13.577-13.577-22.005-32.297-22.005-52.881s8.428-39.303,22.005-52.881c13.577-13.577,32.297-22.005,52.881-22.005v-.037h11.548c.275.024.553.037.833.037,5.222,0,9.456-4.234,9.456-9.456,0-28.714,11.638-54.709,30.454-73.525,18.816-18.816,44.811-30.454,73.526-30.454,21.666,0,41.745,6.583,58.342,17.849,17.135,11.631,30.617,28.243,38.366,47.754h.004c.308.773.724,1.52,1.252,2.216,3.141,4.141,9.045,4.951,13.187,1.81,3.671-2.792,7.821-5.013,12.315-6.526,4.27-1.438,8.902-2.218,13.779-2.218,11.901,0,22.675,4.823,30.472,12.621,7.798,7.797,12.621,18.571,12.621,30.472,0,1.126.017,1.118.011,1.33-.004.121-.019.41-.046.852-.513,4.51,2.294,8.86,6.803,10.143,15.834,4.541,29.569,14.206,39.279,27.066,9.461,12.531,15.086,28.11,15.086,44.95,0,20.584-8.427,39.304-22.005,52.881-13.577,13.577-32.297,22.005-52.881,22.005h-4.586Z" fill="#ffffff" class="color000000 svgShape"></path>
</svg>
