<svg width="177" height="177" viewBox="0 0 177 177" fill="none" xmlns="http://www.w3.org/2000/svg">
<path d="M94.9144 13.7795C93.7741 13.6796 92.7977 13.3323 91.9852 12.7377C91.1727 12.1432 90.5699 11.3622 90.1769 10.3949C89.7961 9.4172 89.6597 8.31306 89.7676 7.08245C89.8765 5.84055 90.2029 4.77699 90.747 3.89179C91.3023 3.00758 92.0318 2.34342 92.9354 1.8993C93.8389 1.45518 94.8609 1.28311 96.0012 1.38308C97.1753 1.48601 98.1816 1.88141 99.0201 2.56926C99.8586 3.25712 100.412 4.14751 100.68 5.24045L98.6129 5.6565L98.4296 5.6063C98.2646 5.02299 97.9419 4.55101 97.4616 4.19035C96.9935 3.81938 96.4434 3.60619 95.8111 3.55076C95.1111 3.4894 94.4923 3.60579 93.9545 3.89995C93.4178 4.18282 92.9816 4.61672 92.6459 5.20163C92.3224 5.77625 92.1251 6.47 92.0538 7.28288C91.9826 8.09576 92.0557 8.81891 92.2732 9.45233C92.503 10.0754 92.8571 10.5786 93.3354 10.9619C93.8148 11.3338 94.4044 11.5505 95.1044 11.6118C95.7367 11.6673 96.315 11.5587 96.8395 11.2861C97.3763 11.0033 97.7766 10.589 98.0406 10.0433L98.2299 10.0257L100.193 10.7951C99.7389 11.8247 99.039 12.6053 98.0937 13.1367C97.1483 13.6682 96.0885 13.8825 94.9144 13.7795Z" fill="url(#paint0_linear_0_8)"/>
<path d="M106.442 15.7372C105.585 15.5212 104.874 15.1433 104.308 14.6035C103.757 14.0555 103.379 13.3992 103.174 12.6347C102.969 11.8702 102.976 11.0538 103.195 10.1856C103.414 9.3174 103.794 8.59518 104.337 8.01895C104.879 7.44271 105.522 7.04945 106.265 6.83917C107.021 6.62067 107.828 6.61941 108.685 6.8354C109.542 7.05138 110.246 7.43338 110.798 7.9814C111.363 8.5212 111.748 9.17336 111.953 9.93789C112.158 10.7024 112.151 11.5188 111.932 12.387C111.713 13.2552 111.332 13.9774 110.79 14.5536C110.247 15.1299 109.598 15.5272 108.842 15.7457C108.099 15.956 107.299 15.9532 106.442 15.7372ZM106.936 13.7755C107.376 13.8863 107.78 13.8829 108.148 13.7654C108.52 13.6369 108.84 13.4079 109.11 13.0786C109.38 12.7492 109.579 12.3318 109.706 11.8262C109.834 11.3207 109.857 10.859 109.775 10.441C109.693 10.0231 109.518 9.67501 109.249 9.39689C108.983 9.10778 108.63 8.90785 108.191 8.79709C107.751 8.68632 107.346 8.6952 106.974 8.8237C106.606 8.94122 106.286 9.16465 106.016 9.494C105.746 9.82335 105.548 10.2408 105.42 10.7463C105.293 11.2519 105.27 11.7136 105.352 12.1316C105.434 12.5495 105.607 12.9031 105.874 13.1922C106.142 13.4703 106.497 13.6647 106.936 13.7755Z" fill="url(#paint1_linear_0_8)"/>
<path d="M112.947 17.2952L116.233 9.30885L118.198 10.1174L117.415 12.0197L116.851 11.9163C117.234 11.5223 117.652 11.2223 118.104 11.0163C118.556 10.8103 119.029 10.7044 119.521 10.6987C120.018 10.6826 120.513 10.7759 121.006 10.9785C121.572 11.2114 122.033 11.5485 122.391 11.9898C122.763 12.4249 122.987 12.9396 123.061 13.5338C123.145 14.1324 123.039 14.7933 122.741 15.5164L120.697 20.4843L118.575 19.611L120.341 15.3191C120.526 14.8685 120.619 14.4653 120.618 14.1096C120.628 13.7582 120.55 13.4565 120.384 13.2044C120.218 12.9523 119.973 12.7594 119.648 12.6257C119.396 12.5222 119.09 12.4761 118.73 12.4873C118.37 12.4985 118.002 12.6348 117.625 12.8963C117.262 13.1516 116.943 13.6146 116.667 14.2854L115.069 18.1685L112.947 17.2952Z" fill="url(#paint2_linear_0_8)"/>
<path d="M125.813 23.3185C125.028 22.8879 124.536 22.301 124.336 21.558C124.151 20.8104 124.291 20.0143 124.754 19.1697L128.45 12.4327L130.462 13.5364L126.889 20.0499C126.687 20.4175 126.631 20.7679 126.72 21.101C126.824 21.4295 127.06 21.6947 127.427 21.8963L128.143 22.2888L128.127 22.4936L127.244 24.1033L125.813 23.3185ZM125.148 15.4111L126.121 13.6374L131.398 16.5316L130.425 18.3053L125.148 15.4111Z" fill="url(#paint3_linear_0_8)"/>
<path d="M129.871 26.2034C129.388 25.8664 129.02 25.4721 128.768 25.0205C128.526 24.5753 128.415 24.1109 128.434 23.6271C128.453 23.1433 128.612 22.6876 128.91 22.2599C129.39 21.5718 130.001 21.1898 130.745 21.114C131.504 21.0354 132.361 21.2731 133.314 21.8273L136.227 23.505L135.178 25.0113L132.521 23.4709C132.095 23.2295 131.754 23.1155 131.495 23.1291C131.247 23.1491 131.051 23.2614 130.908 23.4659C130.766 23.6705 130.747 23.9059 130.851 24.1722C130.962 24.4291 131.167 24.6613 131.464 24.8686C131.79 25.0954 132.141 25.2158 132.518 25.2299C132.904 25.2505 133.267 25.1856 133.607 25.0354C133.953 24.876 134.229 24.6474 134.437 24.3499L135.243 23.1923C135.522 22.7925 135.613 22.3652 135.515 21.9104C135.418 21.4557 135.155 21.0793 134.727 20.7812C134.327 20.5026 133.935 20.3813 133.551 20.4174C133.173 20.4442 132.877 20.5622 132.662 20.7716L132.508 20.6647L131.152 19.2219C131.732 18.6868 132.445 18.3966 133.292 18.3512C134.148 18.3122 134.999 18.5876 135.845 19.1773C136.868 19.89 137.471 20.7388 137.655 21.7235C137.849 22.7147 137.579 23.7357 136.847 24.7864L134.057 28.7892L132.425 27.652L133.864 25.5878L134.547 26.0641C134.151 26.3954 133.681 26.6341 133.137 26.7801C132.609 26.9232 132.061 26.956 131.494 26.8782C130.933 26.7912 130.392 26.5662 129.871 26.2034Z" fill="url(#paint4_linear_0_8)"/>
<path d="M138.945 33.4142C138.278 32.8002 137.821 32.1174 137.573 31.3657C137.333 30.6217 137.306 29.8649 137.491 29.0952C137.675 28.3256 138.075 27.6072 138.689 26.94C139.302 26.2729 139.985 25.8154 140.737 25.5677C141.489 25.3199 142.245 25.2845 143.006 25.4614C143.776 25.646 144.495 26.0453 145.162 26.6593C145.679 27.1351 146.061 27.6406 146.307 28.1758C146.57 28.7103 146.686 29.271 146.654 29.8578C146.631 30.4523 146.464 31.0688 146.153 31.7073L144.408 30.8173L144.258 30.6791C144.472 30.2291 144.525 29.7697 144.417 29.301C144.325 28.8315 144.117 28.4472 143.792 28.1479C143.45 27.8332 143.081 27.64 142.685 27.5682C142.297 27.4881 141.901 27.5245 141.498 27.6776C141.112 27.83 140.738 28.1022 140.377 28.4941C140.024 28.8778 139.784 29.2727 139.656 29.6791C139.537 30.0931 139.53 30.4944 139.634 30.8831C139.746 31.2634 139.973 31.6109 140.315 31.9256C140.557 32.1482 140.824 32.3095 141.117 32.4097C141.419 32.5175 141.725 32.5609 142.037 32.5399C142.357 32.5106 142.657 32.4099 142.939 32.2378L143.089 32.3759L144.121 34.0415C143.51 34.4037 142.909 34.6212 142.319 34.6938C141.728 34.7665 141.152 34.6981 140.59 34.4889C140.036 34.2713 139.487 33.913 138.945 33.4142Z" fill="url(#paint5_linear_0_8)"/>
<path d="M145.819 40.2383C145.228 39.5651 144.966 38.8452 145.033 38.0785C145.115 37.3129 145.519 36.6126 146.243 35.9775L152.02 30.9115L153.533 32.6371L147.948 37.535C147.632 37.8114 147.459 38.1213 147.429 38.4647C147.414 38.809 147.545 39.1389 147.822 39.4542L148.36 40.0677L148.275 40.2549L146.895 41.4654L145.819 40.2383ZM147.899 32.5806L149.42 31.2469L153.388 35.7718L151.867 37.1055L147.899 32.5806Z" fill="url(#paint6_linear_0_8)"/>
<path d="M152.522 50.2619C152.045 49.4379 151.793 48.6282 151.764 47.8327C151.742 47.047 151.928 46.3171 152.324 45.643C152.735 44.973 153.347 44.4024 154.162 43.9312L160.724 40.1335L161.873 42.1199L155.282 45.9346C154.624 46.315 154.217 46.7867 154.058 47.3499C153.909 47.9074 154.025 48.5147 154.405 49.1719C154.791 49.839 155.26 50.242 155.812 50.3809C156.379 50.524 156.992 50.4054 157.649 50.025L164.241 46.2103L165.39 48.1966L158.828 51.9944C158.014 52.4655 157.211 52.7075 156.42 52.7203C155.644 52.7372 154.918 52.5352 154.242 52.1144C153.572 51.7033 152.999 51.0859 152.522 50.2619Z" fill="url(#paint7_linear_0_8)"/>
<path d="M158.115 61.9608C157.818 61.1646 157.688 60.3965 157.726 59.6564C157.768 58.9268 157.959 58.2565 158.299 57.6453C158.654 57.0408 159.14 56.5446 159.757 56.1565L160.999 57.9247L161.032 58.1117C160.716 58.3993 160.466 58.7167 160.281 59.064C160.096 59.4114 159.991 59.7774 159.966 60.162C159.94 60.5467 159.999 60.9301 160.142 61.3123C160.281 61.6838 160.46 61.9858 160.68 62.2181C160.904 62.4611 161.146 62.6245 161.408 62.7083C161.683 62.7988 161.954 62.7944 162.219 62.6952C162.527 62.5801 162.742 62.3787 162.865 62.091C162.991 61.8139 163.027 61.4253 162.973 60.9252L162.753 58.8298C162.638 57.7473 162.776 56.8368 163.165 56.0983C163.555 55.3599 164.137 54.8458 164.912 54.5561C165.559 54.314 166.189 54.2663 166.8 54.4128C167.412 54.5593 167.964 54.8729 168.459 55.3536C168.957 55.8449 169.351 56.478 169.641 57.253C169.918 57.9961 170.039 58.7072 170.003 59.3863C169.97 60.0761 169.786 60.7013 169.451 61.262C169.131 61.8294 168.666 62.2999 168.055 62.6733L166.979 61.0068L166.945 60.8198C167.396 60.5059 167.681 60.1029 167.8 59.6109C167.918 59.1189 167.866 58.5757 167.644 57.9812C167.454 57.4716 167.179 57.1086 166.82 56.892C166.464 56.686 166.111 56.6485 165.761 56.7795C165.443 56.8985 165.214 57.1112 165.074 57.4175C164.949 57.7304 164.913 58.1369 164.967 58.637L165.188 60.7324C165.302 61.8149 165.182 62.7069 164.827 63.4082C164.483 64.1056 163.918 64.6011 163.132 64.8948C162.442 65.1527 161.772 65.2038 161.121 65.0479C160.47 64.8921 159.882 64.5492 159.357 64.0194C158.847 63.4963 158.433 62.8101 158.115 61.9608Z" fill="url(#paint8_linear_0_8)"/>
<path d="M168.449 78.3012L170.038 75.2202L171.237 75.7093L170.176 79.0102L168.449 78.3012ZM170.533 74.8269L173.914 74.0758L174.164 75.9119L170.71 76.124L170.533 74.8269ZM167.075 75.0053L170.533 74.8269L170.71 76.124L167.324 76.8414L167.075 75.0053ZM170.038 75.2202L171.063 71.907L172.789 72.616L171.237 75.7093L170.038 75.2202ZM170.123 75.8435L171.147 75.0523L173.469 77.619L171.995 78.763L170.123 75.8435ZM167.769 73.2982L169.244 72.1543L171.147 75.0523L170.123 75.8435L167.769 73.2982Z" fill="url(#paint9_linear_0_8)"/>
<path d="M162.485 95.6854C162.596 94.5461 162.952 93.573 163.554 92.766C164.156 91.9591 164.943 91.3636 165.914 90.9796C166.895 90.6079 168 90.4818 169.23 90.6011C170.471 90.7215 171.531 91.0579 172.411 91.6101C173.29 92.1736 173.948 92.9092 174.383 93.8169C174.819 94.7246 174.982 95.748 174.871 96.8874C174.757 98.0605 174.352 99.0631 173.657 99.8952C172.961 100.727 172.066 101.272 170.97 101.53L170.573 99.4593L170.625 99.2765C171.21 99.1169 171.685 98.7986 172.05 98.3216C172.426 97.857 172.644 97.3089 172.705 96.6772C172.773 95.9778 172.662 95.3579 172.373 94.8174C172.095 94.2781 171.666 93.8378 171.084 93.4967C170.512 93.168 169.82 92.9642 169.008 92.8854C168.196 92.8066 167.472 92.873 166.837 93.0846C166.211 93.3086 165.705 93.658 165.317 94.1327C164.941 94.6086 164.719 95.1962 164.651 95.8956C164.59 96.5273 164.693 97.1066 164.961 97.6336C165.238 98.173 165.649 98.5772 166.192 98.8463L166.208 99.0357L165.42 100.992C164.395 100.528 163.621 99.8208 163.098 98.8706C162.576 97.9203 162.371 96.8586 162.485 95.6854Z" fill="url(#paint10_linear_0_8)"/>
<path d="M160.418 107.198C160.642 106.343 161.027 105.635 161.572 105.075C162.125 104.529 162.785 104.157 163.552 103.959C164.318 103.762 165.134 103.776 166 104.003C166.866 104.23 167.585 104.618 168.156 105.166C168.727 105.714 169.114 106.36 169.318 107.104C169.529 107.863 169.523 108.67 169.299 109.525C169.074 110.38 168.686 111.08 168.133 111.627C167.588 112.187 166.932 112.566 166.165 112.763C165.399 112.961 164.583 112.946 163.717 112.719C162.85 112.492 162.132 112.105 161.561 111.557C160.99 111.009 160.598 110.355 160.387 109.597C160.184 108.853 160.194 108.053 160.418 107.198ZM162.375 107.711C162.26 108.149 162.26 108.553 162.374 108.923C162.499 109.295 162.725 109.618 163.052 109.891C163.378 110.164 163.794 110.367 164.298 110.499C164.803 110.631 165.264 110.658 165.683 110.581C166.102 110.503 166.451 110.331 166.732 110.065C167.023 109.801 167.227 109.45 167.342 109.012C167.457 108.573 167.451 108.168 167.326 107.795C167.212 107.426 166.992 107.104 166.665 106.831C166.338 106.558 165.923 106.356 165.419 106.223C164.914 106.091 164.453 106.064 164.034 106.142C163.615 106.219 163.26 106.39 162.969 106.653C162.688 106.92 162.49 107.272 162.375 107.711Z" fill="url(#paint11_linear_0_8)"/>
<path d="M158.803 113.678L166.758 117.038L165.931 118.995L164.036 118.195L164.145 117.632C164.535 118.018 164.832 118.439 165.033 118.893C165.235 119.347 165.337 119.821 165.338 120.313C165.349 120.81 165.251 121.304 165.044 121.795C164.806 122.359 164.465 122.817 164.02 123.171C163.581 123.539 163.065 123.758 162.47 123.826C161.87 123.905 161.211 123.793 160.49 123.488L155.542 121.398L156.435 119.284L160.71 121.09C161.159 121.279 161.561 121.375 161.917 121.378C162.268 121.391 162.57 121.316 162.824 121.152C163.078 120.989 163.273 120.745 163.41 120.422C163.515 120.171 163.564 119.866 163.557 119.506C163.549 119.145 163.416 118.776 163.158 118.396C162.906 118.031 162.446 117.708 161.778 117.426L157.91 115.792L158.803 113.678Z" fill="url(#paint12_linear_0_8)"/>
<path d="M152.657 126.493C153.095 125.712 153.686 125.225 154.431 125.032C155.18 124.855 155.975 125.001 156.815 125.473L163.518 129.231L162.395 131.233L155.915 127.599C155.55 127.394 155.2 127.334 154.866 127.42C154.536 127.521 154.269 127.754 154.064 128.12L153.665 128.832L153.46 128.815L151.859 127.917L152.657 126.493ZM160.57 125.902L162.335 126.891L159.391 132.14L157.627 131.151L160.57 125.902Z" fill="url(#paint13_linear_0_8)"/>
<path d="M149.734 130.525C150.075 130.045 150.473 129.681 150.927 129.433C151.374 129.195 151.84 129.088 152.323 129.112C152.807 129.136 153.261 129.299 153.686 129.601C154.37 130.087 154.746 130.702 154.815 131.446C154.886 132.206 154.641 133.06 154.077 134.009L152.373 136.906L150.876 135.842L152.441 133.201C152.687 132.777 152.804 132.436 152.793 132.178C152.775 131.929 152.665 131.732 152.461 131.588C152.258 131.443 152.023 131.422 151.756 131.524C151.498 131.633 151.264 131.835 151.054 132.131C150.824 132.454 150.7 132.804 150.682 133.181C150.658 133.567 150.72 133.93 150.867 134.271C151.023 134.619 151.249 134.898 151.545 135.108L152.695 135.925C153.092 136.208 153.518 136.302 153.974 136.209C154.429 136.116 154.808 135.856 155.11 135.432C155.393 135.034 155.518 134.643 155.485 134.259C155.462 133.881 155.347 133.583 155.139 133.366L155.248 133.214L156.703 131.871C157.233 132.456 157.516 133.172 157.554 134.019C157.585 134.875 157.301 135.724 156.704 136.564C155.982 137.58 155.127 138.176 154.141 138.351C153.148 138.535 152.129 138.256 151.086 137.514L147.109 134.687L148.261 133.066L150.312 134.524L149.829 135.203C149.502 134.803 149.267 134.33 149.127 133.785C148.988 133.256 148.961 132.708 149.044 132.141C149.136 131.581 149.366 131.042 149.734 130.525Z" fill="url(#paint14_linear_0_8)"/>
<path d="M142.44 139.53C143.06 138.869 143.747 138.418 144.501 138.177C145.248 137.944 146.005 137.924 146.773 138.116C147.54 138.307 148.255 138.713 148.917 139.333C149.578 139.953 150.029 140.641 150.27 141.394C150.511 142.148 150.539 142.905 150.355 143.665C150.163 144.433 149.757 145.147 149.137 145.809C148.657 146.321 148.148 146.699 147.61 146.94C147.073 147.198 146.512 147.309 145.925 147.271C145.331 147.242 144.716 147.07 144.08 146.754L144.987 145.017L145.126 144.868C145.574 145.086 146.033 145.143 146.503 145.04C146.973 144.953 147.359 144.748 147.662 144.425C147.979 144.086 148.176 143.719 148.251 143.324C148.335 142.936 148.302 142.54 148.153 142.136C148.004 141.748 147.735 141.372 147.347 141.008C146.967 140.651 146.574 140.407 146.169 140.276C145.756 140.153 145.355 140.142 144.965 140.243C144.584 140.351 144.234 140.575 143.916 140.914C143.691 141.154 143.528 141.419 143.425 141.711C143.314 142.012 143.268 142.318 143.286 142.63C143.312 142.95 143.41 143.251 143.58 143.534L143.44 143.683L141.765 144.699C141.409 144.086 141.197 143.483 141.129 142.892C141.062 142.301 141.136 141.725 141.35 141.165C141.573 140.612 141.936 140.068 142.44 139.53Z" fill="url(#paint15_linear_0_8)"/>
<path d="M135.552 146.34C136.231 145.756 136.953 145.501 137.719 145.574C138.484 145.664 139.181 146.073 139.809 146.804L144.821 152.628L143.082 154.125L138.236 148.494C137.962 148.176 137.654 148 137.311 147.967C136.967 147.949 136.636 148.077 136.318 148.35L135.699 148.882L135.513 148.796L134.315 147.405L135.552 146.34ZM143.191 148.491L144.51 150.025L139.949 153.95L138.629 152.417L143.191 148.491Z" fill="url(#paint16_linear_0_8)"/>
<path d="M125.467 152.95C126.296 152.481 127.108 152.236 127.903 152.215C128.689 152.2 129.417 152.393 130.088 152.795C130.754 153.212 131.319 153.83 131.782 154.649L135.519 161.246L133.522 162.377L129.768 155.75C129.394 155.089 128.926 154.677 128.365 154.513C127.809 154.359 127.2 154.469 126.539 154.843C125.869 155.223 125.462 155.688 125.317 156.239C125.169 156.805 125.282 157.418 125.656 158.079L129.409 164.706L127.412 165.837L123.676 159.239C123.212 158.421 122.978 157.616 122.973 156.824C122.963 156.048 123.172 155.325 123.599 154.653C124.016 153.987 124.639 153.419 125.467 152.95Z" fill="url(#paint17_linear_0_8)"/>
<path d="M113.719 158.433C114.518 158.143 115.288 158.02 116.027 158.065C116.757 158.114 117.425 158.311 118.033 158.657C118.634 159.017 119.126 159.508 119.508 160.129L117.729 161.354L117.541 161.386C117.257 161.067 116.941 160.814 116.596 160.626C116.25 160.438 115.885 160.329 115.501 160.3C115.117 160.271 114.733 160.326 114.349 160.465C113.976 160.6 113.673 160.777 113.438 160.995C113.193 161.217 113.028 161.458 112.941 161.718C112.848 161.993 112.85 162.264 112.947 162.53C113.059 162.839 113.258 163.056 113.545 163.181C113.821 163.31 114.209 163.35 114.71 163.3L116.807 163.099C117.891 162.995 118.8 163.141 119.535 163.537C120.269 163.934 120.778 164.521 121.06 165.298C121.296 165.948 121.338 166.578 121.186 167.188C121.034 167.798 120.715 168.348 120.23 168.837C119.734 169.331 119.097 169.719 118.319 170.002C117.574 170.272 116.862 170.386 116.183 170.344C115.493 170.305 114.87 170.115 114.312 169.775C113.748 169.449 113.282 168.98 112.914 168.366L114.591 167.305L114.778 167.273C115.088 167.727 115.488 168.016 115.979 168.139C116.47 168.262 117.013 168.215 117.61 167.998C118.121 167.813 118.487 167.541 118.707 167.184C118.916 166.831 118.957 166.478 118.829 166.127C118.713 165.807 118.503 165.576 118.198 165.434C117.886 165.306 117.48 165.266 116.979 165.316L114.882 165.517C113.798 165.621 112.907 165.492 112.209 165.131C111.515 164.78 111.025 164.211 110.739 163.422C110.487 162.73 110.442 162.059 110.604 161.409C110.766 160.76 111.115 160.175 111.649 159.655C112.177 159.15 112.867 158.742 113.719 158.433Z" fill="url(#paint18_linear_0_8)"/>
<path d="M97.2833 168.613L100.349 170.23L99.8494 171.425L96.5584 170.333L97.2833 168.613ZM100.738 170.73L101.458 174.117L99.6196 174.35L99.4395 170.894L100.738 170.73ZM100.592 167.27L100.738 170.73L99.4395 170.894L98.7535 167.502L100.592 167.27ZM100.349 170.23L103.653 171.286L102.928 173.006L99.8494 171.425L100.349 170.23ZM99.7254 170.309L100.507 171.341L97.919 173.639L96.7887 172.154L99.7254 170.309ZM102.292 167.98L103.423 169.465L100.507 171.341L99.7254 170.309L102.292 167.98Z" fill="url(#paint19_linear_0_8)"/>
<path d="M79.9519 162.489C81.0902 162.61 82.06 162.976 82.8613 163.585C83.6626 164.195 84.2508 164.987 84.6257 165.961C84.9882 166.946 85.1041 168.052 84.9734 169.281C84.8415 170.52 84.4953 171.578 83.9349 172.453C83.3632 173.326 82.6215 173.977 81.7099 174.404C80.7982 174.831 79.7733 174.985 78.635 174.863C77.463 174.739 76.4642 174.325 75.6386 173.621C74.8131 172.918 74.2764 172.017 74.0285 170.92L76.1031 170.542L76.2855 170.596C76.4396 171.182 76.7535 171.66 77.227 172.029C77.6881 172.409 78.2342 172.632 78.8653 172.7C79.564 172.774 80.1849 172.669 80.7281 172.385C81.27 172.112 81.7142 171.686 82.0607 171.108C82.3947 170.539 82.6049 169.849 82.6913 169.038C82.7776 168.227 82.718 167.502 82.5123 166.865C82.2941 166.238 81.9494 165.728 81.4783 165.336C81.0059 164.955 80.4204 164.727 79.7217 164.653C79.0906 164.586 78.5103 164.684 77.9808 164.946C77.4389 165.219 77.0309 165.626 76.7568 166.167L76.5673 166.181L74.6186 165.375C75.092 164.354 75.8062 163.587 76.7613 163.073C77.7163 162.559 78.7799 162.365 79.9519 162.489Z" fill="url(#paint20_linear_0_8)"/>
<path d="M68.4558 160.314C69.3088 160.546 70.0127 160.938 70.5677 161.488C71.1087 162.046 71.4744 162.71 71.6646 163.478C71.8549 164.246 71.8325 165.062 71.5974 165.926C71.3622 166.79 70.968 167.505 70.4147 168.071C69.8613 168.637 69.2114 169.018 68.465 169.214C67.7047 169.418 66.8981 169.404 66.0451 169.172C65.1922 168.94 64.4952 168.545 63.9541 167.986C63.3992 167.436 63.0266 166.777 62.8363 166.008C62.646 165.24 62.6684 164.424 62.9036 163.56C63.1387 162.696 63.5329 161.981 64.0863 161.416C64.6396 160.85 65.2964 160.465 66.0567 160.26C66.8031 160.064 67.6028 160.082 68.4558 160.314ZM67.9245 162.266C67.4871 162.147 67.0831 162.143 66.7124 162.254C66.3387 162.375 66.0138 162.598 65.7376 162.922C65.4614 163.246 65.2549 163.66 65.118 164.163C64.9811 164.666 64.9496 165.127 65.0233 165.547C65.0971 165.966 65.2658 166.317 65.5294 166.6C65.7899 166.895 66.1389 167.101 66.5764 167.22C67.0138 167.339 67.4193 167.338 67.793 167.216C68.1637 167.106 68.4872 166.889 68.7633 166.564C69.0395 166.24 69.246 165.827 69.3829 165.324C69.5198 164.821 69.5514 164.359 69.4776 163.94C69.4038 163.52 69.2366 163.164 68.976 162.87C68.7125 162.586 68.362 162.385 67.9245 162.266Z" fill="url(#paint21_linear_0_8)"/>
<path d="M61.991 158.637L58.5558 166.561L56.6062 165.715L57.4244 163.828L57.9864 163.942C57.5964 164.329 57.1733 164.621 56.7171 164.818C56.2609 165.016 55.7865 165.113 55.2939 165.109C54.7969 165.116 54.304 165.014 53.8153 164.802C53.2538 164.558 52.7983 164.213 52.449 163.765C52.0848 163.323 51.8712 162.804 51.8082 162.208C51.7348 161.608 51.8537 160.95 52.1647 160.232L54.3015 155.303L56.4072 156.216L54.5611 160.474C54.3673 160.922 54.2674 161.323 54.2614 161.679C54.2451 162.03 54.3174 162.333 54.4786 162.588C54.6397 162.843 54.8815 163.041 55.2038 163.18C55.4534 163.289 55.7582 163.34 56.1184 163.336C56.4785 163.332 56.8496 163.202 57.2316 162.948C57.5988 162.699 57.9266 162.242 58.2151 161.577L59.8853 157.724L61.991 158.637Z" fill="url(#paint22_linear_0_8)"/>
<path d="M49.2382 152.374C50.0151 152.819 50.4965 153.415 50.6825 154.161C50.8531 154.912 50.6989 155.706 50.2199 156.541L46.3994 163.208L44.4082 162.067L48.1019 155.622C48.3104 155.258 48.3734 154.909 48.2909 154.574C48.1929 154.243 47.962 153.974 47.5982 153.765L46.8902 153.36L46.9094 153.155L47.8223 151.562L49.2382 152.374ZM49.7557 160.292L48.7498 162.047L43.5284 159.055L44.5342 157.3L49.7557 160.292Z" fill="url(#paint23_linear_0_8)"/>
<path d="M45.232 149.412C45.7092 149.758 46.0693 150.159 46.3125 150.615C46.5465 151.065 46.6493 151.531 46.6209 152.015C46.5924 152.498 46.4252 152.951 46.1192 153.373C45.627 154.052 45.0085 154.422 44.2636 154.484C43.503 154.549 42.651 154.295 41.7077 153.723L38.8267 151.992L39.9043 150.505L42.5314 152.095C42.9526 152.344 43.2923 152.464 43.5506 152.455C43.7997 152.44 43.9975 152.331 44.1438 152.13C44.2901 151.928 44.3135 151.693 44.214 151.425C44.1077 151.166 43.9078 150.93 43.6142 150.717C43.293 150.484 42.9441 150.357 42.5675 150.336C42.1816 150.308 41.8176 150.366 41.4754 150.51C41.1265 150.663 40.8456 150.886 40.6327 151.18L39.8046 152.322C39.5185 152.717 39.42 153.143 39.509 153.599C39.5981 154.056 39.8536 154.437 40.2757 154.743C40.6703 155.029 41.06 155.157 41.4449 155.128C41.8232 155.109 42.1217 154.996 42.3406 154.791L42.492 154.901L43.8216 156.368C43.2316 156.893 42.5129 157.169 41.6656 157.199C40.809 157.222 39.9633 156.931 39.1283 156.326C38.1189 155.594 37.5314 154.734 37.3657 153.746C37.1909 152.751 37.4793 151.736 38.231 150.699L41.0946 146.749L42.705 147.916L41.2283 149.953L40.5539 149.464C40.9566 149.14 41.4312 148.91 41.9776 148.775C42.5082 148.641 43.0565 148.619 43.6224 148.707C44.1816 148.805 44.7182 149.039 45.232 149.412Z" fill="url(#paint24_linear_0_8)"/>
<path d="M36.2967 142.036C36.9523 142.662 37.397 143.354 37.6308 144.11C37.8565 144.858 37.8698 145.615 37.671 146.381C37.4722 147.147 37.0596 147.858 36.4334 148.514C35.8072 149.17 35.116 149.614 34.3599 149.848C33.6037 150.082 32.8467 150.103 32.0888 149.912C31.3227 149.714 30.6118 149.301 29.9562 148.675C29.448 148.189 29.0756 147.677 28.8387 147.137C28.5858 146.598 28.4807 146.035 28.5234 145.449C28.5578 144.855 28.7361 144.242 29.0583 143.609L30.7869 144.531L30.9344 144.672C30.7122 145.118 30.6505 145.577 30.7495 146.047C30.8325 146.518 31.0338 146.907 31.3534 147.212C31.6895 147.533 32.0548 147.733 32.4494 147.812C32.8361 147.899 33.2323 147.87 33.6377 147.724C34.0272 147.579 34.4059 147.314 34.7738 146.929C35.1338 146.552 35.3814 146.161 35.5164 145.757C35.6432 145.346 35.6581 144.945 35.5609 144.554C35.4559 144.172 35.2354 143.82 34.8994 143.499C34.6617 143.272 34.3974 143.106 34.1064 143C33.8072 142.887 33.5015 142.838 33.1892 142.853C32.8691 142.876 32.5667 142.972 32.2819 143.138L32.1344 142.998L31.1338 141.313C31.751 140.962 32.3554 140.756 32.9472 140.694C33.539 140.633 34.1139 140.712 34.6721 140.931C35.2224 141.159 35.7639 141.527 36.2967 142.036Z" fill="url(#paint25_linear_0_8)"/>
<path d="M29.5504 135.086C30.1281 135.77 30.3767 136.494 30.2961 137.26C30.1995 138.023 29.7833 138.716 29.0473 139.338L23.1769 144.296L21.6961 142.542L27.3717 137.749C27.6921 137.478 27.8707 137.172 27.9076 136.829C27.9286 136.485 27.8038 136.153 27.5332 135.832L27.0067 135.209L27.0947 135.023L28.4974 133.839L29.5504 135.086ZM27.3282 142.703L25.7826 144.009L21.8996 139.411L23.4451 138.106L27.3282 142.703Z" fill="url(#paint26_linear_0_8)"/>
<path d="M23.0349 124.939C23.4963 125.772 23.7337 126.586 23.7471 127.382C23.7551 128.168 23.555 128.895 23.147 129.561C22.7235 130.223 22.1004 130.782 21.2776 131.238L14.6456 134.913L13.5333 132.906L20.195 129.214C20.8592 128.846 21.2758 128.382 21.4449 127.822C21.604 127.268 21.4996 126.658 21.1316 125.994C20.7581 125.32 20.2968 124.908 19.7476 124.759C19.1831 124.605 18.5687 124.713 17.9045 125.081L11.2428 128.772L10.1305 126.764L16.7625 123.09C17.5853 122.634 18.3925 122.407 19.1839 122.409C19.96 122.406 20.6819 122.622 21.3496 123.055C22.0118 123.479 22.5735 124.107 23.0349 124.939Z" fill="url(#paint27_linear_0_8)"/>
<path d="M17.6623 113.143C17.945 113.944 18.0605 114.715 18.0088 115.454C17.9533 116.183 17.7497 116.849 17.3982 117.454C17.0322 118.052 16.537 118.539 15.9126 118.915L14.7041 117.124L14.674 116.937C14.9953 116.655 15.2516 116.342 15.4428 115.999C15.634 115.655 15.7459 115.291 15.7787 114.907C15.8115 114.523 15.76 114.138 15.6243 113.753C15.4924 113.379 15.3187 113.074 15.1031 112.838C14.8837 112.591 14.6443 112.423 14.3846 112.334C14.1106 112.238 13.8399 112.238 13.5727 112.332C13.2628 112.441 13.044 112.639 12.9163 112.924C12.7848 113.199 12.7413 113.586 12.7859 114.088L12.9674 116.187C13.0614 117.271 12.9069 118.179 12.5037 118.91C12.1006 119.641 11.5089 120.144 10.7287 120.419C10.0767 120.649 9.44645 120.685 8.83795 120.527C8.22944 120.369 7.68258 120.045 7.19737 119.556C6.70839 119.055 6.32631 118.415 6.05114 117.634C5.78728 116.886 5.67994 116.173 5.72914 115.495C5.77456 114.806 5.96991 114.184 6.31517 113.63C6.64598 113.068 7.12009 112.607 7.73752 112.245L8.78291 113.931L8.81304 114.119C8.35593 114.424 8.06351 114.822 7.93578 115.311C7.80805 115.801 7.84973 116.345 8.06082 116.944C8.24175 117.457 8.50979 117.825 8.86493 118.048C9.2163 118.261 9.56834 118.305 9.92105 118.18C10.2417 118.067 10.4747 117.859 10.6199 117.555C10.7508 117.245 10.7939 116.839 10.7494 116.338L10.5679 114.239C10.4739 113.154 10.6108 112.265 10.9787 111.57C11.336 110.879 11.9101 110.395 12.701 110.116C13.3957 109.871 14.0671 109.832 14.7152 110C15.3633 110.168 15.9448 110.522 16.4595 111.061C16.9598 111.594 17.3607 112.288 17.6623 113.143Z" fill="url(#paint28_linear_0_8)"/>
<path d="M7.63623 96.6134L5.99082 99.6644L4.80132 99.1532L5.92347 95.8725L7.63623 96.6134ZM5.48806 100.048L2.09407 100.737L1.87862 98.8963L5.33586 98.7483L5.48806 100.048ZM8.94926 99.9342L5.48806 100.048L5.33586 98.7483L8.73381 98.0938L8.94926 99.9342ZM5.99082 99.6644L4.90441 102.958L3.19165 102.217L4.80132 99.1532L5.99082 99.6644ZM5.91768 99.0397L4.8784 99.8117L2.60459 97.2024L4.09992 96.086L5.91768 99.0397ZM8.22329 101.628L6.72796 102.745L4.8784 99.8117L5.91768 99.0397L8.22329 101.628Z" fill="url(#paint29_linear_0_8)"/>
<path d="M13.9193 79.3378C13.7876 80.4749 13.4132 81.4412 12.7963 82.2369C12.1793 83.0325 11.3819 83.6133 10.4039 83.9792C9.41606 84.3325 8.30855 84.4382 7.08142 84.296C5.84303 84.1526 4.78899 83.7966 3.91928 83.2281C3.05089 82.6484 2.4073 81.9007 1.98852 80.9851C1.56975 80.0695 1.42621 79.0432 1.5579 77.9061C1.69351 76.7353 2.11679 75.7404 2.82773 74.9214C3.53867 74.1024 4.44414 73.5741 5.54412 73.3364L5.90243 75.4144L5.84714 75.5963C5.25946 75.745 4.77867 76.0544 4.40477 76.5245C4.02091 76.982 3.79247 77.526 3.71946 78.1565C3.63861 78.8545 3.73773 79.4763 4.01679 80.0221C4.2846 80.5665 4.70617 81.0146 5.28151 81.3665C5.8469 81.7058 6.53488 81.9224 7.34546 82.0163C8.15604 82.1102 8.88095 82.0572 9.52018 81.8574C10.1495 81.6451 10.6623 81.3052 11.0587 80.8377C11.4439 80.3689 11.6769 79.7855 11.7577 79.0875C11.8307 78.457 11.7383 77.8759 11.4805 77.344C11.2127 76.7996 10.8097 76.3878 10.2716 76.1087L10.2593 75.919L11.0831 73.9779C12.0996 74.4607 12.8604 75.1821 13.3653 76.1419C13.8702 77.1017 14.0549 78.167 13.9193 79.3378Z" fill="url(#paint30_linear_0_8)"/>
<path d="M16.2023 67.8583C15.9622 68.709 15.5643 69.4093 15.0087 69.959C14.4453 70.4948 13.7786 70.8541 13.0085 71.0372C12.2385 71.2202 11.4227 71.19 10.561 70.9468C9.69938 70.7035 8.98823 70.3026 8.42759 69.7439C7.86695 69.1853 7.49204 68.5318 7.30287 67.7836C7.10587 67.0214 7.12745 66.215 7.36762 65.3642C7.60779 64.5135 8.00959 63.8202 8.573 63.2845C9.12859 62.7347 9.79139 62.3684 10.5614 62.1853C11.3314 62.0023 12.1473 62.0325 13.0089 62.2757C13.8706 62.5189 14.5817 62.9199 15.1424 63.4786C15.703 64.0372 16.0818 64.6977 16.2788 65.4599C16.468 66.2081 16.4425 67.0075 16.2023 67.8583ZM14.2554 67.3087C14.3786 66.8724 14.3867 66.4684 14.2796 66.0967C14.1617 65.7218 13.9419 65.3948 13.6203 65.1156C13.2988 64.8364 12.8871 64.626 12.3854 64.4844C11.8837 64.3427 11.4228 64.3068 11.0027 64.3767C10.5826 64.4465 10.2297 64.6118 9.94407 64.8727C9.64754 65.1305 9.4377 65.4776 9.31453 65.9138C9.19137 66.3501 9.18876 66.7557 9.3067 67.1305C9.41373 67.5022 9.62803 67.8277 9.94961 68.1069C10.2712 68.3861 10.6828 68.5965 11.1846 68.7381C11.6863 68.8798 12.1472 68.9157 12.5673 68.8458C12.9874 68.776 13.3457 68.6122 13.6422 68.3544C13.9279 68.0935 14.1323 67.7449 14.2554 67.3087Z" fill="url(#paint31_linear_0_8)"/>
<path d="M17.9412 61.4082L10.0506 57.8985L10.9142 55.9569L12.7936 56.7929L12.6744 57.3539C12.2913 56.9602 12.0032 56.5343 11.81 56.0763C11.6168 55.6182 11.5243 55.143 11.5325 54.6505C11.5303 54.1533 11.6375 53.6614 11.854 53.1748C12.1027 52.6156 12.4527 52.1634 12.9038 51.8184C13.3493 51.4583 13.87 51.2496 14.4661 51.1922C15.0668 51.1245 15.7244 51.2496 16.4389 51.5674L21.3473 53.7506L20.4146 55.8475L16.1742 53.9614C15.7289 53.7633 15.3285 53.6596 14.9729 53.6503C14.6219 53.6307 14.3181 53.7002 14.0615 53.8589C13.8048 54.0177 13.6051 54.2575 13.4623 54.5785C13.3517 54.8271 13.297 55.1314 13.298 55.4916C13.2991 55.8518 13.425 56.2241 13.6757 56.6085C13.9207 56.9779 14.3746 57.31 15.0373 57.6048L18.8739 59.3113L17.9412 61.4082Z" fill="url(#paint32_linear_0_8)"/>
<path d="M24.3213 48.7193C23.8689 49.492 23.2685 49.9678 22.5201 50.1469C21.7677 50.3105 20.9758 50.1489 20.1445 49.6622L13.5135 45.7797L14.6731 43.7992L21.084 47.5528C21.4459 47.7647 21.7946 47.8309 22.13 47.7515C22.4613 47.6566 22.733 47.4282 22.9448 47.0664L23.3571 46.3622L23.5615 46.3833L25.1459 47.311L24.3213 48.7193ZM16.3984 49.163L14.6526 48.1408L17.6933 42.9475L19.4391 43.9697L16.3984 49.163Z" fill="url(#paint33_linear_0_8)"/>
<path d="M27.3216 44.7395C26.9713 45.2134 26.5669 45.5698 26.1084 45.8087C25.6566 46.0385 25.1892 46.137 24.7062 46.1041C24.2231 46.0711 23.772 45.8997 23.3528 45.5898C22.6784 45.0913 22.3137 44.4693 22.2586 43.724C22.2012 42.9627 22.4628 42.1132 23.0434 41.1753L24.8018 38.3104L26.2782 39.4018L24.6642 42.014C24.411 42.4329 24.2875 42.7715 24.2939 43.0298C24.3069 43.2791 24.4137 43.4778 24.6142 43.626C24.8147 43.7742 25.0495 43.7998 25.3186 43.7028C25.5785 43.5989 25.8163 43.4012 26.0319 43.1096C26.2677 42.7906 26.3979 42.4429 26.4224 42.0665C26.4538 41.6809 26.3991 41.3163 26.2585 40.9728C26.1087 40.6225 25.888 40.3395 25.5964 40.1239L24.4617 39.2852C24.0698 38.9955 23.6453 38.893 23.188 38.9778C22.7307 39.0626 22.3471 39.3146 22.0372 39.7338C21.7475 40.1257 21.6153 40.5142 21.6406 40.8994C21.6569 41.2778 21.7666 41.5774 21.9699 41.7981L21.8587 41.9485L20.3786 43.2644C19.8599 42.6696 19.5897 41.9483 19.568 41.1007C19.553 40.244 19.852 39.401 20.4651 38.5717C21.2062 37.5692 22.0714 36.9897 23.0609 36.8332C24.0571 36.6677 25.0701 36.9655 26.1 37.7268L30.0234 40.6271L28.841 42.2265L26.8178 40.7309L27.313 40.061C27.6331 40.4668 27.8586 40.9435 27.9893 41.4912C28.1177 42.023 28.1351 42.5714 28.0415 43.1365C27.9388 43.6948 27.6989 44.2291 27.3216 44.7395Z" fill="url(#paint34_linear_0_8)"/>
<path d="M34.7785 35.8739C34.1462 36.5237 33.4509 36.962 32.6927 37.1888C31.9423 37.4075 31.185 37.4139 30.4208 37.208C29.6566 37.002 28.9495 36.5829 28.2997 35.9507C27.6499 35.3184 27.2116 34.6231 26.9848 33.8649C26.758 33.1066 26.7436 32.3494 26.9416 31.5933C27.1475 30.8291 27.5666 30.1221 28.1989 29.4722C28.6889 28.9686 29.2048 28.6009 29.7466 28.369C30.2882 28.1212 30.8519 28.0213 31.4376 28.0694C32.0312 28.1093 32.6429 28.2933 33.2725 28.6213L32.3343 30.3412L32.1921 30.4874C31.7481 30.2611 31.2904 30.1953 30.8188 30.2899C30.3471 30.3685 29.9571 30.5662 29.6488 30.883C29.3248 31.216 29.1214 31.5795 29.0386 31.9733C28.9477 32.3593 28.9732 32.7556 29.115 33.1624C29.2566 33.5532 29.5183 33.9343 29.9001 34.3058C30.2738 34.6693 30.6619 34.9205 31.0646 35.0592C31.4751 35.1898 31.8761 35.2084 32.2675 35.1149C32.6508 35.0134 33.0045 34.7962 33.3285 34.4632C33.5577 34.2276 33.7264 33.9648 33.8347 33.6748C33.9508 33.3767 34.0027 33.0714 33.9904 32.759C33.97 32.4387 33.8777 32.1354 33.7135 31.8491L33.8557 31.7029L35.5493 30.7179C35.8945 31.3383 36.0951 31.9447 36.1513 32.537C36.2075 33.1293 36.1232 33.7035 35.8984 34.2596C35.6655 34.8078 35.2922 35.3459 34.7785 35.8739Z" fill="url(#paint35_linear_0_8)"/>
<path d="M41.7917 29.1923C41.1024 29.7637 40.3755 30.0055 39.611 29.9179C38.848 29.8142 38.1591 29.3916 37.5444 28.6499L32.6411 22.7337L34.4081 21.2692L39.1487 26.989C39.4163 27.3119 39.7212 27.4934 40.0636 27.5335C40.4074 27.5576 40.7408 27.4359 41.0636 27.1683L41.6919 26.6476L41.8767 26.7373L43.0483 28.1509L41.7917 29.1923ZM34.1949 26.8996L32.904 25.342L37.5374 21.5018L38.8284 23.0594L34.1949 26.8996Z" fill="url(#paint36_linear_0_8)"/>
<path d="M51.9985 22.771C51.1616 23.2246 50.3451 23.4544 49.5491 23.4603C48.7631 23.4609 48.0387 23.2541 47.3759 22.8398C46.7177 22.4102 46.1645 21.7819 45.7163 20.9548L42.1037 14.2888L44.1215 13.1953L47.7502 19.8912C48.112 20.5588 48.5722 20.9798 49.1307 21.1541C49.6838 21.3184 50.2942 21.2196 50.9618 20.8578C51.6393 20.4907 52.0553 20.0332 52.2096 19.4855C52.3686 18.9224 52.2671 18.3071 51.9053 17.6395L48.2766 10.9435L50.2943 9.85005L53.9069 16.5161C54.3551 17.3431 54.5745 18.1524 54.5651 18.9438C54.5603 19.7198 54.338 20.4397 53.8985 21.1033C53.4688 21.7615 52.8355 22.3174 51.9985 22.771Z" fill="url(#paint37_linear_0_8)"/>
<path d="M63.8434 17.5106C63.0392 17.7858 62.2677 17.8941 61.5289 17.8354C60.8009 17.7731 60.1362 17.5633 59.5348 17.2061C58.9405 16.8345 58.458 16.3348 58.0875 15.707L59.8897 14.5153L60.0777 14.4869C60.3562 14.8109 60.6665 15.07 61.0085 15.2644C61.3506 15.4588 61.7135 15.5742 62.0972 15.6106C62.481 15.647 62.8659 15.5991 63.2519 15.467C63.6272 15.3386 63.9341 15.1677 64.1725 14.9544C64.4217 14.7373 64.5919 14.4994 64.683 14.2407C64.7812 13.9675 64.7844 13.6969 64.6927 13.4288C64.5862 13.1178 64.391 12.8972 64.1068 12.7668C63.8333 12.6328 63.4459 12.5857 62.9444 12.6255L60.8437 12.7874C59.7584 12.8713 58.8521 12.7082 58.1249 12.2983C57.3977 11.8883 56.9001 11.2919 56.6323 10.5091C56.4085 9.85505 56.3784 9.2245 56.542 8.6175C56.7056 8.0105 57.0346 7.46669 57.529 6.98609C58.034 6.50182 58.678 6.12575 59.4607 5.8579C60.2114 5.60106 60.9256 5.5004 61.6034 5.55595C62.2919 5.60782 62.9118 5.80898 63.4629 6.15942C64.0211 6.49546 64.4783 6.97388 64.8345 7.59467L63.1384 8.62422L62.9505 8.65259C62.6494 8.19265 62.2546 7.89652 61.7661 7.76421C61.2776 7.63189 60.7331 7.66848 60.1326 7.87395C59.6179 8.05008 59.2473 8.31466 59.0207 8.66769C58.8049 9.01706 58.7575 9.36867 58.8786 9.72252C58.9887 10.0442 59.1948 10.2791 59.4971 10.4272C59.8063 10.561 60.2117 10.6079 60.7132 10.5681L62.8139 10.4063C63.8992 10.3224 64.7874 10.4676 65.4785 10.8421C66.1659 11.2058 66.6454 11.7843 66.917 12.5778C67.1555 13.2748 67.1877 13.9466 67.0136 14.5931C66.8395 15.2396 66.4804 15.8177 65.936 16.3274C65.3988 16.8226 64.7013 17.2171 63.8434 17.5106Z" fill="url(#paint38_linear_0_8)"/>
<path d="M80.2952 7.62891L77.2313 6.00766L77.733 4.81416L81.0225 5.91034L80.2952 7.62891ZM76.8432 5.50796L76.1281 2.11952L77.9668 1.88952L78.1421 5.34549L76.8432 5.50796ZM76.9848 8.96814L76.8432 5.50796L78.1421 5.34549L78.8235 8.73815L76.9848 8.96814ZM77.2313 6.00766L73.9291 4.94732L74.6564 3.22876L77.733 4.81416L77.2313 6.00766ZM77.8554 5.92959L77.0751 4.89645L79.6664 2.60208L80.7946 4.08854L77.8554 5.92959ZM75.2852 8.25559L74.157 6.76913L77.0751 4.89645L77.8554 5.92959L75.2852 8.25559Z" fill="url(#paint39_linear_0_8)"/>
<defs>
<linearGradient id="paint0_linear_0_8" x1="102.059" y1="1.27159" x2="88.2112" y2="1.29992" gradientUnits="userSpaceOnUse">
<stop stop-color="#73ED7C"/>
<stop offset="1" stop-color="#019297"/>
</linearGradient>
<linearGradient id="paint1_linear_0_8" x1="114.575" y1="4.2935" x2="103.366" y2="2.33103" gradientUnits="userSpaceOnUse">
<stop stop-color="#73ED7C"/>
<stop offset="1" stop-color="#019297"/>
</linearGradient>
<linearGradient id="paint2_linear_0_8" x1="126.162" y1="8.87869" x2="115.513" y2="5.37403" gradientUnits="userSpaceOnUse">
<stop stop-color="#73ED7C"/>
<stop offset="1" stop-color="#019297"/>
</linearGradient>
<linearGradient id="paint3_linear_0_8" x1="132.782" y1="12.5278" x2="127.124" y2="9.71822" gradientUnits="userSpaceOnUse">
<stop stop-color="#73ED7C"/>
<stop offset="1" stop-color="#019297"/>
</linearGradient>
<linearGradient id="paint4_linear_0_8" x1="142.2" y1="18.8471" x2="133.051" y2="13.3665" gradientUnits="userSpaceOnUse">
<stop stop-color="#73ED7C"/>
<stop offset="1" stop-color="#019297"/>
</linearGradient>
<linearGradient id="paint5_linear_0_8" x1="151.148" y1="26.8628" x2="142.672" y2="20.0945" gradientUnits="userSpaceOnUse">
<stop stop-color="#73ED7C"/>
<stop offset="1" stop-color="#019297"/>
</linearGradient>
<linearGradient id="paint6_linear_0_8" x1="156.005" y1="32.4216" x2="151.716" y2="27.9096" gradientUnits="userSpaceOnUse">
<stop stop-color="#73ED7C"/>
<stop offset="1" stop-color="#019297"/>
</linearGradient>
<linearGradient id="paint7_linear_0_8" x1="167.339" y1="49.7433" x2="159.191" y2="38.2279" gradientUnits="userSpaceOnUse">
<stop stop-color="#73ED7C"/>
<stop offset="1" stop-color="#019297"/>
</linearGradient>
<linearGradient id="paint8_linear_0_8" x1="172.309" y1="62.5624" x2="167.163" y2="51.5298" gradientUnits="userSpaceOnUse">
<stop stop-color="#73ED7C"/>
<stop offset="1" stop-color="#019297"/>
</linearGradient>
<linearGradient id="paint9_linear_0_8" x1="175.873" y1="81.7177" x2="173.272" y2="69.7589" gradientUnits="userSpaceOnUse">
<stop stop-color="#73ED7C"/>
<stop offset="1" stop-color="#019297"/>
</linearGradient>
<linearGradient id="paint10_linear_0_8" x1="174.926" y1="102.946" x2="175.027" y2="89.0985" gradientUnits="userSpaceOnUse">
<stop stop-color="#73ED7C"/>
<stop offset="1" stop-color="#019297"/>
</linearGradient>
<linearGradient id="paint11_linear_0_8" x1="171.785" y1="115.439" x2="173.853" y2="104.248" gradientUnits="userSpaceOnUse">
<stop stop-color="#73ED7C"/>
<stop offset="1" stop-color="#019297"/>
</linearGradient>
<linearGradient id="paint12_linear_0_8" x1="167.096" y1="126.971" x2="170.699" y2="116.355" gradientUnits="userSpaceOnUse">
<stop stop-color="#73ED7C"/>
<stop offset="1" stop-color="#019297"/>
</linearGradient>
<linearGradient id="paint13_linear_0_8" x1="163.382" y1="133.562" x2="166.244" y2="127.931" gradientUnits="userSpaceOnUse">
<stop stop-color="#73ED7C"/>
<stop offset="1" stop-color="#019297"/>
</linearGradient>
<linearGradient id="paint14_linear_0_8" x1="156.975" y1="142.922" x2="162.54" y2="133.825" gradientUnits="userSpaceOnUse">
<stop stop-color="#73ED7C"/>
<stop offset="1" stop-color="#019297"/>
</linearGradient>
<linearGradient id="paint15_linear_0_8" x1="148.878" y1="151.793" x2="155.725" y2="143.38" gradientUnits="userSpaceOnUse">
<stop stop-color="#73ED7C"/>
<stop offset="1" stop-color="#019297"/>
</linearGradient>
<linearGradient id="paint16_linear_0_8" x1="143.274" y1="156.598" x2="147.826" y2="152.351" gradientUnits="userSpaceOnUse">
<stop stop-color="#73ED7C"/>
<stop offset="1" stop-color="#019297"/>
</linearGradient>
<linearGradient id="paint17_linear_0_8" x1="125.848" y1="167.771" x2="137.438" y2="159.731" gradientUnits="userSpaceOnUse">
<stop stop-color="#73ED7C"/>
<stop offset="1" stop-color="#019297"/>
</linearGradient>
<linearGradient id="paint18_linear_0_8" x1="112.985" y1="172.62" x2="124.065" y2="167.578" gradientUnits="userSpaceOnUse">
<stop stop-color="#73ED7C"/>
<stop offset="1" stop-color="#019297"/>
</linearGradient>
<linearGradient id="paint19_linear_0_8" x1="93.7982" y1="176.005" x2="105.781" y2="173.515" gradientUnits="userSpaceOnUse">
<stop stop-color="#73ED7C"/>
<stop offset="1" stop-color="#019297"/>
</linearGradient>
<linearGradient id="paint20_linear_0_8" x1="72.5765" y1="174.862" x2="86.4221" y2="175.091" gradientUnits="userSpaceOnUse">
<stop stop-color="#73ED7C"/>
<stop offset="1" stop-color="#019297"/>
</linearGradient>
<linearGradient id="paint21_linear_0_8" x1="60.1076" y1="171.602" x2="71.2783" y2="173.776" gradientUnits="userSpaceOnUse">
<stop stop-color="#73ED7C"/>
<stop offset="1" stop-color="#019297"/>
</linearGradient>
<linearGradient id="paint22_linear_0_8" x1="48.6202" y1="166.805" x2="59.2019" y2="170.508" gradientUnits="userSpaceOnUse">
<stop stop-color="#73ED7C"/>
<stop offset="1" stop-color="#019297"/>
</linearGradient>
<linearGradient id="paint23_linear_0_8" x1="42.0697" y1="163.032" x2="47.6738" y2="165.947" gradientUnits="userSpaceOnUse">
<stop stop-color="#73ED7C"/>
<stop offset="1" stop-color="#019297"/>
</linearGradient>
<linearGradient id="paint24_linear_0_8" x1="32.7686" y1="156.537" x2="41.8132" y2="162.187" gradientUnits="userSpaceOnUse">
<stop stop-color="#73ED7C"/>
<stop offset="1" stop-color="#019297"/>
</linearGradient>
<linearGradient id="paint25_linear_0_8" x1="23.9746" y1="148.36" x2="32.3236" y2="155.285" gradientUnits="userSpaceOnUse">
<stop stop-color="#73ED7C"/>
<stop offset="1" stop-color="#019297"/>
</linearGradient>
<linearGradient id="paint26_linear_0_8" x1="19.2214" y1="142.712" x2="23.426" y2="147.303" gradientUnits="userSpaceOnUse">
<stop stop-color="#73ED7C"/>
<stop offset="1" stop-color="#019297"/>
</linearGradient>
<linearGradient id="paint27_linear_0_8" x1="8.21076" y1="125.181" x2="16.1427" y2="136.847" gradientUnits="userSpaceOnUse">
<stop stop-color="#73ED7C"/>
<stop offset="1" stop-color="#019297"/>
</linearGradient>
<linearGradient id="paint28_linear_0_8" x1="3.48265" y1="112.276" x2="8.421" y2="123.403" gradientUnits="userSpaceOnUse">
<stop stop-color="#73ED7C"/>
<stop offset="1" stop-color="#019297"/>
</linearGradient>
<linearGradient id="paint29_linear_0_8" x1="0.27705" y1="93.0598" x2="2.65571" y2="105.065" gradientUnits="userSpaceOnUse">
<stop stop-color="#73ED7C"/>
<stop offset="1" stop-color="#019297"/>
</linearGradient>
<linearGradient id="paint30_linear_0_8" x1="1.61521" y1="71.8479" x2="1.25778" y2="85.6908" gradientUnits="userSpaceOnUse">
<stop stop-color="#73ED7C"/>
<stop offset="1" stop-color="#019297"/>
</linearGradient>
<linearGradient id="paint31_linear_0_8" x1="4.99354" y1="59.404" x2="2.71446" y2="70.5537" gradientUnits="userSpaceOnUse">
<stop stop-color="#73ED7C"/>
<stop offset="1" stop-color="#019297"/>
</linearGradient>
<linearGradient id="paint32_linear_0_8" x1="9.90017" y1="47.961" x2="6.09704" y2="58.5073" gradientUnits="userSpaceOnUse">
<stop stop-color="#73ED7C"/>
<stop offset="1" stop-color="#019297"/>
</linearGradient>
<linearGradient id="paint33_linear_0_8" x1="13.7298" y1="41.4519" x2="10.763" y2="47.0286" gradientUnits="userSpaceOnUse">
<stop stop-color="#73ED7C"/>
<stop offset="1" stop-color="#019297"/>
</linearGradient>
<linearGradient id="paint34_linear_0_8" x1="20.3126" y1="32.2103" x2="14.5785" y2="41.2019" gradientUnits="userSpaceOnUse">
<stop stop-color="#73ED7C"/>
<stop offset="1" stop-color="#019297"/>
</linearGradient>
<linearGradient id="paint35_linear_0_8" x1="28.5686" y1="23.4938" x2="21.5674" y2="31.7784" gradientUnits="userSpaceOnUse">
<stop stop-color="#73ED7C"/>
<stop offset="1" stop-color="#019297"/>
</linearGradient>
<linearGradient id="paint36_linear_0_8" x1="34.2613" y1="18.7931" x2="29.6318" y2="22.9549" gradientUnits="userSpaceOnUse">
<stop stop-color="#73ED7C"/>
<stop offset="1" stop-color="#019297"/>
</linearGradient>
<linearGradient id="paint37_linear_0_8" x1="51.895" y1="7.94519" x2="40.1559" y2="15.7678" gradientUnits="userSpaceOnUse">
<stop stop-color="#73ED7C"/>
<stop offset="1" stop-color="#019297"/>
</linearGradient>
<linearGradient id="paint38_linear_0_8" x1="64.8429" y1="3.33969" x2="53.6704" y2="8.17364" gradientUnits="userSpaceOnUse">
<stop stop-color="#73ED7C"/>
<stop offset="1" stop-color="#019297"/>
</linearGradient>
<linearGradient id="paint39_linear_0_8" x1="81.3612" y1="0.545736" x2="72.0077" y2="2.30491" gradientUnits="userSpaceOnUse">
<stop stop-color="#73ED7C"/>
<stop offset="1" stop-color="#019297"/>
</linearGradient>
</defs>
</svg>
